SplineFontDB: 1.0
FontName: Norasi-Bold
FullName: Norasi Bold
FamilyName: Norasi
Weight: Bold
Copyright: Copyright © 1999, The National Font Project (v.beta ). Yannis Haralambous, Virach Sornlertlamvanich and Anutara Tantraporn. All rights reserved.\n\nModified by TLWG
Version: 1.1 : May 12, 2003
ItalicAngle: 0
UnderlinePosition: -100
UnderlineWidth: 50
Ascent: 800
Descent: 200
NeedsXUIDChange: 1
FSType: 0
PfmFamily: 17
TTFWeight: 700
TTFWidth: 5
Panose: 2 0 5 6 0 0 0 2 0 4
LineGap: 18
VLineGap: 0
ScriptLang: 3
 1 DFLT 1 dflt 
 1 thai 1 dflt 
 1 latn 1 dflt 
LangName: 1033 "" "" "" "TheNationalFontProject(v.beta).YannisHaralambous,VirachSornlertlamvanichandAnutaraTantraporn: Norasi Bold: 1999" "" "" "" "Norasi Bold is a trademark of the The National Font Project (v.beta ). Yannis Haralambous, Virach Sornlertlamvanich and Anutara Tantraporn." "" "Yannis Haralambous, Virach Sornlertlamvanich and Anutara Tantraporn" "This font was developed under the National Font Project at NECTEC as to be a free licensed font for Thai users and developers." "www.nectec.or.th/sll/" 
Encoding: custom
DisplaySize: -72
AntiAlias: 1
FitToEm: 1
WinInfo: 24 8 5
BeginPrivate: 4
BlueValues 31 [-13 0 315 323 385 393 462 472]
OtherBlues 11 [-163 -151]
ForceBold 4 true
BlueScale 8 0.039625
EndPrivate
BeginChars: 278 244
StartChar: .notdef
Encoding: 0 -1 0
Width: 266
Flags: W
HStem: 0 21G<0 250> 442 20G<0 250>
VStem: 0 250<0 462>
Fore
250 0 m 1
 0 0 l 1
 0 462 l 1
 250 462 l 5
 250 0 l 1
EndSplineSet
EndChar
StartChar: exclam
Encoding: 33 33 2
Width: 227
Flags: MW
HStem: -9 116<113 123>
Fore
56 48 m 0
 56 79 81 107 113 107 c 0
 145 107 171 80 171 48 c 0
 171 16 145 -9 113 -9 c 0
 81 -9 56 16 56 48 c 0
123 160 m 1
 103 160 l 1
 86 335 55 347 55 404 c 0
 55 448 78 472 113 472 c 0
 148 472 171 448 171 404 c 0
 171 347 140 335 123 160 c 1
EndSplineSet
Back
100.098 36.1328 m 0
 100.098 24.9023 96.1914 15.1367 88.3789 7.32422 c 0
 81.0547 0 71.7773 -3.90625 62.0117 -3.90625 c 0
 38.0859 -3.90625 25.8789 9.27734 25.8789 36.1328 c 0
 25.8789 61.5234 37.5977 76.1719 61.0352 80.0781 c 1
 85.4492 80.0781 98.6328 65.4297 100.098 36.1328 c 0
98.1445 399.902 m 1
 97.168 375 l 1
 71.7773 116.211 l 1
 50.7812 116.211 l 1
 46.3867 169.922 42.4805 215.82 39.0625 253.418 c 0
 35.6445 291.016 32.7148 324.219 29.7852 352.051 c 0
 28.8086 359.863 27.832 367.676 27.3438 375 c 0
 27.3438 382.324 26.8555 389.648 25.8789 396.973 c 0
 25.8789 439.453 37.5977 460.938 61.0352 460.938 c 0
 85.4492 460.938 98.1445 441.895 98.1445 402.832 c 2
 98.1445 399.902 l 1
EndSplineSet
EndChar
StartChar: quotedbl
Encoding: 34 34 3
Width: 378
Flags: W
HStem: 472 21G<86.5 114 264.5 291.5>
VStem: 57 88<423 425>
Fore
115 276 m 1
 87 276 l 1
 75 325 57 407 57 423 c 0
 57 452 73 472 100 472 c 0
 128 472 145 452 145 423 c 0
 145 407 126 325 115 276 c 1
292 276 m 1
 264 276 l 1
 253 325 234 407 234 423 c 0
 235 452 251 472 278 472 c 0
 305 472 322 452 322 423 c 0
 322 407 304 325 292 276 c 1
EndSplineSet
Back
204.102 389.16 m 1
 183.105 262.207 l 1
 153.809 262.207 l 1
 149.414 290.039 145.508 312.5 142.578 329.59 c 0
 139.648 346.68 137.207 359.863 135.742 369.141 c 0
 133.789 378.418 132.812 384.766 132.324 389.16 c 0
 132.324 393.066 131.836 396.484 131.836 398.926 c 0
 131.836 421.875 144.043 433.105 167.969 433.105 c 0
 191.406 433.105 203.125 421.875 204.102 398.926 c 1
 204.102 389.16 l 1
98.1445 389.16 m 1
 76.1719 262.207 l 1
 47.8516 262.207 l 1
 43.457 290.039 39.5508 312.5 36.6211 329.59 c 0
 33.6914 346.68 31.25 359.863 29.2969 369.141 c 0
 27.832 378.418 26.8555 384.766 26.3672 389.16 c 0
 26.3672 393.066 25.8789 396.484 25.8789 398.926 c 0
 25.8789 421.875 38.0859 433.105 62.0117 433.105 c 0
 85.4492 433.105 97.168 421.875 98.1445 398.926 c 1
 98.1445 389.16 l 1
EndSplineSet
EndChar
StartChar: numbersign
Encoding: 35 35 4
Width: 341
Flags: W
HStem: 143 50<3 68 129 199 259 318> 285 50<23 88 148 218 279 338>
DStem: 68 143 122 143 48 0 102 0 88 285 141 285 76 193 129 193 115 478 168 478 95 335 148 335 199 143 252 143 179 0 232 0 218 285 272 285 206 193 259 193 246 478 298 478 225 335 279 335
Fore
319 193 m 1
 318 143 l 1
 252 143 l 1
 232 0 l 1
 179 0 l 1
 199 143 l 1
 122 143 l 1
 102 0 l 1
 48 0 l 1
 68 143 l 1
 3 143 l 1
 3 193 l 1
 76 193 l 1
 88 285 l 1
 23 285 l 1
 23 335 l 1
 95 335 l 1
 115 478 l 1
 168 478 l 1
 148 335 l 1
 225 335 l 1
 246 478 l 1
 298 478 l 1
 279 335 l 1
 339 335 l 1
 338 285 l 1
 272 285 l 1
 259 193 l 1
 319 193 l 1
218 285 m 1
 141 285 l 1
 129 193 l 1
 206 193 l 1
 218 285 l 1
EndSplineSet
Back
146.973 195.801 m 1
 214.844 195.801 l 1
 225.098 266.113 l 1
 158.203 266.113 l 1
 146.973 195.801 l 1
350.098 266.113 m 1
 283.203 266.113 l 1
 270.996 195.801 l 1
 333.984 195.801 l 1
 333.984 142.09 l 1
 263.184 142.09 l 1
 244.141 0 l 1
 187.012 0 l 1
 206.055 142.09 l 1
 139.16 142.09 l 1
 118.164 0 l 1
 62.0117 0 l 1
 81.0547 142.09 l 1
 14.1602 142.09 l 1
 14.1602 195.801 l 1
 90.8203 195.801 l 1
 101.074 266.113 l 1
 32.2266 266.113 l 1
 32.2266 319.824 l 1
 109.863 319.824 l 1
 129.883 452.148 l 1
 185.059 452.148 l 1
 166.016 319.824 l 1
 232.91 319.824 l 1
 251.953 452.148 l 1
 308.105 452.148 l 1
 289.062 319.824 l 1
 350.098 319.824 l 1
 350.098 266.113 l 1
EndSplineSet
EndChar
StartChar: dollar
Encoding: 36 36 5
Width: 341
Flags: W
VStem: 20 65<339 378> 146 38<-68 0 20 171 310 438 459 512> 247 75<96 136>
Fore
184 171 m 1
 184 20 l 1
 202 24 247 32 247 96 c 0
 247 135 223 148 184 171 c 1
292 328 m 1
 278 328 l 1
 270 355 249 427 184 438 c 1
 184 291 l 1
 257 253 322 219 322 136 c 0
 322 36 253 12 184 0 c 1
 184 -68 l 1
 146 -68 l 1
 146 0 l 1
 100 2 81 10 31 29 c 1
 31 136 l 1
 46 135 l 1
 70 47 108 27 145 20 c 1
 145 192 l 1
 97 216 20 256 20 339 c 0
 20 419 89 456 146 459 c 1
 146 512 l 1
 184 512 l 1
 184 460 l 1
 249 451 273 436 292 425 c 1
 292 328 l 1
145 310 m 1
 145 440 l 1
 117 434 85 420 85 378 c 0
 85 329 138 313 145 310 c 1
EndSplineSet
Back
145.02 303.223 m 1
 145.02 429.199 l 1
 112.305 420.898 96.1914 400.879 96.1914 369.141 c 0
 96.1914 361.816 97.168 354.492 100.098 347.168 c 0
 102.539 339.844 106.445 334.473 110.84 331.055 c 2
 145.02 303.223 l 1
243.164 110.84 m 0
 243.164 130.371 236.816 147.461 224.121 162.109 c 0
 220.703 164.551 216.309 167.969 210.449 172.363 c 0
 204.59 176.758 196.777 182.617 187.012 189.941 c 1
 187.012 39.0625 l 1
 224.121 47.8516 243.164 71.7773 243.164 110.84 c 0
312.988 126.953 m 0
 312.988 57.6172 270.996 16.1133 187.012 1.95312 c 1
 187.012 -57.1289 l 1
 145.996 -57.1289 l 1
 145.996 0 l 1
 104.004 1.95312 63.4766 15.1367 23.9258 39.0625 c 1
 23.9258 141.113 l 1
 50.7812 141.113 l 1
 64.9414 75.6836 96.6797 41.0156 145.996 37.1094 c 1
 145.996 212.891 l 1
 128.906 224.121 113.281 234.375 100.586 243.652 c 0
 87.4023 252.441 76.6602 261.23 67.8711 269.043 c 0
 41.9922 294.922 28.8086 324.219 28.8086 355.957 c 0
 28.8086 390.625 42.4805 418.457 68.8477 438.965 c 0
 80.5664 447.754 92.2852 454.102 104.492 458.984 c 0
 116.699 463.867 130.859 466.797 145.996 467.773 c 1
 145.996 511.23 l 1
 187.012 511.23 l 1
 187.012 465.82 l 1
 232.91 458.008 l 2
 243.652 456.055 255.371 451.172 267.578 443.359 c 0
 279.785 436.035 288.086 428.711 291.992 421.875 c 1
 291.992 338.867 l 1
 265.137 338.867 l 1
 254.883 392.09 229.004 422.852 187.012 430.176 c 1
 187.012 278.809 l 1
 242.188 244.141 l 1
 277.832 214.844 l 1
 301.27 190.918 312.988 161.621 312.988 126.953 c 0
EndSplineSet
EndChar
StartChar: percent
Encoding: 37 37 6
Width: 682
Flags: W
HStem: -10 32<455 481> -5 21G<191 228> 201 31<171 197> 219 35<516 539> 399 26<340 358> 431 32<233 253> 452 20G<471 497>
VStem: 85 78<268 290> 365 80<63 81> 576 23<165 183>
DStem: 427 415 497 472 191 -5 228 -5
Fore
445 63 m 0
 445 49 445 22 481 22 c 0
 529 22 576 117 576 168 c 0
 576 180 574 219 539 219 c 0
 486 219 445 89 445 63 c 0
365 81 m 0
 365 175 449 254 516 254 c 0
 576 254 599 218 599 171 c 0
 599 113 555 -10 455 -10 c 0
 399 -10 365 33 365 81 c 0
497 472 m 1
 228 -5 l 1
 191 -5 l 1
 427 415 l 1
 425 417 l 1
 405 407 371 399 348 399 c 0
 337 399 330 401 318 403 c 1
 323 330 276 201 171 201 c 0
 126 201 85 236 85 290 c 0
 85 409 188 463 233 463 c 0
 265 463 277 454 290 445 c 0
 303 436 318 425 356 425 c 0
 414 425 455 457 459 462 c 0
 462 467 466 472 471 472 c 2
 497 472 l 1
163 268 m 0
 163 246 175 232 197 232 c 0
 251 232 295 337 295 388 c 0
 295 408 284 415 275 419 c 0
 266 422 259 431 253 431 c 0
 213 431 163 309 163 268 c 0
EndSplineSet
Back
217.773 381.836 m 0
 217.773 386.23 216.309 394.043 212.891 405.762 c 1
 207.52 408.203 202.637 410.156 197.266 412.598 c 0
 192.383 415.039 187.5 417.48 182.129 420.898 c 2
 172.852 425.781 l 1
 153.809 423.828 134.766 404.785 116.211 368.164 c 0
 97.168 330.566 87.8906 300.293 87.8906 276.855 c 0
 87.8906 249.023 98.6328 234.863 120.117 234.863 c 0
 146.484 234.863 169.922 252.441 189.941 288.086 c 0
 208.496 321.289 217.773 352.539 217.773 381.836 c 0
478.027 180.176 m 0
 478.027 193.359 474.609 204.59 468.262 213.867 c 0
 462.402 223.145 453.125 228.027 440.918 228.027 c 0
 417.48 228.027 395.508 207.52 374.023 166.016 c 0
 356.445 129.883 348.145 101.562 348.145 80.0781 c 0
 348.145 51.7578 359.375 38.0859 381.836 38.0859 c 0
 406.738 38.0859 429.199 55.1758 450.195 89.8438 c 0
 459.961 105.469 467.285 120.117 471.68 134.766 c 0
 476.074 149.902 478.027 164.551 478.027 180.176 c 0
515.137 185.059 m 0
 515.137 142.09 502.441 102.539 477.051 64.9414 c 0
 449.707 21.4844 414.551 0 371.094 0 c 0
 340.332 0 317.383 9.27734 301.27 27.832 c 0
 285.645 46.875 277.832 70.8008 277.832 101.074 c 0
 277.832 139.648 293.457 177.246 325.195 213.867 c 0
 356.934 250 392.578 268.066 432.129 268.066 c 0
 487.305 268.066 515.137 240.234 515.137 185.059 c 0
428.223 473.145 m 1
 159.18 -6.83594 l 1
 105.957 -6.83594 l 1
 334.961 400.879 l 1
 316.895 395.508 299.805 393.066 284.18 393.066 c 0
 277.832 393.066 272.461 393.066 267.09 393.066 c 0
 261.719 393.066 256.348 393.555 250.977 395.02 c 1
 253.906 379.883 l 1
 253.906 364.746 252.441 349.609 249.023 334.473 c 0
 245.605 319.336 240.234 304.199 232.91 289.062 c 0
 229.492 281.738 223.633 271.973 214.844 259.766 c 0
 185.547 216.797 149.414 194.824 105.957 194.824 c 0
 78.125 194.824 56.1523 204.59 41.0156 224.121 c 0
 25.8789 243.164 18.0664 267.09 18.0664 294.922 c 0
 18.0664 334.961 33.2031 373.535 63.9648 410.156 c 0
 94.2383 445.801 129.883 463.867 171.875 463.867 c 0
 188.477 463.867 207.031 457.52 227.051 443.848 c 1
 250.488 433.105 268.555 428.223 280.762 428.223 c 0
 314.941 428.223 348.145 442.871 380.859 473.145 c 1
 428.223 473.145 l 1
EndSplineSet
EndChar
StartChar: ampersand
Encoding: 38 38 7
Width: 568
Flags: W
HStem: -30 20G<140 207.5> -11 69<428 485> 270 16<394 402.75 524.667 535> 449 23<255 273>
VStem: 42 95<111 178> 141 80<363 409> 319 69<365 389>
Fore
394 286 m 1
 535 286 l 1
 535 270 l 1
 504 267 496 261 485 242 c 0
 447 182 447 182 403 120 c 1
 432 83 453 58 485 58 c 0
 502 58 516 69 524 84 c 1
 537 76 l 1
 537 75 509 29 507 27 c 0
 479 -6 440 -11 428 -11 c 0
 378 -11 350 20 324 49 c 1
 298 29 242 -10 173 -10 c 0
 107 -10 42 29 42 111 c 0
 42 200 131 243 176 265 c 1
 152 305 141 332 141 363 c 0
 141 445 212 472 273 472 c 0
 359 472 388 426 388 389 c 0
 388 333 328 304 284 289 c 1
 387 143 l 1
 409 169 439 206 439 239 c 0
 439 264 429 266 394 270 c 1
 394 286 l 1
137 178 m 0
 137 131 183 42 247 42 c 0
 268 42 290 55 309 68 c 1
 283 102 248 154 221 195 c 2
 188 244 l 1
 152 224 137 208 137 178 c 0
221 409 m 0
 221 374 255 328 271 309 c 1
 290 315 319 326 319 365 c 0
 319 399 296 449 257 449 c 0
 240 449 221 442 221 409 c 0
EndSplineSet
Back
277.832 376.953 m 0
 277.832 390.137 273.926 401.367 266.602 410.645 c 0
 258.789 419.434 248.535 423.828 235.84 423.828 c 0
 208.496 423.828 194.824 407.715 194.824 375 c 0
 194.824 350.098 201.66 323.73 214.844 294.922 c 1
 256.836 318.359 277.832 345.703 277.832 376.953 c 0
172.852 41.9922 m 0
 194.824 41.9922 221.191 54.1992 251.953 78.125 c 1
 237.793 95.2148 223.633 116.211 208.496 140.137 c 0
 193.359 164.062 177.734 190.918 161.133 221.191 c 1
 123.047 188.965 l 1
 113.77 179.199 106.934 168.457 103.516 158.203 c 0
 99.6094 147.461 98.1445 137.207 98.1445 126.953 c 0
 98.1445 116.211 99.6094 105.957 103.516 95.7031 c 0
 106.934 84.9609 112.305 76.1719 119.141 67.8711 c 0
 125.488 60.0586 133.789 53.7109 143.066 48.8281 c 0
 152.344 44.4336 162.109 41.9922 172.852 41.9922 c 0
502.93 77.1484 m 1
 498.535 61.0352 491.211 47.3633 481.934 36.1328 c 1
 454.59 7.32422 424.805 -6.83594 392.09 -6.83594 c 0
 357.422 -6.83594 319.824 11.2305 279.785 46.875 c 1
 241.211 18.0664 l 2
 234.863 14.1602 228.027 10.2539 219.727 6.83594 c 0
 210.938 3.90625 202.148 0.976562 192.383 -0.976562 c 0
 182.617 -2.92969 173.34 -4.39453 163.574 -5.37109 c 0
 153.809 -6.34766 144.531 -6.83594 136.23 -6.83594 c 0
 99.1211 -6.83594 70.3125 1.95312 49.3164 20.5078 c 0
 28.3203 39.0625 18.0664 66.4062 18.0664 103.027 c 0
 18.0664 158.203 53.7109 207.031 125 249.023 c 2
 144.043 259.766 l 1
 134.766 287.109 128.906 307.129 126.465 318.848 c 0
 124.023 331.055 123.047 340.82 123.047 348.145 c 0
 123.047 363.281 125.977 377.93 131.348 391.602 c 0
 137.207 405.273 145.02 416.992 154.297 427.734 c 0
 164.062 437.988 175.781 445.801 188.965 452.148 c 0
 202.148 458.008 216.797 460.938 232.91 460.938 c 0
 260.254 460.938 283.691 453.613 303.223 438.477 c 0
 322.266 423.34 332.031 401.855 332.031 374.023 c 0
 332.031 343.262 319.336 316.895 293.945 293.945 c 0
 289.551 289.551 281.738 284.18 271.484 277.832 c 0
 261.23 271.973 248.535 265.137 232.91 256.836 c 1
 243.652 235.84 255.371 215.332 268.066 196.289 c 0
 280.762 177.734 293.945 159.18 308.105 142.09 c 1
 340.82 185.547 356.934 219.727 356.934 245.117 c 0
 356.934 258.789 342.773 266.113 314.941 266.113 c 1
 314.941 297.852 l 1
 477.051 297.852 l 1
 477.051 267.09 l 1
 456.543 263.672 443.359 260.742 437.988 257.812 c 0
 434.57 256.836 430.664 253.906 426.27 249.512 c 0
 422.363 245.117 417.48 238.77 413.086 230.957 c 2
 396.973 202.148 l 2
 387.207 184.57 376.953 167.969 366.699 151.855 c 0
 355.957 136.23 345.215 120.605 333.984 105.957 c 1
 340.82 96.6797 348.633 88.3789 358.398 80.5664 c 0
 368.164 72.7539 379.883 66.4062 393.066 61.0352 c 0
 399.902 57.6172 408.203 56.1523 418.945 56.1523 c 0
 432.129 56.1523 442.871 58.1055 450.195 62.9883 c 0
 454.102 64.4531 458.008 67.8711 462.402 73.2422 c 0
 466.797 78.125 472.656 85.4492 479.98 94.2383 c 1
 502.93 77.1484 l 1
EndSplineSet
EndChar
StartChar: quotesingle
Encoding: 39 39 8
Width: 189
Flags: W
HStem: 472 21G<81.5 108.5>
Fore
109 276 m 1
 81 276 l 1
 70 325 51 407 51 423 c 0
 52 452 68 472 95 472 c 0
 122 472 139 452 139 423 c 0
 139 407 121 325 109 276 c 1
EndSplineSet
Back
80.0781 438.965 m 0
 76.1719 440.918 70.3125 441.895 62.9883 441.895 c 0
 51.7578 441.895 41.9922 437.988 33.6914 430.176 c 0
 25.3906 421.875 20.9961 412.109 20.9961 399.902 c 0
 20.9961 388.672 25.3906 379.395 33.6914 371.582 c 0
 41.9922 363.77 51.7578 359.863 62.9883 359.863 c 0
 66.4062 359.863 69.3359 360.352 71.2891 360.352 c 0
 73.7305 360.84 76.1719 361.328 79.1016 361.816 c 1
 79.1016 356.934 l 2
 79.1016 347.168 75.6836 337.402 68.3594 328.125 c 0
 61.5234 318.848 53.7109 311.035 44.9219 305.176 c 0
 41.0156 301.758 37.5977 299.316 35.6445 298.34 c 0
 33.2031 297.363 32.2266 296.875 32.2266 296.875 c 1
 41.0156 271.973 l 1
 41.0156 271.973 44.9219 273.926 53.2227 277.832 c 0
 61.0352 282.227 69.8242 288.086 79.5898 296.387 c 0
 89.3555 304.688 98.1445 315.43 105.957 328.125 c 0
 113.77 340.82 118.164 355.957 118.164 374.023 c 0
 118.164 390.625 114.258 404.297 106.445 415.527 c 0
 98.6328 426.27 89.8438 434.57 80.0781 438.965 c 0
EndSplineSet
EndChar
StartChar: parenleft
Encoding: 40 40 9
Width: 227
Flags: W
Fore
209 474 m 1
 209 455 l 1
 152 417 109 387 109 179 c 0
 109 -7 143 -55 209 -96 c 1
 209 -115 l 1
 51 -29 31 117 31 173 c 0
 31 372 171 457 209 474 c 1
EndSplineSet
Back
174.805 -121.094 m 1
 120.117 -86.4258 79.1016 -42.4805 51.2695 9.76562 c 0
 23.9258 62.5 9.76562 121.094 9.76562 186.035 c 0
 9.76562 309.57 65.4297 407.227 176.758 479.98 c 1
 190.918 455.078 l 1
 157.227 426.27 132.324 398.438 117.188 371.094 c 0
 110.84 360.352 105.469 347.656 101.074 332.52 c 0
 96.1914 317.383 92.7734 301.758 89.8438 285.156 c 0
 87.4023 268.555 85.4492 251.465 83.9844 233.887 c 0
 82.5195 216.797 82.0312 200.195 82.0312 185.059 c 0
 82.0312 145.02 83.0078 115.723 84.9609 96.6797 c 0
 86.9141 77.6367 90.332 62.0117 95.2148 49.8047 c 0
 106.445 17.0898 119.141 -11.2305 133.301 -35.1562 c 0
 147.949 -59.082 167.48 -79.5898 192.871 -97.168 c 1
 174.805 -121.094 l 1
EndSplineSet
EndChar
StartChar: parenright
Encoding: 41 41 10
Width: 227
Flags: W
Fore
18 -115 m 1
 18 -96 l 1
 75 -58 119 -28 119 180 c 0
 119 366 85 414 18 455 c 1
 18 474 l 1
 177 389 196 242 196 186 c 0
 196 -13 56 -98 18 -115 c 1
EndSplineSet
Back
34.1797 -122.07 m 1
 88.8672 -87.4023 129.883 -43.457 157.715 8.78906 c 0
 185.059 61.5234 199.219 120.117 199.219 185.059 c 0
 199.219 308.105 143.555 406.25 32.2266 479.004 c 1
 18.0664 454.102 l 1
 51.7578 425.293 76.6602 397.461 91.7969 370.117 c 0
 98.1445 359.375 103.516 346.68 107.91 331.543 c 0
 112.793 316.406 116.211 300.781 119.141 284.18 c 0
 121.582 267.09 123.535 250.488 125 232.91 c 0
 126.465 215.82 126.953 199.219 126.953 184.082 c 0
 126.953 144.043 125.977 114.258 124.023 95.7031 c 0
 122.07 76.6602 118.652 61.0352 113.77 48.8281 c 0
 102.539 16.1133 89.8438 -12.207 75.6836 -36.1328 c 0
 61.0352 -60.0586 41.5039 -80.5664 16.1133 -98.1445 c 1
 34.1797 -122.07 l 1
EndSplineSet
EndChar
StartChar: asterisk
Encoding: 42 42 11
Width: 341
Flags: W
HStem: 472 21G<161.5 185.5>
VStem: 139 67<205 214 435 440> 166 39<339 439>
Fore
190 325 m 1
 190 320 l 1
 245 289 305 318 305 266 c 0
 305 248 290 234 272 234 c 0
 264 234 248 236 234 256 c 0
 207 296 206 298 182 310 c 1
 177 307 l 1
 182 243 206 237 206 210 c 0
 206 192 194 174 171 174 c 0
 147 174 139 197 139 212 c 0
 139 249 165 242 165 307 c 1
 160 310 l 1
 102 272 111 231 71 231 c 0
 59 231 39 242 39 264 c 0
 39 272 39 290 66 300 c 0
 95 311 115 292 154 322 c 1
 154 327 l 1
 91 359 38 328 38 381 c 0
 38 406 59 414 68 414 c 0
 120 414 102 364 161 337 c 1
 166 339 l 1
 167 398 137 401 137 438 c 0
 137 457 152 472 171 472 c 0
 200 472 205 445 205 435 c 0
 205 400 175 398 179 339 c 1
 184 337 l 1
 241 378 233 416 270 416 c 0
 294 416 305 393 305 381 c 0
 305 375 299 354 277 347 c 0
 251 337 231 354 190 325 c 1
EndSplineSet
Back
258.789 291.016 m 0
 253.906 294.434 247.559 296.875 240.723 298.828 c 0
 233.398 300.781 226.074 303.223 218.262 305.176 c 0
 210.938 307.129 203.613 309.082 196.289 311.523 c 0
 189.453 313.965 183.594 316.406 179.199 318.848 c 1
 183.594 321.777 189.453 323.73 196.289 325.684 c 0
 203.613 327.148 210.938 329.102 218.262 331.055 c 0
 226.074 333.008 233.398 334.961 240.723 337.402 c 0
 247.559 339.844 253.906 342.285 258.789 345.215 c 0
 278.32 356.445 283.203 371.094 272.949 390.137 c 0
 261.719 408.691 246.094 412.109 227.051 399.902 c 0
 221.68 397.461 216.309 393.555 210.938 388.672 c 0
 194.824 372.559 l 0
 189.453 366.699 184.57 361.328 179.199 356.445 c 0
 173.828 351.562 168.457 347.656 164.062 345.215 c 1
 164.062 356.445 166.504 369.629 171.875 385.742 c 0
 177.246 401.367 180.176 415.039 180.176 426.758 c 0
 180.176 438.477 177.734 446.777 172.852 453.125 c 0
 168.457 458.984 160.156 461.914 147.949 461.914 c 0
 126.465 461.914 116.211 450.195 116.211 426.758 c 0
 116.211 415.039 118.652 401.367 124.023 385.742 c 0
 129.395 369.629 132.324 356.445 132.812 345.215 c 1
 128.418 347.656 123.535 351.562 118.164 356.445 c 0
 112.793 361.328 107.422 366.699 102.051 372.559 c 0
 85.9375 388.672 l 0
 80.5664 393.555 75.1953 397.461 69.8242 399.902 c 0
 49.8047 412.109 34.1797 408.691 22.9492 390.137 c 0
 12.207 371.094 17.0898 356.445 38.0859 345.215 c 0
 43.457 342.285 49.8047 339.844 57.1289 337.402 c 0
 64.4531 334.961 71.7773 333.008 79.1016 331.055 c 0
 86.4258 329.102 93.2617 327.148 100.586 325.684 c 0
 107.422 323.73 113.281 321.777 118.164 318.848 c 1
 113.281 316.406 107.422 313.965 100.586 311.523 c 0
 93.2617 309.082 86.4258 307.129 79.1016 305.176 c 0
 71.7773 303.223 64.4531 300.781 57.1289 298.828 c 0
 49.8047 296.875 43.457 294.434 38.0859 291.016 c 0
 17.0898 279.785 12.207 264.648 22.9492 246.094 c 0
 34.1797 227.539 49.8047 224.121 69.8242 235.84 c 0
 75.1953 239.258 80.5664 243.652 85.9375 248.535 c 0
 91.3086 253.418 96.6797 258.789 102.051 264.16 c 0
 107.422 269.531 112.793 274.414 118.164 279.297 c 0
 123.535 284.668 128.418 288.574 132.812 291.016 c 1
 132.324 280.273 129.395 267.09 124.023 250.977 c 0
 118.652 234.863 116.211 221.191 116.211 209.961 c 0
 116.211 186.035 126.465 173.828 147.949 173.828 c 0
 160.156 173.828 168.457 176.758 172.852 183.105 c 0
 177.734 188.965 180.176 198.242 180.176 209.961 c 0
 180.176 215.82 179.199 222.656 177.734 229.492 c 0
 175.781 236.328 173.828 243.652 171.875 250.977 c 0
 169.922 258.301 167.969 265.625 166.504 272.461 c 0
 165.039 279.297 164.062 285.645 164.062 291.016 c 1
 168.457 288.574 173.34 284.668 178.711 279.297 c 0
 183.594 274.414 188.965 269.043 194.336 263.672 c 0
 200.195 257.812 205.566 252.441 210.938 247.559 c 0
 216.309 242.676 221.68 238.77 227.051 235.84 c 0
 246.094 224.121 261.719 227.539 272.949 246.094 c 0
 283.203 264.648 278.32 279.785 258.789 291.016 c 0
EndSplineSet
EndChar
StartChar: plus
Encoding: 43 43 12
Width: 389
Flags: W
HStem: 0 21G<165 225> 143 60<23 165 225 367>
VStem: 165 60<0 143 203 345>
Fore
165 203 m 1
 165 345 l 1
 225 345 l 1
 225 203 l 1
 367 203 l 1
 367 143 l 1
 225 143 l 1
 225 0 l 1
 165 0 l 1
 165 143 l 1
 23 143 l 1
 23 203 l 1
 165 203 l 1
EndSplineSet
Back
370.117 151.855 m 1
 220.215 151.855 l 1
 220.215 0 l 1
 167.969 0 l 1
 167.969 151.855 l 1
 17.0898 151.855 l 1
 17.0898 203.125 l 1
 167.969 203.125 l 1
 167.969 354.004 l 1
 220.215 354.004 l 1
 220.215 203.125 l 1
 370.117 203.125 l 1
 370.117 151.855 l 1
EndSplineSet
EndChar
StartChar: comma
Encoding: 44 44 13
Width: 170
Flags: W
HStem: -4 21G<67.5 81> -3 21G<90.5 96.5>
Fore
39 -123 m 1
 31 -108 l 1
 51 -95 106 -56 106 -18 c 0
 106 -10 101 -3 92 -3 c 0
 89 -3 85 -4 77 -4 c 0
 58 -4 27 7 27 50 c 0
 27 85 51 106 83 106 c 0
 132 106 152 64 152 28 c 0
 152 -58 75 -102 39 -123 c 1
EndSplineSet
Back
80.0781 77.1484 m 0
 76.1719 79.1016 70.3125 80.0781 62.9883 80.0781 c 0
 51.7578 80.0781 41.9922 76.1719 33.6914 67.8711 c 0
 25.3906 60.0586 20.9961 49.8047 20.9961 38.0859 c 0
 20.9961 26.8555 25.3906 17.0898 33.6914 9.27734 c 0
 41.9922 1.95312 51.7578 -1.95312 62.9883 -1.95312 c 0
 66.4062 -1.95312 69.3359 -1.95312 71.2891 -1.46484 c 0
 73.7305 -0.976562 76.1719 -0.488281 79.1016 0 c 1
 79.1016 -4.88281 l 2
 79.1016 -15.1367 75.6836 -24.9023 68.3594 -34.1797 c 0
 61.5234 -43.457 53.7109 -50.7812 44.9219 -57.1289 c 0
 41.0156 -60.5469 37.5977 -62.5 35.6445 -63.4766 c 0
 33.2031 -64.4531 32.2266 -64.9414 32.2266 -64.9414 c 1
 41.0156 -89.8438 l 1
 41.0156 -89.8438 44.9219 -87.8906 53.2227 -83.9844 c 0
 61.0352 -80.0781 69.8242 -73.7305 79.5898 -65.4297 c 0
 89.3555 -57.1289 98.1445 -46.875 105.957 -34.1797 c 0
 113.77 -21.4844 118.164 -5.85938 118.164 12.207 c 0
 118.164 28.8086 114.258 42.4805 106.445 53.7109 c 0
 98.6328 64.4531 89.8438 72.2656 80.0781 77.1484 c 0
EndSplineSet
EndChar
StartChar: hyphen
Encoding: 45 45 14
Width: 227
Flags: W
HStem: 117 79<30 196>
Fore
196 196 m 1
 196 117 l 1
 30 117 l 1
 30 196 l 1
 196 196 l 1
EndSplineSet
Back
247.07 83.0078 m 1
 29.7852 83.0078 l 1
 29.7852 116.211 l 1
 247.07 116.211 l 1
 247.07 83.0078 l 1
EndSplineSet
EndChar
StartChar: period
Encoding: 46 46 15
Width: 170
Flags: W
HStem: -29 20G<69 101>
Fore
28 48 m 0
 28 79 53 107 85 107 c 0
 117 107 143 80 143 48 c 0
 143 16 117 -9 85 -9 c 0
 53 -9 28 16 28 48 c 0
EndSplineSet
Back
99.1211 32.2266 m 0
 99.1211 21.4844 94.7266 12.6953 86.4258 5.37109 c 0
 78.125 -1.46484 68.8477 -4.88281 59.082 -4.88281 c 0
 48.8281 -4.88281 40.0391 -1.46484 32.7148 5.37109 c 0
 24.9023 12.6953 20.9961 21.4844 20.9961 32.2266 c 0
 20.9961 42.4805 24.9023 51.7578 32.2266 59.5703 c 0
 39.5508 67.3828 48.3398 70.8008 59.082 70.8008 c 0
 68.8477 70.8008 78.125 66.8945 86.4258 59.082 c 0
 94.7266 50.7812 99.1211 41.9922 99.1211 32.2266 c 0
EndSplineSet
EndChar
StartChar: slash
Encoding: 47 47 16
Width: 223
Flags: W
HStem: 452 20G<179 240>
DStem: 179 472 240 472 -21 -130 40 -130
Fore
240 472 m 1
 40 -130 l 1
 -21 -130 l 1
 179 472 l 1
 240 472 l 1
EndSplineSet
Back
242.188 477.051 m 1
 55.1758 -117.188 l 1
 2.92969 -117.188 l 1
 188.965 477.051 l 1
 242.188 477.051 l 1
EndSplineSet
EndChar
StartChar: zero
Encoding: 48 48 17
Width: 341
Flags: W
HStem: -9 19<171 177> 451 19<168 177>
VStem: 16 108<198 308> 217 108<152 248>
Fore
217 152 m 2
 217 308 l 2
 217 411 203 451 170 451 c 0
 124 451 124 365 124 308 c 2
 124 152 l 2
 124 54 136 10 171 10 c 0
 197 10 204 35 208 48 c 0
 211 63 217 107 217 152 c 2
16 227 m 0
 16 399 102 470 171 470 c 0
 243 470 325 391 325 227 c 0
 325 104 266 -9 171 -9 c 0
 83 -9 16 89 16 227 c 0
EndSplineSet
Back
250 226.074 m 0
 250 360.84 225.098 428.223 175.781 428.223 c 0
 126.465 428.223 102.051 360.84 102.051 226.074 c 0
 102.051 91.7969 126.465 24.9023 175.781 24.9023 c 0
 225.098 24.9023 250 91.7969 250 226.074 c 0
330.078 226.074 m 0
 330.078 167.48 320.312 118.164 300.781 79.1016 c 0
 274.414 20.9961 232.91 -7.8125 175.781 -7.8125 c 0
 147.461 -7.8125 123.047 -0.488281 103.516 14.1602 c 0
 83.9844 28.8086 67.8711 47.3633 56.1523 70.3125 c 0
 43.9453 93.2617 35.1562 118.652 29.7852 145.996 c 0
 24.9023 173.34 21.9727 200.195 21.9727 226.074 c 0
 21.9727 251.465 24.9023 277.832 29.7852 305.664 c 0
 35.1562 333.008 43.9453 358.398 56.6406 381.348 c 0
 68.8477 404.297 84.9609 423.34 104.492 438.477 c 0
 124.023 453.613 147.949 460.938 175.781 460.938 c 0
 231.934 460.938 273.438 431.641 300.781 373.047 c 0
 320.312 332.52 330.078 283.203 330.078 226.074 c 0
EndSplineSet
EndChar
StartChar: one
Encoding: 49 49 18
Width: 341
Flags: W
HStem: 0 16<46 70.0582 302 302> 450 20G<216 228>
VStem: 127 101<63 353>
Fore
302 16 m 1
 302 0 l 1
 46 0 l 1
 46 16 l 1
 125 16 127 42 127 85 c 2
 127 348 l 2
 127 365 127 395 100 395 c 0
 91 395 68 386 44 378 c 1
 44 395 l 1
 216 470 l 1
 228 470 l 1
 228 81 l 2
 228 35 234 16 302 16 c 1
EndSplineSet
Back
207.031 0 m 1
 19.043 0 l 1
 19.043 26.8555 l 1
 40.5273 26.8555 55.1758 29.7852 63.9648 35.1562 c 0
 72.7539 40.5273 77.1484 51.7578 77.1484 68.8477 c 2
 77.1484 367.188 l 2
 77.1484 381.836 73.2422 389.16 64.9414 389.16 c 0
 62.9883 389.16 45.8984 382.812 14.1602 371.094 c 1
 14.1602 396.973 l 1
 131.836 461.914 l 1
 148.926 458.984 l 1
 148.926 58.1055 l 2
 148.926 42.4805 152.832 33.2031 160.156 29.7852 c 2
 159.18 30.7617 l 2
 166.992 28.3203 183.105 26.8555 207.031 26.8555 c 1
 207.031 0 l 1
EndSplineSet
EndChar
StartChar: two
Encoding: 50 50 19
Width: 341
Flags: W
HStem: 0 91<109 296> 392 78<124 171>
VStem: 205 93<305 342>
Fore
326 144 m 1
 296 0 l 1
 12 0 l 1
 12 16 l 1
 122 134 205 224 205 305 c 0
 205 324 194 392 124 392 c 0
 108 392 66 388 40 330 c 1
 21 330 l 1
 35 369 75 470 171 470 c 0
 214 470 298 446 298 342 c 0
 298 322 298 270 220 196 c 2
 109 91 l 1
 212 91 l 2
 285 91 291 98 310 144 c 1
 326 144 l 1
EndSplineSet
Back
327.148 104.004 m 1
 287.109 0 l 1
 21.9727 0 l 1
 21.9727 19.043 l 1
 139.16 146.973 l 2
 192.871 206.543 220.215 260.742 220.215 310.059 c 0
 220.215 337.891 212.891 359.375 198.73 374.023 c 0
 184.082 388.672 163.574 395.996 136.23 395.996 c 0
 114.746 395.996 97.168 387.207 83.0078 370.117 c 0
 72.2656 357.422 61.5234 336.426 50.7812 307.129 c 1
 21.9727 314.941 l 1
 29.2969 359.863 44.9219 395.02 68.8477 421.387 c 0
 92.7734 447.754 125.977 460.938 167.969 460.938 c 0
 186.035 460.938 202.637 458.008 217.285 451.66 c 0
 232.422 445.312 245.605 436.523 256.836 424.805 c 0
 268.555 413.574 277.344 400.391 283.691 384.277 c 0
 290.039 368.652 292.969 352.051 292.969 333.984 c 0
 292.969 284.668 264.648 229.492 208.008 167.969 c 2
 113.77 65.918 l 1
 247.07 65.918 l 2
 259.766 65.918 270.02 68.8477 277.832 75.1953 c 0
 279.785 77.1484 283.203 81.0547 287.109 86.9141 c 0
 291.016 92.7734 295.898 101.562 301.758 112.793 c 1
 327.148 104.004 l 1
EndSplineSet
EndChar
StartChar: three
Encoding: 51 51 20
Width: 341
Flags: W
HStem: -10 35<114 173> 414 56<121 178>
VStem: 193 100<344 378> 242 78<106 169>
Fore
40 357 m 1
 25 365 l 1
 45 408 98 470 178 470 c 0
 244 470 293 441 293 378 c 0
 293 325 266 308 236 290 c 1
 290 270 320 221 320 169 c 0
 320 74 237 -10 114 -10 c 0
 59 -10 11 10 11 53 c 0
 11 76 31 91 53 91 c 0
 111 91 131 25 173 25 c 0
 206 25 242 44 242 106 c 0
 242 197 156 225 104 243 c 1
 104 255 l 1
 137 265 193 282 193 344 c 0
 193 384 171 414 121 414 c 0
 74 414 50 373 40 357 c 1
EndSplineSet
Back
289.062 149.902 m 0
 289.062 100.098 269.531 60.0586 230.957 29.7852 c 0
 214.355 16.6016 195.312 6.83594 173.34 0.976562 c 0
 151.855 -4.88281 128.418 -7.8125 103.027 -7.8125 c 0
 86.9141 -7.8125 72.7539 -5.85938 60.0586 -0.976562 c 0
 52.7344 1.46484 44.9219 5.85938 36.6211 12.207 c 0
 28.3203 18.0664 23.9258 26.3672 23.9258 37.1094 c 0
 23.9258 48.3398 27.3438 56.1523 34.668 61.0352 c 0
 41.5039 65.4297 48.8281 67.8711 57.1289 67.8711 c 0
 61.5234 67.8711 67.8711 66.8945 76.1719 63.9648 c 0
 83.9844 61.5234 93.2617 56.1523 104.004 48.8281 c 0
 113.77 42.4805 123.047 37.5977 130.371 35.1562 c 0
 138.184 32.2266 144.043 30.7617 147.949 30.7617 c 0
 171.875 30.7617 190.43 40.5273 204.102 60.0586 c 0
 217.285 78.6133 224.121 100.098 224.121 124.023 c 0
 224.121 138.672 221.68 150.879 216.797 160.156 c 0
 207.52 178.223 193.359 191.895 174.316 202.148 c 0
 155.273 211.914 128.906 216.797 94.2383 216.797 c 1
 90.8203 241.211 l 1
 162.109 263.672 198.242 298.34 198.242 345.215 c 0
 198.242 362.793 192.383 377.441 181.152 388.184 c 0
 169.434 398.438 155.273 403.809 138.184 403.809 c 0
 104.004 403.809 74.2188 380.371 48.8281 333.008 c 1
 21.9727 340.82 l 1
 45.8984 420.898 91.7969 460.938 159.18 460.938 c 0
 189.453 460.938 215.332 452.637 235.84 436.523 c 0
 256.836 420.41 267.09 396.484 267.09 365.234 c 0
 267.09 331.055 249.512 300.781 214.844 273.926 c 1
 223.633 269.531 230.957 264.648 237.305 259.766 c 0
 243.652 255.371 249.512 250.488 254.883 246.094 c 0
 267.578 234.863 276.367 220.215 281.738 202.637 c 0
 286.621 185.059 289.062 167.48 289.062 149.902 c 0
EndSplineSet
EndChar
StartChar: four
Encoding: 52 52 21
Width: 341
Flags: W
HStem: 0 174<41 281> 98 76<41 182 281 324> 450 20G<227 281>
VStem: 182 99<0 98 174 470>
Fore
281 174 m 1
 324 174 l 1
 324 98 l 1
 281 98 l 1
 281 0 l 1
 182 0 l 1
 182 98 l 1
 13 98 l 1
 13 175 l 1
 74 272 164 388 227 470 c 1
 281 470 l 1
 281 174 l 1
184 174 m 1
 184 375 l 1
 182 375 l 1
 41 174 l 1
 184 174 l 1
EndSplineSet
Back
180.176 166.016 m 1
 180.176 346.191 l 1
 56.1523 166.016 l 1
 180.176 166.016 l 1
311.035 107.91 m 1
 249.023 107.91 l 1
 249.023 0 l 1
 181.152 0 l 1
 181.152 107.91 l 1
 3.90625 107.91 l 1
 3.90625 160.156 l 1
 206.055 452.148 l 1
 249.023 452.148 l 1
 249.023 166.016 l 1
 311.035 166.016 l 1
 311.035 107.91 l 1
EndSplineSet
EndChar
StartChar: five
Encoding: 53 53 22
Width: 341
Flags: W
HStem: -5 101<57 113> 375 87<101 292>
VStem: 255 53<107 159>
DStem: 101 462 102 375 35 226 87 320
Fore
102 375 m 1
 87 320 l 1
 149 316 191 312 237 286 c 0
 268 269 308 226 308 159 c 0
 308 70 237 -5 113 -5 c 0
 60 -5 15 16 15 55 c 0
 15 74 28 96 57 96 c 0
 104 96 143 36 186 36 c 0
 210 36 255 51 255 107 c 0
 255 149 218 183 182 199 c 0
 136 219 84 223 35 226 c 1
 101 462 l 1
 321 462 l 1
 292 375 l 1
 102 375 l 1
EndSplineSet
Back
295.898 460.938 m 1
 269.043 395.996 l 1
 265.625 389.16 257.812 386.23 245.117 386.23 c 2
 125.977 386.23 l 1
 105.957 345.215 l 1
 142.09 338.867 171.387 329.59 194.336 316.406 c 0
 217.285 303.711 235.84 289.551 249.023 273.926 c 0
 254.395 267.09 259.277 259.277 264.16 249.512 c 0
 268.555 239.746 272.461 229.492 275.879 219.238 c 0
 279.297 208.496 281.738 197.266 283.691 186.523 c 0
 285.156 175.293 286.133 165.527 286.133 155.762 c 0
 286.133 105.469 267.578 64.9414 230.957 35.1562 c 0
 194.824 6.34766 153.32 -7.8125 105.957 -7.8125 c 0
 45.4102 -7.8125 15.1367 7.8125 15.1367 39.0625 c 0
 15.1367 50.293 19.043 58.5938 26.8555 64.4531 c 0
 35.1562 70.3125 42.4805 73.2422 49.8047 73.2422 c 0
 66.8945 73.2422 84.9609 65.4297 104.98 49.8047 c 0
 120.117 38.5742 133.301 33.2031 144.043 33.2031 c 0
 168.457 33.2031 187.988 44.4336 202.148 66.8945 c 0
 215.332 86.9141 222.168 111.816 222.168 142.09 c 0
 222.168 186.035 202.148 219.238 162.109 242.188 c 0
 144.531 251.465 126.465 258.789 107.422 264.16 c 0
 88.3789 269.531 69.3359 271.973 49.8047 271.973 c 0
 40.5273 271.973 36.1328 276.855 36.1328 286.133 c 2
 36.1328 291.016 l 1
 108.887 454.102 l 1
 249.023 454.102 l 2
 256.836 454.102 266.113 461.426 276.855 476.074 c 1
 295.898 460.938 l 1
EndSplineSet
EndChar
StartChar: six
Encoding: 54 54 23
Width: 341
Flags: W
HStem: -9 19<173 181> 257 30<163 201>
VStem: 19 107<166 194> 19 113<186 200> 221 103<107 152>
Fore
321 470 m 1
 321 452 l 1
 253 438 169 401 139 276 c 1
 156 283 168 287 201 287 c 0
 248 287 324 262 324 144 c 0
 324 107 298 -9 175 -9 c 0
 114 -9 19 30 19 194 c 0
 19 318 116 449 321 470 c 1
221 107 m 0
 221 205 210 257 163 257 c 0
 152 257 140 256 132 248 c 0
 132 247 126 209 126 186 c 0
 126 52 137 10 179 10 c 0
 221 10 221 53 221 107 c 0
EndSplineSet
Back
233.887 124.023 m 0
 233.887 206.543 208.008 248.047 155.762 248.047 c 0
 145.508 248.047 135.742 247.07 127.441 244.629 c 0
 119.141 242.188 111.816 237.793 105.957 231.934 c 1
 104.004 226.074 102.051 218.262 100.098 208.496 c 0
 98.1445 198.73 97.168 187.5 97.168 173.828 c 0
 97.168 158.691 98.1445 142.09 100.098 125 c 0
 102.051 107.91 105.469 91.7969 110.84 77.6367 c 0
 116.211 62.9883 124.023 51.2695 134.277 41.5039 c 0
 145.02 31.7383 158.203 26.8555 173.828 26.8555 c 0
 185.547 26.8555 194.824 29.7852 202.637 35.1562 c 0
 209.961 40.5273 216.309 47.3633 221.191 56.6406 c 0
 225.586 65.4297 229.004 75.6836 230.957 87.4023 c 0
 232.91 99.1211 233.887 111.328 233.887 124.023 c 0
309.082 149.902 m 0
 309.082 127.93 305.664 107.422 299.316 87.8906 c 0
 292.969 68.8477 283.691 51.7578 271.484 37.5977 c 0
 259.277 22.9492 244.141 12.207 226.074 3.90625 c 0
 208.008 -3.90625 187.5 -7.8125 164.062 -7.8125 c 0
 136.23 -7.8125 112.793 -1.95312 94.2383 9.76562 c 0
 75.1953 21.9727 60.5469 37.5977 48.8281 57.1289 c 0
 37.5977 76.1719 29.2969 98.1445 24.4141 123.047 c 0
 19.5312 147.461 17.0898 172.363 17.0898 196.777 c 0
 17.0898 232.91 24.4141 267.09 39.5508 298.828 c 0
 54.6875 331.055 74.707 358.887 100.098 382.812 c 0
 125.488 407.227 154.785 425.781 188.477 439.941 c 0
 222.168 454.102 257.324 460.938 293.945 460.938 c 1
 297.852 435.059 l 1
 250 426.27 209.961 408.203 178.223 380.371 c 0
 145.996 353.027 124.512 317.383 112.793 273.926 c 1
 117.676 276.855 122.07 278.809 125.488 280.273 c 0
 129.395 282.227 133.789 284.18 139.16 286.133 c 0
 154.785 291.992 169.922 294.922 184.082 294.922 c 0
 203.125 294.922 220.703 291.504 236.328 284.18 c 0
 251.953 276.855 265.137 266.602 275.879 253.418 c 0
 286.621 240.723 294.922 225.098 300.293 207.52 c 0
 306.152 189.941 309.082 170.898 309.082 149.902 c 0
EndSplineSet
EndChar
StartChar: seven
Encoding: 55 55 24
Width: 341
Flags: W
HStem: 0 21G<100 165> 368 94<42 237>
Fore
326 462 m 1
 165 0 l 1
 100 0 l 1
 237 368 l 1
 96 368 l 2
 78 368 44 368 29 310 c 1
 12 310 l 1
 42 462 l 1
 326 462 l 1
EndSplineSet
Back
308.105 431.152 m 1
 169.922 -3.90625 l 1
 108.887 -3.90625 l 1
 235.84 388.184 l 1
 108.887 388.184 l 2
 92.2852 388.184 79.1016 383.789 68.8477 375.977 c 0
 66.8945 374.512 63.4766 370.117 58.5938 362.793 c 0
 53.7109 355.469 46.875 345.215 39.0625 331.055 c 1
 12.207 342.773 l 1
 54.1992 453.125 l 1
 308.105 453.125 l 1
 308.105 431.152 l 1
EndSplineSet
EndChar
StartChar: eight
Encoding: 56 56 25
Width: 341
Flags: W
HStem: -9 22<160 180> 450 20<160 182>
VStem: 19 83<91 120> 27 88<348 395> 227 95<93 130> 231 82<358 376>
Fore
115 395 m 0
 115 331 197 292 203 288 c 1
 219 309 231 326 231 367 c 0
 231 401 221 450 171 450 c 0
 137 450 115 423 115 395 c 0
182 470 m 0
 285 470 313 410 313 371 c 0
 313 313 257 288 220 276 c 1
 279 241 322 193 322 130 c 0
 322 44 259 -9 162 -9 c 0
 88 -9 19 31 19 106 c 0
 19 180 76 207 122 221 c 1
 70 250 27 292 27 348 c 0
 27 412 72 470 182 470 c 0
102 107 m 0
 102 58 122 13 167 13 c 0
 227 13 227 75 227 93 c 0
 227 149 183 178 137 209 c 1
 116 178 102 157 102 107 c 0
EndSplineSet
Back
208.008 362.793 m 0
 208.008 380.371 203.125 394.531 193.848 405.762 c 0
 183.105 419.922 167.969 426.758 147.949 426.758 c 0
 131.836 426.758 118.652 421.875 107.422 411.133 c 0
 96.6797 400.391 90.8203 386.23 90.8203 368.164 c 0
 90.8203 337.891 113.77 307.129 159.18 274.902 c 1
 166.504 280.762 172.852 286.621 178.711 291.992 c 0
 184.082 297.363 187.5 300.781 188.965 303.223 c 0
 201.66 319.824 208.008 339.844 208.008 362.793 c 0
216.797 90.8203 m 0
 216.797 113.77 210.449 131.348 198.242 144.043 c 0
 192.871 149.902 184.57 157.715 172.852 166.992 c 0
 161.621 176.27 147.461 187.5 129.883 201.172 c 1
 121.094 192.383 115.234 186.035 111.816 182.617 c 0
 108.887 178.711 106.445 175.781 104.98 172.852 c 0
 99.6094 165.527 95.7031 156.738 92.7734 145.508 c 0
 90.332 134.277 88.8672 123.047 88.8672 110.84 c 0
 88.8672 86.9141 95.2148 66.8945 106.934 50.7812 c 0
 119.141 35.1562 136.23 26.8555 158.203 26.8555 c 0
 175.293 26.8555 189.453 33.2031 200.684 44.9219 c 0
 211.426 57.1289 216.797 72.2656 216.797 90.8203 c 0
282.227 106.934 m 0
 282.227 86.9141 278.32 69.8242 271.484 55.6641 c 0
 264.648 41.0156 254.883 29.2969 243.164 20.0195 c 0
 230.957 10.7422 216.797 3.90625 201.172 -0.976562 c 0
 185.059 -5.85938 167.969 -7.8125 149.902 -7.8125 c 0
 133.301 -7.8125 117.188 -5.37109 102.051 -0.488281 c 0
 86.4258 4.39453 73.2422 11.7188 61.5234 21.4844 c 0
 49.8047 31.25 40.5273 42.9688 33.6914 56.6406 c 0
 26.3672 70.3125 22.9492 85.9375 22.9492 104.004 c 0
 22.9492 118.652 24.4141 130.859 26.8555 141.113 c 0
 29.7852 150.879 33.6914 159.668 38.5742 167.48 c 0
 43.457 175.293 49.8047 182.617 57.6172 189.453 c 0
 64.9414 196.289 74.2188 204.102 83.9844 212.891 c 0
 85.9375 214.355 88.3789 215.82 90.332 217.773 c 0
 92.7734 220.215 96.1914 222.656 100.098 226.074 c 1
 96.6797 229.98 93.2617 233.887 89.8438 236.816 c 0
 86.4258 240.234 83.4961 243.652 80.0781 247.07 c 0
 71.2891 254.883 63.4766 262.695 57.1289 269.531 c 0
 50.293 276.367 44.9219 283.691 40.5273 291.504 c 0
 36.1328 299.316 32.7148 307.617 30.2734 317.383 c 0
 28.3203 327.148 26.8555 338.867 26.8555 352.051 c 0
 26.8555 369.141 30.2734 384.766 37.5977 397.949 c 0
 44.4336 411.133 53.7109 422.852 65.4297 432.129 c 0
 77.1484 441.406 90.332 448.73 105.469 453.613 c 0
 120.605 458.496 136.23 460.938 151.855 460.938 c 0
 167.48 460.938 182.129 458.984 196.289 455.078 c 0
 210.938 451.172 223.633 444.824 234.375 436.523 c 0
 245.605 428.223 254.395 417.48 260.742 404.785 c 0
 266.602 392.09 270.02 377.441 270.02 359.863 c 0
 270.02 332.52 262.695 311.035 248.047 294.922 c 0
 233.398 278.809 214.844 264.16 191.895 250 c 1
 194.824 247.559 197.754 244.629 201.172 241.699 c 0
 204.102 238.281 207.52 235.84 210.938 232.91 c 0
 221.68 224.121 231.445 215.82 240.234 207.52 c 0
 248.535 199.219 256.348 189.941 262.695 180.664 c 0
 269.043 170.898 273.438 160.156 276.855 148.438 c 0
 280.273 136.719 282.227 123.047 282.227 106.934 c 0
EndSplineSet
EndChar
StartChar: nine
Encoding: 57 57 26
Width: 341
Flags: W
HStem: 173 31<141 180> 451 19<161 174>
VStem: 18 104<310 354> 216 107<262 296>
Fore
21 -9 m 1
 21 9 l 1
 89 23 169 57 204 186 c 1
 194 181 184 178 174 176 c 0
 164 174 154 173 141 173 c 0
 94 173 18 199 18 317 c 0
 18 354 44 470 167 470 c 0
 228 470 323 431 323 267 c 0
 323 143 226 12 21 -9 c 1
122 354 m 0
 122 256 132 204 180 204 c 0
 191 204 209 208 210 213 c 0
 212 224 216 259 216 274 c 0
 216 409 206 451 163 451 c 0
 122 451 122 408 122 354 c 0
EndSplineSet
Back
231.934 268.066 m 2
 231.934 374.023 207.031 426.758 157.227 426.758 c 0
 117.188 426.758 97.168 391.113 97.168 319.824 c 0
 97.168 307.129 98.1445 293.945 100.586 279.297 c 0
 103.027 265.137 106.445 252.441 111.816 241.211 c 0
 117.188 229.492 124.512 220.215 133.789 212.402 c 0
 143.555 204.59 155.273 201.172 169.922 201.172 c 0
 190.43 201.172 209.473 208.008 226.074 222.168 c 1
 229.98 224.121 231.934 230.469 231.934 242.188 c 2
 231.934 268.066 l 2
312.988 269.043 m 0
 312.988 192.871 289.551 129.395 243.164 78.125 c 0
 188.965 17.0898 121.094 -13.1836 40.0391 -13.1836 c 1
 36.1328 16.1133 l 1
 58.5938 18.5547 79.5898 24.9023 99.6094 34.1797 c 0
 119.141 43.457 137.207 55.1758 152.832 69.3359 c 0
 168.945 83.9844 183.105 100.098 194.824 118.164 c 0
 207.031 136.23 216.309 155.273 223.145 175.781 c 1
 198.242 162.598 172.363 155.762 145.02 155.762 c 0
 106.934 155.762 76.1719 169.922 51.7578 198.242 c 0
 30.7617 223.145 20.0195 255.371 20.0195 293.945 c 0
 20.0195 339.844 32.2266 378.906 56.1523 410.156 c 0
 69.3359 427.246 84.9609 439.941 103.516 448.73 c 0
 122.07 457.031 142.09 460.938 164.062 460.938 c 0
 212.891 460.938 250.488 439.941 277.832 397.949 c 0
 301.27 360.84 312.988 317.871 312.988 269.043 c 0
EndSplineSet
EndChar
StartChar: colon
Encoding: 58 58 27
Width: 227
Flags: W
HStem: -9 116<113 121> 207 115<113 121>
Fore
56 48 m 0
 56 79 81 107 113 107 c 0
 145 107 171 80 171 48 c 0
 171 16 145 -9 113 -9 c 0
 81 -9 56 16 56 48 c 0
56 265 m 0
 56 296 81 322 113 322 c 0
 145 322 171 296 171 265 c 0
 171 232 145 207 113 207 c 0
 81 207 56 233 56 265 c 0
EndSplineSet
Back
23.9258 275.879 m 0
 23.9258 263.184 27.3438 252.441 34.668 244.141 c 0
 41.5039 235.352 50.7812 230.957 62.0117 230.957 c 0
 73.2422 230.957 82.5195 235.352 89.8438 244.141 c 0
 97.168 252.441 101.074 263.184 101.074 275.879 c 0
 101.074 288.574 97.168 299.316 89.8438 308.105 c 0
 82.5195 316.895 73.2422 320.801 62.0117 320.801 c 0
 50.7812 320.801 41.5039 316.895 34.668 308.105 c 0
 27.3438 299.316 23.9258 288.574 23.9258 275.879 c 0
23.9258 39.0625 m 0
 23.9258 26.3672 27.3438 15.625 34.668 6.83594 c 0
 41.5039 -1.46484 50.7812 -5.85938 62.0117 -5.85938 c 0
 73.2422 -5.85938 82.5195 -1.46484 89.8438 6.83594 c 0
 97.168 15.625 101.074 26.3672 101.074 39.0625 c 0
 101.074 51.7578 97.168 62.5 89.8438 70.8008 c 0
 82.5195 79.5898 73.2422 83.9844 62.0117 83.9844 c 0
 50.7812 83.9844 41.5039 79.5898 34.668 70.8008 c 0
 27.3438 62.5 23.9258 51.7578 23.9258 39.0625 c 0
EndSplineSet
EndChar
StartChar: semicolon
Encoding: 59 59 28
Width: 227
Flags: W
HStem: -4 110<103 112 112 124> 207 115<113 123>
Fore
182 28 m 0
 182 -58 104 -102 68 -123 c 1
 61 -108 l 1
 80 -95 135 -56 135 -18 c 0
 135 -10 131 -3 122 -3 c 2
 107 -4 l 2
 104 -4 56 -4 56 50 c 0
 56 85 81 106 112 106 c 0
 162 106 182 64 182 28 c 0
56 265 m 0
 56 296 81 322 113 322 c 0
 145 322 171 296 171 265 c 0
 171 232 145 207 113 207 c 0
 81 207 56 233 56 265 c 0
EndSplineSet
Back
78.125 82.0312 m 0
 76.1719 83.4961 73.2422 83.9844 69.8242 84.4727 c 0
 66.8945 84.9609 63.4766 84.9609 60.0586 84.9609 c 0
 48.8281 84.9609 39.0625 81.0547 30.2734 73.2422 c 0
 21.9727 64.9414 18.0664 55.1758 18.0664 42.9688 c 0
 18.0664 31.7383 21.9727 21.9727 30.2734 14.1602 c 0
 39.0625 5.85938 48.8281 1.95312 60.0586 1.95312 c 0
 64.4531 1.95312 70.3125 2.44141 77.1484 3.90625 c 1
 77.1484 -0.976562 l 2
 77.1484 -11.2305 73.2422 -20.5078 65.918 -29.7852 c 0
 58.5938 -39.5508 50.7812 -46.875 41.9922 -53.2227 c 0
 38.0859 -56.1523 34.668 -58.5938 32.7148 -59.5703 c 0
 30.2734 -60.5469 28.8086 -61.0352 28.8086 -61.0352 c 1
 38.0859 -86.9141 l 1
 38.0859 -86.9141 41.9922 -84.9609 49.8047 -81.0547 c 0
 58.1055 -77.1484 66.8945 -70.8008 77.1484 -62.0117 c 0
 86.9141 -53.2227 96.1914 -42.4805 104.004 -29.7852 c 0
 111.816 -17.0898 116.211 -1.95312 116.211 16.1133 c 0
 116.211 33.2031 112.305 47.3633 104.492 58.5938 c 0
 96.6797 69.3359 87.8906 77.1484 78.125 82.0312 c 0
19.043 279.785 m 0
 19.043 267.09 22.4609 256.836 29.2969 248.047 c 0
 36.6211 239.258 45.8984 234.863 57.1289 234.863 c 0
 68.3594 234.863 77.6367 239.258 84.9609 248.047 c 0
 92.2852 256.836 96.1914 267.09 96.1914 279.785 c 0
 96.1914 292.48 92.2852 303.223 84.9609 312.012 c 0
 77.6367 320.801 68.3594 325.195 57.1289 325.195 c 0
 45.8984 325.195 36.6211 320.801 29.2969 312.012 c 0
 22.4609 303.223 19.043 292.48 19.043 279.785 c 0
EndSplineSet
EndChar
StartChar: less
Encoding: 60 60 29
Width: 389
Flags: W
DStem: 21 147 99 173 368 -5 368 55 368 351 368 291 21 199 99 173
Fore
368 55 m 1
 368 -5 l 1
 21 147 l 1
 21 199 l 1
 368 351 l 1
 368 291 l 1
 99 173 l 1
 368 55 l 1
EndSplineSet
Back
356.934 -8.78906 m 1
 1.95312 151.855 l 1
 1.95312 203.125 l 1
 356.934 365.234 l 1
 356.934 310.059 l 1
 66.8945 178.223 l 1
 356.934 45.8984 l 1
 356.934 -8.78906 l 1
EndSplineSet
EndChar
StartChar: equal
Encoding: 61 61 30
Width: 389
Flags: W
HStem: 73 60<23 367> 212 60<23 367>
Fore
367 272 m 1
 367 212 l 1
 23 212 l 1
 23 272 l 1
 367 272 l 1
367 133 m 1
 367 73 l 1
 23 73 l 1
 23 133 l 1
 367 133 l 1
EndSplineSet
Back
383.789 208.984 m 1
 30.7617 208.984 l 1
 30.7617 256.836 l 1
 383.789 256.836 l 1
 383.789 208.984 l 1
383.789 82.0312 m 1
 30.7617 82.0312 l 1
 30.7617 129.883 l 1
 383.789 129.883 l 1
 383.789 82.0312 l 1
EndSplineSet
EndChar
StartChar: greater
Encoding: 62 62 31
Width: 389
Flags: W
DStem: 21 291 21 351 290 173 368 199 290 173 368 147 21 55 21 -5
Fore
21 55 m 1
 290 173 l 1
 21 291 l 1
 21 351 l 1
 368 199 l 1
 368 147 l 1
 21 -5 l 1
 21 55 l 1
EndSplineSet
Back
383.789 151.855 m 1
 28.8086 -8.78906 l 1
 28.8086 45.8984 l 1
 317.871 178.223 l 1
 28.8086 310.059 l 1
 28.8086 365.234 l 1
 383.789 203.125 l 1
 383.789 151.855 l 1
EndSplineSet
EndChar
StartChar: question
Encoding: 63 63 32
Width: 341
Flags: W
HStem: -9 116<163 173> 320 21G<69.5 93.5> 446 24<143 171>
VStem: 39 64<364 419> 39 89<362 373> 151 22<158 188> 152 21<158 184.408> 202 102<354 371.422>
Fore
173 158 m 1
 152 158 l 1
 152 171 151 180 151 188 c 0
 151 248 202 270 202 356 c 0
 202 385 197 446 143 446 c 0
 137 446 103 444 103 419 c 0
 103 398 128 397 128 364 c 0
 128 328 100 320 87 320 c 0
 52 320 39 349 39 373 c 0
 39 401 59 470 171 470 c 0
 193 470 304 463 304 354 c 0
 304 311 276 278 240 255 c 0
 206 234 188 224 180 207 c 0
 174 196 173 180 173 158 c 1
105 48 m 0
 105 79 130 107 163 107 c 0
 195 107 221 80 221 48 c 0
 221 16 195 -9 163 -9 c 0
 130 -9 105 16 105 48 c 0
EndSplineSet
Back
254.883 353.027 m 0
 254.883 367.188 252.93 380.859 249.023 394.043 c 0
 245.117 407.227 238.281 419.922 229.004 432.129 c 0
 215.82 448.242 199.707 458.984 181.152 464.355 c 0
 162.109 470.215 144.531 473.145 127.93 473.145 c 0
 112.793 473.145 98.1445 470.703 83.9844 465.332 c 0
 69.8242 460.449 57.6172 453.125 47.3633 443.848 c 0
 37.1094 434.57 28.8086 423.34 22.4609 410.645 c 0
 16.1133 397.461 13.1836 382.812 13.1836 367.188 c 0
 13.1836 349.609 17.5781 336.914 26.3672 328.613 c 0
 35.6445 320.312 44.9219 315.918 55.1758 315.918 c 0
 64.4531 315.918 72.2656 318.848 79.1016 324.707 c 0
 85.4492 330.078 88.8672 338.867 88.8672 350.098 c 2
 88.8672 353.027 l 2
 88.8672 357.91 87.8906 363.281 85.4492 369.629 c 0
 83.0078 375.977 79.1016 381.348 74.2188 386.23 c 0
 70.8008 389.16 68.3594 392.578 66.4062 395.996 c 0
 64.9414 399.414 63.9648 401.855 63.9648 402.832 c 0
 63.9648 411.133 69.3359 418.457 80.0781 425.781 c 0
 85.4492 429.199 91.3086 431.641 97.6562 433.594 c 0
 104.004 435.059 109.863 436.035 115.234 436.035 c 0
 134.766 436.035 150.391 428.711 161.133 414.062 c 0
 171.875 399.414 176.758 380.859 176.758 358.887 c 0
 176.758 345.703 175.293 331.055 171.875 314.453 c 0
 168.457 298.34 162.598 280.273 153.809 261.23 c 2
 136.23 219.238 l 2
 122.559 186.523 116.211 150.391 116.211 110.84 c 1
 144.043 110.84 l 1
 151.367 149.902 157.715 173.828 163.086 184.082 c 0
 168.945 194.824 175.293 204.59 182.617 213.867 c 0
 189.453 223.145 196.777 232.91 204.102 242.188 c 0
 222.656 263.184 235.84 283.203 243.652 301.758 c 0
 250.977 320.801 254.883 337.891 254.883 353.027 c 0
87.8906 39.0625 m 0
 87.8906 26.8555 92.2852 16.6016 100.586 8.30078 c 0
 108.887 0 119.141 -3.90625 130.859 -3.90625 c 0
 143.066 -3.90625 153.32 0 162.109 8.30078 c 0
 170.898 16.6016 174.805 26.8555 174.805 39.0625 c 0
 174.805 50.7812 170.898 61.5234 162.109 69.8242 c 0
 153.32 78.6133 143.066 83.0078 130.859 83.0078 c 0
 119.141 83.0078 108.887 78.6133 100.586 69.8242 c 0
 92.2852 61.5234 87.8906 50.7812 87.8906 39.0625 c 0
EndSplineSet
EndChar
StartChar: at
Encoding: 64 64 33
Width: 635
Flags: W
HStem: -13 31<328 358> 98 25<431 444> 322 32<355 368> 445 27<330 347>
VStem: 74 63<210 228> 218 52<178 196> 529 32<258 280>
Fore
394 277 m 1
 394 307 384 322 364 322 c 0
 330 322 270 271 270 188 c 0
 270 147 290 130 313 130 c 0
 343 130 384 178 394 277 c 1
406 318 m 1
 414 345 l 1
 462 345 l 1
 417 168 l 1
 414 156 412 123 442 123 c 0
 495 123 529 204 529 264 c 0
 529 344 456 445 330 445 c 0
 228 445 137 367 137 212 c 0
 137 111 219 18 337 18 c 0
 399 18 436 33 477 52 c 1
 485 28 l 1
 440 6 393 -13 338 -13 c 0
 154 -13 74 124 74 218 c 0
 74 370 192 472 330 472 c 0
 460 472 561 384 561 265 c 0
 561 193 515 98 431 98 c 0
 384 98 367 139 368 147 c 1
 367 147 l 1
 359 136 327 101 285 98 c 0
 266 97 218 108 218 184 c 0
 218 237 262 354 356 354 c 0
 389 354 397 336 406 318 c 1
EndSplineSet
Back
298.828 191.895 m 0
 304.199 205.566 309.082 218.262 312.988 231.445 c 0
 316.895 244.629 318.848 257.812 318.848 270.996 c 0
 318.848 293.457 312.988 305.176 300.781 305.176 c 0
 278.32 305.176 259.277 291.504 244.141 264.16 c 0
 236.816 250.488 230.957 237.793 226.562 225.586 c 0
 222.168 213.379 220.215 200.195 220.215 187.012 c 0
 220.215 156.25 230.469 141.113 251.953 141.113 c 0
 268.555 141.113 284.18 158.203 298.828 191.895 c 0
494.141 258.789 m 0
 494.141 218.262 482.91 182.129 460.938 149.902 c 0
 436.523 111.816 403.32 92.7734 361.816 92.7734 c 0
 350.586 92.7734 340.82 95.2148 333.008 99.6094 c 0
 325.195 104.004 317.383 109.863 310.059 117.188 c 0
 308.105 119.629 306.152 122.07 304.688 124.512 c 0
 302.734 126.953 301.27 129.395 299.805 131.836 c 1
 284.18 117.188 l 2
 275.879 110.352 267.09 104.492 257.324 100.098 c 0
 248.047 95.2148 238.281 92.7734 229.004 92.7734 c 0
 207.031 92.7734 189.453 101.074 175.781 116.699 c 0
 162.598 132.324 155.762 154.785 155.762 185.059 c 0
 155.762 216.309 166.504 250 187.988 286.133 c 0
 213.867 330.078 250 352.051 295.898 352.051 c 0
 308.105 352.051 316.895 349.121 322.266 344.238 c 0
 328.125 338.867 332.52 333.984 335.938 330.078 c 1
 338.867 341.797 l 1
 405.762 341.797 l 1
 358.887 165.039 l 1
 357.91 148.926 l 1
 357.91 138.184 362.793 132.812 373.047 132.812 c 0
 385.742 132.812 396.484 137.207 405.762 145.996 c 0
 415.527 154.785 423.34 165.527 429.688 178.223 c 0
 436.035 190.43 440.43 204.102 443.848 219.238 c 0
 447.266 233.887 449.219 246.582 449.219 257.812 c 0
 449.219 281.25 443.848 303.223 433.594 323.73 c 0
 423.34 343.75 409.668 361.328 393.066 376.465 c 0
 376.465 391.602 356.934 403.32 335.449 411.621 c 0
 313.965 419.922 291.992 423.828 270.02 423.828 c 0
 240.234 423.828 214.355 417.969 192.383 406.738 c 0
 170.898 395.02 152.832 379.395 138.672 359.375 c 0
 124.023 339.844 113.281 316.895 106.445 291.016 c 0
 99.6094 265.137 96.1914 237.793 96.1914 208.984 c 0
 96.1914 184.57 101.074 161.133 110.352 139.648 c 0
 120.117 117.676 133.301 99.1211 149.414 83.4961 c 0
 166.016 67.8711 185.059 55.6641 206.543 46.3867 c 0
 228.027 37.5977 251.465 33.2031 275.879 33.2031 c 0
 316.895 33.2031 361.328 44.4336 410.156 67.8711 c 1
 424.805 32.2266 l 1
 394.531 18.5547 366.699 8.78906 342.285 1.95312 c 0
 318.359 -4.88281 296.387 -7.8125 276.855 -7.8125 c 0
 195.801 -7.8125 130.859 17.0898 82.0312 67.8711 c 0
 60.5469 89.8438 45.4102 113.281 35.6445 138.672 c 0
 25.8789 163.574 20.9961 188.965 20.9961 214.844 c 0
 20.9961 285.645 44.4336 344.238 91.7969 391.113 c 0
 140.625 437.5 200.195 460.938 270.02 460.938 c 0
 330.566 460.938 382.324 442.871 424.805 407.227 c 0
 471.191 369.629 494.141 320.312 494.141 258.789 c 0
EndSplineSet
EndChar
StartChar: A
Encoding: 65 65 34
Width: 492
Flags: W
HStem: 0 17<126 145 249 270 448.5 470 459.304 469.937> 135 26<129 272> 451 20G<225 244>
DStem: 193 327 244 471 262 161 396 112 225 471 193 327 73 97 129 161
Fore
470 0 m 1
 249 0 l 1
 249 17 l 1
 270 18 304 15 304 44 c 0
 304 64 281 115 272 135 c 1
 119 135 l 1
 113 119 89 61 89 46 c 0
 89 19 126 18 145 17 c 1
 145 0 l 1
 6 0 l 1
 6 17 l 1
 48 23 59 62 73 97 c 2
 225 471 l 1
 244 471 l 1
 396 112 l 2
 409 81 427 15 470 17 c 1
 470 0 l 1
262 161 m 1
 193 327 l 1
 129 161 l 1
 262 161 l 1
EndSplineSet
Back
167.969 184.082 m 1
 290.039 184.082 l 1
 229.98 328.125 l 1
 167.969 184.082 l 1
484.863 0 m 1
 296.875 0 l 1
 296.875 28.8086 l 1
 324.219 28.8086 l 2
 330.078 28.8086 334.473 30.7617 337.402 34.1797 c 0
 340.332 37.1094 341.797 40.5273 341.797 42.9688 c 0
 341.797 48.3398 340.82 54.6875 338.379 62.5 c 0
 335.938 70.3125 333.496 77.1484 330.078 83.9844 c 2
 306.152 139.16 l 1
 149.902 139.16 l 1
 123.047 68.8477 l 1
 119.629 62.5 118.164 55.1758 118.164 47.8516 c 0
 118.164 35.1562 132.812 28.8086 162.109 28.8086 c 1
 162.109 0 l 1
 11.2305 0 l 1
 11.2305 28.8086 l 1
 22.4609 28.8086 32.7148 32.7148 41.9922 39.5508 c 0
 51.2695 46.3867 58.5938 55.1758 63.9648 65.918 c 1
 227.051 452.148 l 1
 264.16 452.148 l 1
 425.781 81.0547 l 2
 435.547 60.5469 443.848 46.3867 451.66 39.5508 c 0
 458.984 32.7148 470.215 28.8086 484.863 28.8086 c 1
 484.863 0 l 1
EndSplineSet
EndChar
StartChar: B
Encoding: 66 66 35
Width: 455
Flags: W
HStem: 0 17<11 22.6667> 0 22<214 236> 234 21<180 203> 441 21<11 231> 445 17<11 22.6667>
VStem: 71 109<62 234 66 410> 287 112<337.149 355> 305 118<111 129>
Fore
423 127 m 0
 423 28 310 0 231 0 c 2
 11 0 l 1
 11 17 l 1
 46 20 71 23 71 66 c 2
 71 396 l 2
 71 438 46 442 11 445 c 1
 11 462 l 1
 222 462 l 6
 294 462 399 445 399 352 c 0
 399 287 346 266 294 250 c 1
 294 249 l 1
 358 238 423 200 423 127 c 0
287 353 m 0
 287 401 271 441 216 441 c 0
 191 441 180 433 180 408 c 2
 180 255 l 1
 260 255 287 272 287 353 c 0
305 124 m 0
 305 197 273 234 201 234 c 2
 180 234 l 1
 180 64 l 2
 180 34 192 22 221 22 c 0
 286 22 305 67 305 124 c 0
EndSplineSet
Back
314.941 329.102 m 0
 314.941 383.789 279.785 411.133 209.961 411.133 c 2
 181.152 411.133 l 2
 177.734 411.133 175.781 407.227 175.781 398.926 c 2
 175.781 256.836 l 1
 229.004 257.812 l 2
 286.133 259.277 314.941 283.203 314.941 329.102 c 0
329.102 126.953 m 0
 329.102 169.434 306.152 196.777 261.23 208.008 c 0
 244.141 211.914 215.82 213.867 175.781 213.867 c 1
 175.781 61.0352 l 2
 175.781 52.2461 179.199 46.3867 186.035 42.9688 c 2
 185.059 42.9688 l 2
 191.895 41.5039 202.148 41.0156 216.797 41.0156 c 0
 291.504 41.0156 329.102 69.8242 329.102 126.953 c 0
426.758 124.023 m 0
 425.781 85.4492 410.645 55.1758 381.836 33.2031 c 0
 353.516 11.2305 315.43 0 269.043 0 c 2
 22.9492 0 l 1
 22.9492 29.7852 l 1
 48.3398 29.7852 64.9414 33.2031 73.7305 39.0625 c 0
 82.0312 44.9219 85.9375 58.5938 85.9375 80.0781 c 2
 85.9375 372.07 l 2
 85.9375 385.254 84.9609 395.996 83.0078 404.297 c 0
 81.0547 412.598 74.2188 417.48 62.9883 418.945 c 2
 22.9492 423.828 l 1
 22.9492 452.148 l 1
 226.074 452.148 l 2
 345.215 452.148 404.785 412.109 404.785 333.008 c 0
 404.785 315.43 401.855 300.781 395.02 288.086 c 0
 388.184 275.391 379.883 264.16 369.141 254.883 c 0
 365.723 251.465 361.328 249.023 355.957 246.582 c 0
 350.586 244.141 345.215 241.699 338.867 238.77 c 1
 397.461 218.262 426.758 180.176 426.758 124.023 c 0
EndSplineSet
EndChar
StartChar: C
Encoding: 67 67 36
Width: 492
Flags: W
HStem: -13 33<272 289> 449 23<272 289> 450 20G<438 457>
VStem: 33 121<210 244>
Fore
469 87 m 1
 417 27 362 -13 279 -13 c 0
 136 -13 33 83 33 227 c 0
 33 367 134 472 275 472 c 0
 328 472 382 438 407 438 c 0
 425 438 434 455 438 470 c 1
 457 470 l 1
 457 310 l 1
 440 310 l 1
 414 373 356 449 281 449 c 0
 168 449 154 314 154 229 c 0
 154 141 174 20 287 20 c 0
 355 20 405 55 449 104 c 1
 469 87 l 1
EndSplineSet
Back
435.059 83.0078 m 1
 429.688 73.7305 423.34 64.9414 415.527 57.1289 c 0
 407.715 48.8281 397.949 41.0156 386.23 33.2031 c 0
 366.699 19.5312 345.703 9.27734 322.266 2.44141 c 0
 299.316 -4.39453 274.902 -7.8125 249.023 -7.8125 c 0
 213.867 -7.8125 181.641 -2.92969 152.832 7.32422 c 0
 124.512 18.0664 100.098 33.2031 81.0547 54.1992 c 0
 41.0156 96.6797 20.9961 152.344 20.9961 221.191 c 0
 20.9961 285.645 42.4805 341.797 85.9375 389.16 c 0
 106.445 411.133 129.883 427.246 155.273 437.988 c 0
 181.152 448.73 208.496 454.102 236.816 454.102 c 0
 246.094 454.102 255.859 453.613 266.113 452.637 c 0
 275.879 451.66 285.645 450.684 294.434 449.707 c 0
 303.711 448.73 311.035 447.266 317.383 446.289 c 0
 323.73 445.312 328.125 444.824 330.078 443.848 c 2
 370.117 432.129 l 1
 377.93 432.617 384.766 439.453 390.137 453.125 c 1
 423.828 453.125 l 1
 430.176 291.992 l 1
 394.043 291.992 l 1
 386.23 330.078 370.117 359.375 347.168 379.395 c 0
 323.73 399.902 294.434 410.156 258.789 410.156 c 0
 214.844 410.156 181.641 390.137 159.18 351.074 c 0
 148.438 333.008 140.137 313.477 133.789 291.992 c 0
 127.93 270.508 125 246.094 125 219.238 c 0
 125 192.871 127.93 169.434 133.301 147.949 c 0
 139.16 126.465 148.438 107.422 161.133 89.8438 c 0
 172.852 73.2422 187.5 60.0586 204.102 50.293 c 0
 220.703 41.0156 241.699 36.1328 267.09 36.1328 c 0
 314.941 36.1328 362.793 59.082 411.133 104.98 c 1
 435.059 83.0078 l 1
EndSplineSet
EndChar
StartChar: D
Encoding: 68 68 37
Width: 492
Flags: W
HStem: 0 17<10 40 10.0313 26.939> 0 24<201 235> 438 24<10 235> 445 17<10 20.3333>
VStem: 66 111<51.1071 408> 352 119<223 257>
Fore
471 238 m 0
 471 87 373 0 225 0 c 2
 10 0 l 1
 10 17 l 1
 40 16 66 28 66 62 c 2
 66 399 l 2
 66 436 41 442 10 445 c 1
 10 462 l 1
 218 462 l 2
 360 462 471 389 471 238 c 0
352 231 m 0
 352 316 326 438 219 438 c 0
 191 438 177 435 177 406 c 2
 177 64 l 2
 177 34 185 24 216 24 c 0
 334 24 352 135 352 231 c 0
EndSplineSet
Back
393.066 225.098 m 0
 393.066 287.109 374.512 333.496 337.891 365.234 c 0
 320.801 380.371 300.781 392.09 277.832 399.902 c 0
 255.371 408.203 227.539 412.109 194.824 412.109 c 0
 185.547 412.109 179.688 411.133 177.734 409.668 c 0
 175.293 407.715 173.828 402.344 173.828 393.066 c 2
 173.828 61.0352 l 2
 173.828 51.7578 177.734 45.8984 184.57 43.9453 c 0
 191.406 41.9922 198.242 41.0156 204.102 41.0156 c 0
 268.555 41.0156 316.406 56.1523 347.168 86.9141 c 0
 377.441 117.676 393.066 163.574 393.066 225.098 c 0
494.141 225.098 m 0
 494.141 194.824 489.258 167.969 480.469 143.555 c 0
 471.68 119.141 458.496 97.168 440.918 78.125 c 0
 395.02 25.8789 325.195 0 231.934 0 c 2
 24.9023 0 l 1
 24.9023 29.7852 l 1
 36.1328 29.7852 45.8984 30.7617 53.2227 32.2266 c 0
 60.5469 33.2031 66.4062 35.6445 70.8008 39.0625 c 0
 75.6836 42.4805 78.6133 47.3633 80.5664 54.1992 c 0
 82.0312 60.5469 83.0078 69.3359 83.0078 80.0781 c 2
 83.0078 373.047 l 2
 83.0078 387.207 82.0312 397.949 80.0781 406.738 c 0
 78.125 415.039 71.7773 419.434 61.0352 420.898 c 2
 24.9023 423.828 l 1
 24.9023 453.125 l 1
 222.168 453.125 l 2
 301.758 453.125 365.723 435.547 413.086 400.879 c 0
 466.797 362.793 494.141 304.199 494.141 225.098 c 0
EndSplineSet
EndChar
StartChar: E
Encoding: 69 69 38
Width: 455
Flags: W
HStem: 0 17<11 23> 0 21<218 410> 225 23<182 204.165> 324 21G<388 405> 438 24<11 252> 445 17<11 22.6667>
VStem: 71 111<57 225 66 408>
Fore
438 142 m 1
 410 0 l 1
 11 0 l 1
 11 17 l 1
 47 20 71 23 71 66 c 2
 71 396 l 2
 71 438 46 442 11 445 c 1
 11 462 l 1
 405 462 l 1
 405 324 l 1
 388 324 l 1
 372 422 322 438 231 438 c 0
 203 438 182 440 182 406 c 2
 182 248 l 1
 257 247 283 275 292 350 c 1
 310 350 l 1
 310 119 l 1
 292 119 l 1
 285 195 258 225 182 225 c 1
 182 59 l 2
 182 22 208 21 239 21 c 0
 329 21 384 58 419 142 c 1
 438 142 l 1
EndSplineSet
Back
434.082 127.93 m 1
 399.902 0 l 1
 24.9023 0 l 1
 24.9023 29.7852 l 1
 46.875 29.7852 62.0117 33.6914 69.3359 40.5273 c 0
 77.1484 47.3633 81.0547 60.5469 81.0547 80.0781 c 2
 81.0547 373.047 l 2
 81.0547 388.184 80.0781 399.414 78.125 405.762 c 0
 76.1719 412.598 69.8242 416.992 59.082 418.945 c 2
 24.9023 423.828 l 1
 24.9023 453.125 l 1
 395.996 453.125 l 1
 395.996 340.82 l 1
 357.91 340.82 l 1
 353.516 374.512 344.727 394.531 332.031 401.855 c 0
 318.848 408.691 296.875 412.109 267.09 412.109 c 2
 187.012 412.109 l 2
 182.129 412.109 178.711 410.156 176.27 405.762 c 0
 174.316 401.855 172.852 397.461 172.852 393.066 c 2
 172.852 259.766 l 1
 257.812 259.766 l 2
 282.227 259.766 296.875 263.184 303.223 269.043 c 0
 311.035 275.879 316.895 293.457 320.801 321.777 c 1
 360.84 321.777 l 1
 360.84 152.832 l 1
 320.801 152.832 l 1
 316.895 182.129 311.523 199.707 305.176 205.078 c 0
 298.828 210.938 283.203 213.867 257.812 213.867 c 2
 172.852 213.867 l 1
 172.852 62.0117 l 2
 172.852 56.1523 175.293 51.2695 179.688 47.3633 c 0
 183.594 43.9453 191.895 41.9922 203.125 41.9922 c 2
 255.859 41.9922 l 2
 293.945 41.9922 321.289 46.875 337.891 57.1289 c 0
 348.145 62.9883 357.91 71.7773 367.188 83.4961 c 0
 376.465 95.2148 384.766 109.863 392.09 127.93 c 1
 434.082 127.93 l 1
EndSplineSet
EndChar
StartChar: F
Encoding: 70 70 39
Width: 417
Flags: W
HStem: 0 17<11 23 218 257 227.775 256.969> 225 23<182.063 202.691> 324 21G<382 398> 438 24<11 259> 445 17<11 22.6667>
VStem: 71 111<52.7108 225 66 408>
Fore
398 324 m 1
 382 324 l 1
 363 417 326 438 231 438 c 0
 203 438 182 440 182 406 c 2
 182 248 l 1
 258 246 274 283 286 350 c 1
 303 350 l 1
 303 119 l 1
 286 119 l 1
 277 187 259 225 182 225 c 1
 182 66 l 2
 182 16 218 18 257 17 c 1
 257 0 l 1
 11 0 l 1
 11 17 l 1
 47 20 71 23 71 66 c 2
 71 396 l 2
 71 438 46 442 11 445 c 1
 11 462 l 1
 398 462 l 1
 398 324 l 1
EndSplineSet
Back
398.926 340.82 m 1
 359.863 340.82 l 1
 355.957 373.535 347.168 393.555 333.984 400.879 c 0
 320.801 407.715 299.316 411.133 270.02 411.133 c 2
 182.129 411.133 l 2
 175.293 411.133 171.875 405.762 171.875 395.996 c 2
 171.875 259.766 l 1
 254.883 259.766 l 2
 277.832 259.766 293.457 264.16 301.758 272.461 c 0
 310.547 280.762 315.918 296.875 317.871 320.801 c 1
 355.957 320.801 l 1
 355.957 151.855 l 1
 317.871 151.855 l 1
 315.918 176.758 310.547 193.359 301.27 202.637 c 0
 292.48 211.426 276.855 215.82 254.883 215.82 c 2
 171.875 215.82 l 1
 171.875 80.0781 l 2
 171.875 60.5469 175.781 47.3633 184.082 40.5273 c 0
 191.895 33.6914 207.031 29.7852 229.004 29.7852 c 1
 229.004 0 l 1
 23.9258 0 l 1
 23.9258 29.7852 l 1
 49.8047 29.7852 66.4062 34.1797 73.2422 41.9922 c 0
 77.6367 48.8281 80.0781 63.9648 80.0781 87.8906 c 2
 80.0781 372.07 l 2
 80.0781 382.812 79.1016 391.113 77.6367 396.973 c 0
 75.6836 402.832 73.7305 407.715 70.8008 411.133 c 0
 68.3594 414.551 65.918 416.504 63.4766 417.48 c 0
 61.0352 418.457 59.5703 418.945 58.1055 418.945 c 2
 23.9258 423.828 l 1
 23.9258 452.148 l 1
 396.973 452.148 l 1
 398.926 340.82 l 1
EndSplineSet
EndChar
StartChar: G
Encoding: 71 71 40
Width: 531
Flags: W
HStem: -13 23<264 283> 179 17<281 320 504 516> 449 23<264 283> 450 20G<430 449>
VStem: 25 121<210 244> 350 107<50 133>
Fore
516 179 m 1
 468 175 457 166 457 116 c 2
 457 29 l 1
 417 2 320 -13 272 -13 c 0
 128 -13 25 81 25 227 c 0
 25 367 126 472 267 472 c 0
 320 472 373 438 399 438 c 0
 417 438 425 455 430 470 c 1
 449 470 l 1
 449 310 l 1
 432 310 l 1
 406 373 348 449 272 449 c 0
 160 449 146 313 146 228 c 0
 146 140 166 10 279 10 c 0
 318 10 350 15 350 59 c 2
 350 131 l 2
 350 178 320 178 281 179 c 1
 281 196 l 1
 516 196 l 1
 516 179 l 1
EndSplineSet
Back
485.84 217.773 m 1
 464.844 215.82 453.125 213.867 451.172 211.914 c 0
 444.336 205.566 440.918 192.871 440.918 174.805 c 2
 440.918 45.8984 l 2
 440.918 41.9922 437.988 37.5977 432.617 33.6914 c 0
 426.758 29.2969 419.434 25.3906 410.645 21.4844 c 0
 401.367 18.0664 391.113 14.6484 379.395 11.7188 c 0
 367.676 8.30078 356.445 5.85938 345.215 2.92969 c 0
 328.125 -0.488281 314.453 -2.92969 303.223 -4.88281 c 0
 291.504 -6.83594 281.25 -7.8125 271.973 -7.8125 c 0
 189.453 -7.8125 125.488 15.625 80.0781 62.9883 c 0
 57.1289 86.9141 41.9922 112.305 34.668 139.648 c 0
 26.8555 166.504 22.9492 196.289 22.9492 229.004 c 0
 22.9492 294.434 45.4102 348.145 89.8438 391.113 c 0
 111.328 411.621 136.719 427.246 165.527 437.988 c 0
 194.336 448.73 225.586 454.102 258.789 454.102 c 0
 265.137 454.102 271.973 453.613 279.297 453.613 c 0
 287.109 453.125 294.434 452.637 301.758 451.66 c 0
 309.57 450.684 316.406 449.707 322.266 448.73 c 0
 328.613 447.266 333.496 446.289 336.914 444.824 c 2
 376.953 432.129 l 1
 385.742 432.129 392.09 439.453 396.973 454.102 c 1
 433.105 454.102 l 1
 437.988 299.805 l 1
 402.832 299.805 l 1
 374.512 374.023 329.59 411.133 269.043 411.133 c 0
 243.652 411.133 222.168 406.25 205.078 396.484 c 0
 187.5 386.719 172.363 371.094 159.18 350.098 c 0
 147.461 331.543 139.648 311.035 134.277 289.062 c 0
 129.395 267.09 126.953 242.676 126.953 215.82 c 0
 126.953 189.941 129.883 166.016 136.23 144.043 c 0
 142.09 122.07 151.855 103.516 165.039 87.8906 c 0
 181.152 69.8242 197.266 56.6406 213.379 47.3633 c 0
 229.98 38.5742 250.488 34.1797 275.879 34.1797 c 0
 283.203 34.1797 291.504 34.668 300.293 36.1328 c 0
 309.57 37.1094 317.871 39.0625 326.172 41.0156 c 0
 346.191 46.3867 355.957 53.7109 355.957 62.9883 c 2
 355.957 167.969 l 2
 355.957 183.105 354.98 194.336 352.539 201.172 c 0
 350.098 207.52 344.238 212.402 333.984 214.844 c 0
 328.125 216.797 316.895 217.773 299.805 217.773 c 1
 299.805 250.977 l 1
 485.84 250.977 l 1
 485.84 217.773 l 1
EndSplineSet
EndChar
StartChar: H
Encoding: 72 72 41
Width: 531
Flags: W
HStem: 0 17<14 22.5 235.5 244 286 294.5 509.5 518> 223 32<183 348> 445 17<14 22.5 232.667 244 286 297.667 506.667 518>
VStem: 72 111<52.852 223 66 401> 348 110<53.0498 223 255 401>
Fore
518 0 m 1
 286 0 l 1
 286 17 l 1
 320 21 348 23 348 66 c 2
 348 223 l 1
 183 223 l 1
 183 66 l 2
 183 23 210 21 244 17 c 1
 244 0 l 1
 14 0 l 1
 14 17 l 1
 48 21 72 25 72 66 c 2
 72 396 l 2
 72 437 48 441 14 445 c 1
 14 462 l 1
 244 462 l 1
 244 445 l 1
 210 442 183 438 183 396 c 2
 183 255 l 1
 348 255 l 1
 348 396 l 2
 348 438 321 442 286 445 c 1
 286 462 l 1
 518 462 l 1
 518 445 l 1
 484 442 458 438 458 396 c 2
 458 66 l 2
 458 24 484 21 518 17 c 1
 518 0 l 1
EndSplineSet
Back
500 424.805 m 1
 500 453.125 l 1
 291.016 453.125 l 1
 291.016 424.805 l 1
 291.504 424.805 294.922 424.805 300.781 424.316 c 0
 307.129 424.316 313.965 423.34 321.777 421.387 c 0
 330.078 419.922 335.449 417.48 338.867 414.062 c 0
 343.75 410.156 346.68 404.785 348.633 398.438 c 0
 350.098 392.09 351.074 382.324 351.074 369.141 c 2
 351.074 252.93 l 1
 175.781 252.93 l 1
 175.781 369.141 l 2
 175.781 382.324 176.758 392.09 178.711 398.438 c 0
 180.176 404.785 183.105 410.156 187.012 414.062 c 0
 190.918 417.48 196.777 419.922 205.078 421.387 c 0
 212.891 423.34 219.727 424.316 225.586 424.316 c 0
 230.957 424.805 234.375 424.805 234.863 424.805 c 1
 234.863 453.125 l 1
 25.8789 453.125 l 1
 25.8789 424.805 l 1
 27.3438 424.805 30.7617 424.805 37.1094 424.316 c 0
 42.9688 424.316 50.293 423.34 59.082 421.387 c 0
 67.8711 419.922 73.7305 417.48 77.1484 414.062 c 0
 80.5664 410.645 82.5195 405.762 83.4961 399.414 c 0
 84.4727 393.066 84.9609 388.184 84.9609 383.789 c 2
 84.9609 85.9375 l 2
 84.9609 74.2188 84.4727 64.4531 83.9844 57.6172 c 0
 83.4961 50.293 80.5664 44.4336 76.1719 39.0625 c 0
 73.2422 36.1328 67.8711 34.1797 59.082 33.2031 c 0
 50.293 31.7383 42.9688 30.7617 37.1094 30.2734 c 0
 30.7617 30.2734 27.3438 29.7852 25.8789 29.7852 c 1
 25.8789 0 l 1
 234.863 0 l 1
 234.863 29.7852 l 1
 233.887 29.7852 229.98 30.2734 224.121 30.2734 c 0
 217.773 30.7617 210.449 31.7383 202.148 33.2031 c 0
 193.359 34.1797 187.5 36.1328 185.059 39.0625 c 0
 181.641 42.4805 179.199 47.3633 178.223 53.7109 c 0
 176.758 60.0586 175.781 72.2656 175.781 90.8203 c 2
 175.781 207.031 l 1
 351.074 207.031 l 1
 351.074 90.8203 l 2
 351.074 72.2656 350.098 60.0586 348.633 53.7109 c 0
 346.68 47.3633 344.238 42.4805 340.82 39.0625 c 0
 338.379 36.1328 332.52 34.1797 324.219 33.2031 c 0
 315.43 31.7383 308.105 30.7617 301.758 30.2734 c 0
 295.898 30.2734 292.48 29.7852 291.016 29.7852 c 1
 291.016 0 l 1
 500 0 l 1
 500 29.7852 l 1
 499.512 29.7852 495.605 30.2734 489.258 30.2734 c 0
 483.398 30.7617 476.074 31.7383 467.285 33.2031 c 0
 458.984 34.1797 453.613 36.1328 451.172 39.0625 c 0
 445.801 44.4336 442.871 50.293 441.895 57.6172 c 0
 441.406 64.4531 440.918 74.2188 440.918 85.9375 c 2
 440.918 379.883 l 2
 440.918 383.301 441.406 389.16 442.383 396.973 c 0
 443.359 404.785 445.801 410.645 449.219 414.062 c 0
 452.148 417.48 458.496 419.922 466.797 421.387 c 0
 475.586 423.34 483.398 424.316 489.258 424.316 c 0
 495.605 424.805 499.512 424.805 500 424.805 c 1
EndSplineSet
EndChar
StartChar: I
Encoding: 73 73 42
Width: 265
Flags: W
HStem: 0 17<14 25.3333 241 253> 445 17<14 25.3333 235 253>
VStem: 77 111<53.2161 401>
Fore
253 0 m 1
 14 0 l 1
 14 17 l 1
 48 20 77 23 77 66 c 2
 77 396 l 2
 77 439 48 442 14 445 c 1
 14 462 l 1
 253 462 l 1
 253 445 l 1
 217 443 188 440 188 396 c 2
 188 66 l 2
 188 21 217 20 253 17 c 1
 253 0 l 1
EndSplineSet
Back
228.027 0 m 1
 19.043 0 l 1
 19.043 29.7852 l 1
 42.4805 29.7852 58.1055 33.2031 65.918 39.5508 c 0
 74.2188 45.8984 78.125 59.5703 78.125 80.0781 c 2
 78.125 372.07 l 2
 78.125 393.555 75.6836 407.227 70.8008 414.062 c 0
 67.8711 418.457 61.0352 421.387 51.2695 421.875 c 0
 41.9922 422.852 30.7617 422.852 19.043 422.852 c 1
 19.043 452.148 l 1
 228.027 452.148 l 1
 228.027 422.852 l 1
 214.844 422.852 203.613 422.852 194.336 421.875 c 0
 185.547 421.387 179.199 418.457 175.781 414.062 c 0
 170.898 408.203 167.969 394.043 167.969 372.07 c 2
 167.969 80.0781 l 2
 167.969 58.5938 171.875 44.9219 180.176 39.0625 c 0
 187.988 33.2031 204.102 29.7852 228.027 29.7852 c 1
 228.027 0 l 1
EndSplineSet
EndChar
StartChar: J
Encoding: 74 74 43
Width: 341
Flags: W
HStem: -66 23<100 119> 445 17<87 105.5 315 327>
VStem: 2 79<-22 21> 2 98<13 31> 156 110<16 398>
Fore
327 445 m 1
 279 441 266 434 266 382 c 2
 266 84 l 2
 266 -15 215 -66 117 -66 c 0
 68 -66 2 -38 2 21 c 0
 2 49 21 74 51 74 c 0
 78 74 100 49 100 23 c 0
 100 -3 81 -3 81 -22 c 0
 81 -38 98 -43 111 -43 c 0
 150 -43 156 -15 156 16 c 2
 156 396 l 2
 156 443 124 443 87 445 c 1
 87 462 l 1
 327 462 l 1
 327 445 l 1
EndSplineSet
Back
266.113 422.852 m 1
 233.398 422.852 214.844 415.527 210.938 400.879 c 0
 208.984 394.531 208.008 384.766 208.008 373.047 c 2
 208.008 128.906 l 2
 208.008 88.8672 199.219 56.6406 181.152 32.2266 c 0
 160.156 5.37109 129.883 -7.8125 88.8672 -7.8125 c 0
 70.3125 -7.8125 55.1758 -4.39453 42.9688 2.92969 c 0
 24.9023 13.6719 16.1133 28.3203 16.1133 46.875 c 0
 16.1133 56.1523 19.5312 65.4297 26.8555 75.1953 c 0
 34.1797 84.4727 43.457 88.8672 55.1758 88.8672 c 0
 70.8008 88.8672 82.5195 83.9844 89.3555 73.7305 c 0
 96.6797 62.9883 100.098 52.2461 100.098 41.0156 c 0
 100.098 37.1094 100.586 34.668 102.051 34.1797 c 0
 103.516 33.2031 104.492 33.2031 105.957 33.2031 c 0
 115.234 33.2031 120.117 44.4336 120.117 67.8711 c 2
 120.117 373.047 l 2
 120.117 394.531 116.211 408.203 107.91 414.062 c 0
 100.098 419.922 84.4727 422.852 61.0352 422.852 c 1
 61.0352 453.125 l 1
 266.113 453.125 l 1
 266.113 422.852 l 1
EndSplineSet
EndChar
StartChar: K
Encoding: 75 75 44
Width: 531
Flags: W
HStem: 0 17<20 32 242.25 251 296 326.297 511 525> 445 17<20 32 239.25 251 305 322 487.667 503>
VStem: 80 111<52.6993 199 66 401>
Fore
525 0 m 1
 296 0 l 1
 296 17 l 1
 305 17 350 15 350 31 c 0
 350 53 226 195 209 216 c 1
 191 199 l 1
 191 66 l 2
 191 24 216 21 251 17 c 1
 251 0 l 1
 20 0 l 1
 20 17 l 1
 56 20 80 23 80 66 c 2
 80 396 l 2
 80 438 56 442 20 445 c 1
 20 462 l 1
 251 462 l 1
 251 445 l 1
 204 441 191 433 191 382 c 2
 191 236 l 1
 339 384 l 2
 349 395 363 406 363 422 c 0
 363 446 322 444 305 445 c 1
 305 462 l 1
 503 462 l 1
 503 445 l 1
 411 439 343 350 283 290 c 1
 492 31 l 2
 500 20 511 18 525 17 c 1
 525 0 l 1
EndSplineSet
Back
508.789 0 m 1
 288.086 0 l 1
 288.086 29.7852 l 1
 302.734 29.7852 313.477 30.2734 319.824 30.7617 c 0
 326.66 31.7383 331.055 33.2031 333.008 36.1328 c 0
 333.496 36.6211 333.984 38.5742 333.984 41.0156 c 0
 333.984 44.9219 332.031 49.8047 328.125 55.6641 c 0
 324.219 61.0352 319.336 66.8945 313.965 73.2422 c 2
 187.988 205.078 l 1
 181.152 198.242 l 1
 181.152 80.0781 l 2
 181.152 70.8008 181.641 62.5 182.617 55.6641 c 0
 183.594 48.3398 185.547 43.457 188.965 40.0391 c 0
 194.336 34.668 202.148 31.7383 211.914 30.7617 c 0
 222.168 30.2734 230.957 29.7852 238.77 29.7852 c 1
 238.77 0 l 1
 29.7852 0 l 1
 29.7852 29.7852 l 1
 57.1289 29.7852 75.1953 34.1797 83.9844 42.9688 c 0
 85.9375 44.9219 87.4023 49.8047 87.8906 58.1055 c 0
 88.8672 65.918 88.8672 76.1719 88.8672 87.8906 c 2
 88.8672 372.07 l 2
 88.8672 392.09 84.9609 405.273 77.1484 412.598 c 0
 68.8477 419.434 53.2227 422.852 29.7852 422.852 c 1
 29.7852 453.125 l 1
 241.211 453.125 l 1
 241.211 422.852 l 1
 229.492 422.852 219.238 422.363 208.984 420.41 c 0
 199.219 418.945 191.895 416.016 187.988 412.109 c 0
 184.57 408.691 182.617 403.809 182.129 396.973 c 0
 181.152 390.137 181.152 381.836 181.152 372.07 c 2
 181.152 259.766 l 1
 304.199 372.07 l 2
 321.289 388.672 330.078 401.855 330.078 411.133 c 0
 330.078 418.945 314.453 422.852 284.18 422.852 c 1
 284.18 453.125 l 1
 477.051 453.125 l 1
 477.051 422.852 l 1
 467.773 422.852 458.984 422.852 450.684 421.875 c 0
 442.383 421.387 433.594 418.945 424.805 415.039 c 0
 417.48 411.621 410.156 406.738 402.344 399.902 c 0
 395.02 393.555 385.742 384.766 375 374.023 c 2
 255.859 256.836 l 1
 450.195 47.8516 l 2
 455.566 42.4805 463.379 38.5742 474.609 35.1562 c 0
 485.352 31.7383 497.07 29.7852 508.789 29.7852 c 1
 508.789 0 l 1
EndSplineSet
EndChar
StartChar: L
Encoding: 76 76 45
Width: 455
Flags: W
HStem: 0 17<13 21.75> 0 21<220 408> 445 17<13 24.6667 234 251>
VStem: 72 110<57 401>
Fore
436 155 m 1
 408 0 l 1
 13 0 l 1
 13 17 l 1
 48 21 72 23 72 66 c 2
 72 396 l 2
 72 438 48 442 13 445 c 1
 13 462 l 1
 251 462 l 1
 251 445 l 1
 200 442 182 439 182 382 c 2
 182 59 l 2
 182 20 211 21 243 21 c 0
 341 21 382 71 416 155 c 1
 436 155 l 1
EndSplineSet
Back
436.035 131.836 m 1
 399.902 0 l 1
 25.8789 0 l 1
 25.8789 29.7852 l 1
 47.8516 29.7852 62.9883 33.6914 70.3125 40.5273 c 0
 78.125 47.3633 82.0312 60.5469 82.0312 80.0781 c 2
 82.0312 373.047 l 2
 82.0312 383.789 81.543 393.066 80.0781 400.391 c 0
 78.6133 408.203 76.1719 412.598 73.2422 414.062 c 2
 25.8789 423.828 l 1
 25.8789 453.125 l 1
 234.863 453.125 l 1
 234.863 423.828 l 1
 196.777 419.922 l 2
 192.383 419.434 187.988 417.48 184.082 414.062 c 0
 177.246 408.203 173.828 394.531 173.828 373.047 c 2
 173.828 62.0117 l 2
 173.828 58.1055 174.316 55.1758 174.805 53.7109 c 0
 175.781 51.7578 177.246 49.8047 180.176 46.875 c 0
 181.152 45.8984 185.059 44.4336 191.406 43.457 c 0
 197.754 42.4805 203.613 41.9922 208.984 41.9922 c 2
 229.004 41.9922 l 2
 256.836 41.9922 279.297 42.9688 296.387 44.9219 c 0
 313.477 46.875 326.172 49.8047 333.984 54.1992 c 0
 345.215 59.5703 356.445 68.3594 367.188 81.0547 c 0
 377.441 93.75 387.695 110.84 396.973 131.836 c 1
 436.035 131.836 l 1
EndSplineSet
EndChar
StartChar: M
Encoding: 77 77 46
Width: 644
Flags: W
HStem: 0 17<10 20.75 152 169 402 415 621 629> 402 60<11 102> 445 17<11 23.3333 617.25 629>
VStem: 72 28<66 401> 463 106<63 403>
DStem: 102 402 184 462 272 0 320 139 457 462 462 412 320 139 291 0
Fore
629 0 m 1
 402 0 l 1
 402 17 l 1
 441 20 463 23 463 68 c 2
 463 412 l 1
 462 412 l 1
 291 0 l 1
 272 0 l 1
 102 402 l 1
 100 402 l 1
 100 85 l 2
 100 32 118 20 169 17 c 1
 169 0 l 1
 10 0 l 1
 10 17 l 1
 53 21 72 25 72 72 c 2
 72 396 l 2
 72 438 48 442 11 445 c 1
 11 462 l 1
 184 462 l 1
 320 139 l 1
 457 462 l 1
 629 462 l 1
 629 445 l 1
 582 441 569 433 569 382 c 2
 569 80 l 2
 569 28 581 23 629 17 c 1
 629 0 l 1
EndSplineSet
Back
618.164 0 m 1
 409.18 0 l 1
 409.18 29.7852 l 1
 422.852 29.7852 434.57 30.7617 443.359 32.7148 c 0
 452.637 34.1797 458.496 37.1094 461.914 41.0156 c 0
 466.797 47.8516 469.238 63.4766 469.238 87.8906 c 2
 469.238 336.914 l 1
 316.895 0 l 1
 293.945 0 l 1
 145.02 324.219 l 1
 145.02 104.98 l 2
 145.02 75.6836 147.461 56.1523 151.855 46.875 c 0
 158.691 35.6445 176.758 29.7852 207.031 29.7852 c 1
 207.031 0 l 1
 26.8555 0 l 1
 26.8555 29.7852 l 1
 58.1055 29.7852 76.1719 34.668 81.0547 43.9453 c 0
 87.8906 54.6875 90.8203 75.1953 90.8203 104.98 c 2
 90.8203 371.094 l 2
 90.8203 392.09 87.8906 406.25 81.0547 413.086 c 0
 79.5898 414.551 77.6367 415.527 75.1953 416.016 c 0
 72.2656 416.504 69.8242 417.48 66.8945 417.969 c 2
 28.8086 422.852 l 1
 28.8086 452.148 l 1
 180.176 452.148 l 1
 324.219 134.766 l 1
 462.891 452.148 l 1
 618.164 452.148 l 1
 618.164 421.875 l 1
 595.215 421.875 580.078 418.457 572.266 411.133 c 0
 564.941 403.809 561.035 390.137 561.035 371.094 c 2
 561.035 80.0781 l 2
 561.035 53.2227 568.359 37.5977 583.008 33.2031 c 1
 618.164 28.8086 l 1
 618.164 0 l 1
EndSplineSet
EndChar
StartChar: N
Encoding: 78 78 47
Width: 492
Flags: W
HStem: -12 21G<406 425> 0 17<11 19 157.833 166> 445 17<13 13 332 344.25 470.8 479>
VStem: 71 30<67 357> 395 30<170 397>
DStem: 102 358 157 462 406 -12 394 170
Fore
479 445 m 1
 438 440 425 431 425 390 c 2
 425 -12 l 1
 406 -12 l 1
 102 358 l 1
 101 358 l 1
 101 85 l 2
 101 34 117 23 166 17 c 1
 166 0 l 1
 11 0 l 1
 11 17 l 1
 51 22 71 27 71 72 c 2
 71 395 l 1
 60 408 33 445 13 445 c 1
 13 462 l 1
 157 462 l 1
 394 170 l 1
 395 170 l 1
 395 377 l 2
 395 425 381 441 332 445 c 1
 332 462 l 1
 479 462 l 1
 479 445 l 1
EndSplineSet
Back
511.23 422.852 m 1
 497.07 422.852 485.352 421.387 476.074 417.48 c 0
 466.797 414.062 460.449 409.18 457.031 403.809 c 0
 450.195 393.555 446.777 374.512 446.777 347.168 c 2
 446.777 -5.85938 l 1
 416.016 -5.85938 l 1
 142.09 335.938 l 1
 142.09 105.957 l 2
 142.09 76.1719 144.531 56.1523 148.926 46.875 c 0
 154.785 35.6445 172.852 29.7852 203.125 29.7852 c 1
 203.125 0 l 1
 23.9258 0 l 1
 23.9258 29.7852 l 1
 54.6875 29.7852 73.2422 36.1328 80.0781 47.8516 c 0
 85.4492 56.1523 87.8906 75.1953 87.8906 105.957 c 2
 87.8906 394.043 l 1
 71.7773 413.574 50.7812 422.852 23.9258 422.852 c 1
 23.9258 453.125 l 1
 157.227 453.125 l 1
 393.066 154.785 l 1
 393.066 347.168 l 2
 393.066 362.305 393.066 374.512 392.578 383.789 c 0
 392.09 393.555 390.625 400.391 388.184 404.785 c 0
 380.859 416.992 361.816 422.852 331.055 422.852 c 1
 331.055 453.125 l 1
 511.23 453.125 l 1
 511.23 422.852 l 1
EndSplineSet
EndChar
StartChar: O
Encoding: 79 79 48
Width: 531
Flags: W
HStem: -13 23<250.3 281> 449 23<251.174 281>
VStem: 24 121<229 244> 386 121<229 244>
Fore
507 229 m 0
 507 88 407 -13 266 -13 c 4
 124 -13 24 88 24 229 c 0
 24 370 125 472 266 472 c 0
 406 472 507 370 507 229 c 0
386 229 m 0
 386 307 370 449 266 449 c 0
 161 449 145 307 145 229 c 0
 145 148 156 10 266 10 c 0
 375 10 386 148 386 229 c 0
EndSplineSet
Back
25.8789 226.074 m 0
 25.8789 193.359 31.7383 162.598 43.457 134.277 c 0
 55.1758 105.957 70.8008 81.543 90.8203 60.5469 c 0
 110.84 39.5508 134.766 22.9492 162.109 10.7422 c 0
 189.453 -1.95312 218.262 -7.8125 249.023 -7.8125 c 0
 280.273 -7.8125 309.57 -1.95312 336.426 10.7422 c 0
 363.281 22.9492 387.207 39.5508 407.715 60.5469 c 0
 427.734 81.543 443.848 105.957 455.566 134.277 c 0
 467.285 162.598 473.145 193.359 473.145 226.074 c 0
 473.145 258.789 467.285 289.062 455.566 317.383 c 0
 443.848 345.703 427.734 370.605 407.715 392.09 c 0
 387.207 413.574 363.281 430.176 336.426 442.383 c 0
 309.57 454.59 280.273 460.938 249.023 460.938 c 0
 218.262 460.938 189.453 454.59 162.109 442.383 c 0
 134.766 430.176 110.84 413.574 90.8203 392.09 c 0
 70.8008 370.605 55.1758 345.703 43.457 317.383 c 0
 31.7383 289.062 25.8789 258.789 25.8789 226.074 c 0
123.047 226.074 m 0
 123.047 252.441 126.465 277.344 132.812 300.293 c 0
 139.648 323.73 148.438 343.262 160.156 360.352 c 0
 171.387 377.441 184.57 391.113 200.195 400.879 c 0
 215.332 411.133 231.934 416.016 250 416.016 c 0
 267.09 416.016 283.691 411.133 298.828 400.879 c 0
 314.453 391.113 327.637 377.441 338.867 360.352 c 0
 350.098 343.262 359.375 323.73 366.211 300.293 c 0
 372.559 277.344 375.977 252.441 375.977 226.074 c 0
 375.977 199.219 372.559 174.316 366.211 150.879 c 0
 359.375 127.441 350.098 107.422 338.867 90.332 c 0
 327.637 73.7305 314.453 60.0586 298.828 49.8047 c 0
 283.691 40.0391 267.09 35.1562 250 35.1562 c 0
 231.934 35.1562 215.332 40.0391 200.195 49.8047 c 0
 184.57 60.0586 171.387 73.7305 160.156 90.332 c 0
 148.438 107.422 139.648 127.441 132.812 150.879 c 0
 126.465 174.316 123.047 199.219 123.047 226.074 c 0
EndSplineSet
EndChar
StartChar: P
Encoding: 80 80 49
Width: 417
Flags: W
HStem: 0 17<230.833 239> 207 24<179 214> 438 24<11 220> 445 17<11 20.2>
VStem: 68 111<80 207 80 414> 292 118<319 353>
Fore
410 336 m 0
 410 209 269 208 179 207 c 1
 179 80 l 2
 179 27 190 23 239 17 c 1
 239 0 l 1
 11 0 l 1
 11 17 l 1
 56 25 68 27 68 80 c 2
 68 382 l 2
 68 430 57 440 11 445 c 1
 11 462 l 1
 231 462 l 2
 313 462 410 437 410 336 c 0
292 334 m 0
 292 395 280 438 212 438 c 0
 195 438 179 433 179 414 c 2
 179 231 l 1
 186 231 l 2
 265 230 292 254 292 334 c 0
EndSplineSet
Back
296.875 325.195 m 0
 296.875 353.516 288.086 375.488 270.508 390.137 c 0
 252.93 404.785 224.609 412.109 186.035 412.109 c 0
 179.199 412.109 174.805 411.133 172.363 409.668 c 0
 170.41 407.715 168.945 403.809 168.945 397.949 c 2
 168.945 234.863 l 1
 171.875 234.375 175.781 233.887 181.152 233.887 c 2
 199.219 233.887 l 2
 264.16 233.887 296.875 264.16 296.875 325.195 c 0
393.066 326.172 m 0
 393.066 301.758 387.207 280.762 375.488 262.695 c 0
 363.77 244.141 347.656 229.004 327.148 216.797 c 0
 311.035 207.52 292.969 200.684 272.461 196.289 c 0
 251.953 192.383 229.492 189.941 204.102 189.941 c 2
 168.945 189.941 l 1
 168.945 80.0781 l 2
 168.945 60.0586 173.828 46.875 183.105 40.0391 c 0
 192.383 33.2031 208.496 29.7852 230.957 29.7852 c 1
 230.957 0 l 1
 24.9023 0 l 1
 24.9023 29.7852 l 1
 37.5977 29.7852 48.3398 30.7617 56.6406 32.7148 c 0
 64.9414 34.1797 70.3125 36.6211 73.2422 40.0391 c 0
 76.1719 43.9453 78.125 49.8047 79.1016 57.6172 c 0
 79.5898 64.9414 80.0781 75.1953 80.0781 87.8906 c 2
 80.0781 373.047 l 2
 80.0781 393.066 76.6602 406.25 69.3359 413.086 c 0
 62.5 419.434 47.8516 422.852 24.9023 422.852 c 1
 24.9023 453.125 l 1
 210.938 453.125 l 2
 256.348 453.125 295.898 444.824 329.102 428.223 c 0
 371.582 405.273 393.066 371.094 393.066 326.172 c 0
EndSplineSet
EndChar
StartChar: Q
Encoding: 81 81 50
Width: 531
Flags: W
HStem: -120 32<376 453> 449 23<251.174 281>
VStem: 24 121<199 233> 386 121<229 249>
Fore
507 229 m 0
 507 118 445 25 335 -4 c 1
 355 -53 398 -88 453 -88 c 0
 468 -88 483 -85 498 -80 c 1
 503 -96 l 1
 460 -112 422 -120 376 -120 c 0
 296 -120 218 -77 186 -1 c 1
 89 28 24 119 24 221 c 0
 24 364 119 472 266 472 c 0
 406 472 507 370 507 229 c 0
386 229 m 0
 386 307 370 449 266 449 c 0
 161 449 145 307 145 229 c 0
 145 148 156 10 266 10 c 0
 375 10 386 148 386 229 c 0
EndSplineSet
Back
16.1133 227.051 m 0
 16.1133 200.195 20.0195 174.805 27.3438 150.879 c 0
 35.1562 126.953 45.8984 104.98 59.5703 85.4492 c 0
 73.2422 65.918 89.3555 48.8281 107.91 34.668 c 0
 126.465 20.0195 147.461 8.78906 169.922 0.976562 c 1
 189.941 -27.832 l 1
 211.426 -53.2227 237.793 -72.7539 269.531 -86.4258 c 0
 301.27 -100.098 337.891 -106.934 378.906 -106.934 c 2
 438.965 -106.934 l 1
 438.965 -77.1484 l 1
 426.758 -77.1484 414.551 -76.1719 400.879 -74.707 c 0
 387.695 -72.7539 374.512 -69.3359 360.84 -63.9648 c 0
 347.656 -58.5938 334.473 -51.2695 321.289 -41.5039 c 0
 308.594 -31.7383 296.875 -19.5312 287.109 -3.90625 c 1
 312.5 1.95312 335.449 12.207 356.934 25.8789 c 0
 378.418 40.0391 396.484 57.1289 412.109 77.6367 c 0
 427.246 97.6562 439.453 120.605 448.73 145.996 c 0
 457.52 171.387 461.914 198.242 461.914 227.051 c 0
 461.914 259.766 456.055 290.527 444.336 318.848 c 0
 432.617 347.656 416.992 373.047 396.484 394.531 c 0
 375.977 416.016 352.539 433.105 325.684 445.312 c 0
 298.34 458.008 269.531 463.867 238.77 463.867 c 0
 208.496 463.867 179.688 458.008 152.344 445.312 c 0
 125.488 433.105 102.051 416.016 81.543 394.531 c 0
 61.0352 373.047 45.4102 347.656 33.6914 318.848 c 0
 21.9727 290.527 16.1133 259.766 16.1133 227.051 c 0
115.234 226.074 m 0
 115.234 251.953 118.164 276.367 124.512 299.316 c 0
 130.859 322.266 139.648 342.285 150.879 359.375 c 0
 162.109 376.465 175.781 390.137 190.918 399.902 c 0
 206.543 410.156 222.656 415.039 240.234 415.039 c 0
 257.324 415.039 273.438 410.156 288.574 399.902 c 0
 303.711 390.137 316.895 376.465 328.125 359.375 c 0
 339.355 342.285 348.145 322.266 354.492 299.316 c 0
 360.84 276.367 363.77 251.953 363.77 226.074 c 0
 363.77 200.195 360.84 175.293 354.492 152.344 c 0
 348.145 129.395 339.355 109.375 328.125 92.2852 c 0
 316.895 75.6836 303.711 62.0117 288.574 51.7578 c 0
 273.438 41.9922 257.324 37.1094 240.234 37.1094 c 0
 222.656 37.1094 206.543 41.9922 190.918 51.7578 c 0
 175.781 62.0117 162.109 75.6836 150.879 92.2852 c 0
 139.648 109.375 130.859 129.395 124.512 152.344 c 0
 118.164 175.293 115.234 200.195 115.234 226.074 c 0
EndSplineSet
EndChar
StartChar: R
Encoding: 82 82 51
Width: 492
Flags: W
HStem: 0 17<18 26.1667 241 249 477 488> 214 22<188 207> 438 24<18 243> 445 17<18 34>
VStem: 78 110<80 214 80 410> 313 117<335 353>
DStem: 207 214 323 225 348 0 460 30
Fore
488 0 m 1
 348 0 l 1
 207 214 l 1
 188 214 l 1
 188 80 l 2
 188 28 201 23 249 17 c 1
 249 0 l 1
 18 0 l 1
 18 17 l 1
 67 23 78 27 78 80 c 2
 78 382 l 2
 78 433 66 442 18 445 c 1
 18 462 l 1
 238 462 l 2
 317 462 430 443 430 341 c 0
 430 270 383 243 323 225 c 1
 460 30 l 2
 467 20 477 16 488 17 c 1
 488 0 l 1
313 340 m 0
 313 398 294 438 231 438 c 0
 208 438 188 437 188 410 c 2
 188 236 l 1
 272 236 313 247 313 340 c 0
EndSplineSet
Back
301.758 331.055 m 0
 301.758 357.91 293.457 377.93 276.367 391.602 c 0
 259.277 405.273 235.352 412.109 204.102 412.109 c 0
 188.477 412.109 180.176 411.133 178.223 410.156 c 0
 174.805 408.203 172.852 403.32 172.852 395.996 c 2
 172.852 243.164 l 1
 191.895 243.164 207.031 244.141 219.727 246.582 c 0
 231.934 249.023 243.164 251.953 252.93 255.859 c 0
 285.645 269.531 301.758 294.434 301.758 331.055 c 0
470.215 0 m 1
 345.215 0 l 1
 188.965 202.148 l 1
 172.852 201.172 l 1
 172.852 80.0781 l 2
 172.852 60.5469 176.758 47.3633 185.059 40.5273 c 0
 192.871 33.6914 208.496 29.7852 230.957 29.7852 c 1
 230.957 0 l 1
 25.8789 0 l 1
 25.8789 29.7852 l 1
 39.5508 29.7852 50.293 31.25 58.5938 33.6914 c 0
 66.8945 35.6445 72.2656 38.5742 75.1953 41.0156 c 0
 79.1016 44.9219 81.0547 60.5469 81.0547 87.8906 c 2
 81.0547 373.047 l 2
 81.0547 382.812 80.5664 391.602 79.5898 398.438 c 0
 78.6133 405.273 76.6602 410.156 74.2188 413.086 c 0
 67.3828 419.434 51.2695 422.852 25.8789 422.852 c 1
 25.8789 453.125 l 1
 221.191 453.125 l 2
 338.867 453.125 397.949 412.109 397.949 330.078 c 0
 397.949 271.484 360.352 232.422 285.156 212.891 c 1
 411.133 58.1055 l 2
 418.945 47.8516 427.734 41.0156 437.012 36.6211 c 0
 446.289 32.2266 457.52 29.7852 470.215 29.7852 c 1
 470.215 0 l 1
EndSplineSet
EndChar
StartChar: S
Encoding: 83 83 52
Width: 379
Flags: W
HStem: -13 23<167 186> 324 21G<311 330> 449 2<178 287> 451 21<167 187>
VStem: 30 74<337 386> 269 81<86 130>
Fore
350 130 m 0
 350 35 268 -13 181 -13 c 0
 132 -13 89 10 64 10 c 0
 51 10 45 -2 44 -13 c 1
 24 -13 l 1
 24 156 l 1
 44 156 l 1
 58 83 100 10 184 10 c 0
 231 10 269 37 269 86 c 0
 269 195 30 172 30 337 c 0
 30 426 96 472 181 472 c 0
 223 472 262 449 287 449 c 0
 302 449 308 460 310 472 c 1
 330 472 l 1
 330 324 l 1
 311 324 l 1
 295 387 249 451 178 451 c 0
 139 451 104 427 104 386 c 0
 104 271 350 303 350 130 c 0
EndSplineSet
Back
336.914 118.164 m 0
 336.914 80.5664 321.289 49.3164 290.039 23.9258 c 0
 275.879 14.1602 260.254 6.34766 242.676 0.976562 c 0
 224.609 -4.39453 206.543 -6.83594 187.012 -6.83594 c 0
 179.688 -6.83594 171.387 -6.34766 161.621 -4.88281 c 0
 151.855 -3.90625 141.113 -1.46484 129.883 1.95312 c 0
 108.887 9.27734 94.2383 13.1836 86.9141 13.1836 c 0
 80.5664 13.1836 77.1484 6.34766 77.1484 -6.83594 c 1
 43.9453 -6.83594 l 1
 23.9258 146.973 l 1
 54.1992 146.973 l 1
 69.8242 107.91 87.4023 78.6133 105.957 59.5703 c 0
 124.512 40.5273 147.461 30.7617 173.828 30.7617 c 0
 192.871 30.7617 208.496 37.1094 222.168 49.3164 c 0
 235.352 62.0117 242.188 77.1484 242.188 96.1914 c 0
 242.188 120.117 231.445 141.602 209.961 161.133 c 0
 205.566 165.039 197.266 170.898 186.523 178.223 c 0
 175.293 185.547 161.133 193.848 144.043 204.102 c 0
 109.863 224.609 85.9375 242.188 71.7773 255.859 c 0
 49.3164 279.297 38.0859 307.617 38.0859 340.82 c 0
 38.0859 358.887 41.5039 375.488 47.8516 390.137 c 0
 54.6875 404.785 63.9648 417.48 76.1719 428.223 c 0
 87.8906 438.477 102.051 446.777 117.676 452.637 c 0
 133.301 458.008 149.902 460.938 167.969 460.938 c 0
 174.805 460.938 182.617 459.961 191.406 458.496 c 0
 200.684 457.031 211.426 454.102 225.098 450.195 c 2
 259.766 438.965 l 1
 264.648 440.918 268.555 448.242 271.973 460.938 c 1
 303.223 460.938 l 1
 317.871 304.199 l 1
 285.156 304.199 l 1
 280.762 321.289 275.879 336.426 269.531 350.098 c 0
 263.184 363.281 254.883 375.488 245.117 386.23 c 0
 224.121 406.738 200.195 416.992 172.852 416.992 c 0
 157.715 416.992 145.508 412.109 137.207 402.344 c 0
 128.418 393.066 124.023 379.883 124.023 363.77 c 0
 124.023 340.82 140.625 317.871 173.828 294.922 c 2
 276.855 227.051 l 2
 316.895 200.195 336.914 164.062 336.914 118.164 c 0
EndSplineSet
EndChar
StartChar: T
Encoding: 84 84 53
Width: 455
Flags: W
HStem: 0 17<107 119.5 333 350> 324 21G<21 41 414 434> 442 20G<23 433>
VStem: 173 110<80 440>
Fore
434 324 m 1
 414 324 l 1
 404 410 363 436 283 440 c 1
 283 80 l 2
 283 23 299 20 350 17 c 1
 350 0 l 1
 107 0 l 1
 107 17 l 1
 157 21 173 24 173 80 c 2
 173 440 l 1
 93 436 52 410 41 324 c 1
 21 324 l 1
 23 462 l 1
 433 462 l 1
 434 324 l 1
EndSplineSet
Back
416.992 324.219 m 1
 379.883 324.219 l 1
 372.559 361.816 363.281 384.766 352.051 393.066 c 0
 344.727 397.461 336.426 401.367 327.148 404.297 c 0
 317.871 407.715 305.176 409.18 289.062 409.18 c 2
 263.184 409.18 l 1
 263.184 80.0781 l 2
 263.184 60.0586 266.602 46.875 274.414 40.0391 c 0
 282.227 33.2031 297.852 29.7852 321.777 29.7852 c 1
 321.777 0 l 1
 112.793 0 l 1
 112.793 29.7852 l 1
 128.418 29.7852 139.648 31.25 146.973 33.6914 c 0
 154.297 35.6445 160.156 38.5742 164.062 41.9922 c 1
 163.086 41.9922 l 1
 168.457 47.3633 170.898 62.5 170.898 87.8906 c 2
 170.898 409.18 l 1
 145.996 409.18 l 2
 129.395 409.18 116.211 407.715 105.957 405.273 c 0
 96.1914 403.32 87.8906 399.414 82.0312 394.043 c 0
 70.8008 385.254 61.0352 361.816 53.2227 324.219 c 1
 17.0898 324.219 l 1
 21.9727 453.125 l 1
 412.109 453.125 l 1
 416.992 324.219 l 1
EndSplineSet
EndChar
StartChar: U
Encoding: 85 85 54
Width: 492
Flags: W
HStem: -13 33<253 276> 445 17<11 20.2 225 242 328 345>
VStem: 67 108<130 388> 395 30<169 388>
Fore
479 445 m 1
 439 439 425 429 425 386 c 2
 425 169 l 2
 425 54 372 -13 253 -13 c 0
 140 -13 67 36 67 154 c 2
 67 382 l 2
 67 431 57 440 11 445 c 1
 11 462 l 1
 242 462 l 1
 242 445 l 1
 191 442 175 438 175 382 c 2
 175 148 l 2
 175 81 195 20 274 20 c 0
 371 20 395 85 395 169 c 2
 395 377 l 2
 395 427 379 442 328 445 c 1
 328 462 l 1
 479 462 l 1
 479 445 l 1
EndSplineSet
Back
501.953 423.828 m 1
 470.703 421.875 452.637 415.527 448.242 404.785 c 0
 443.359 395.508 440.918 376.465 440.918 347.168 c 2
 440.918 175.781 l 2
 440.918 152.832 438.965 131.348 435.547 112.305 c 0
 431.641 93.2617 426.27 77.1484 418.945 63.9648 c 0
 404.785 40.0391 384.277 21.9727 356.445 9.76562 c 0
 328.613 -1.95312 295.41 -7.8125 255.859 -7.8125 c 0
 198.242 -7.8125 153.809 6.34766 124.023 35.6445 c 0
 94.2383 64.4531 79.1016 108.398 79.1016 166.992 c 2
 79.1016 373.047 l 2
 79.1016 393.066 74.707 406.25 66.4062 413.086 c 0
 58.1055 419.434 42.4805 422.852 19.043 422.852 c 1
 19.043 453.125 l 1
 229.98 453.125 l 1
 229.98 422.852 l 1
 206.055 422.852 189.941 419.922 181.641 414.062 c 0
 173.34 408.203 168.945 394.531 168.945 373.047 c 2
 168.945 162.109 l 2
 168.945 78.6133 204.102 37.1094 274.902 37.1094 c 0
 320.801 37.1094 354.492 53.2227 375 84.9609 c 0
 383.789 98.1445 388.184 126.465 388.184 168.945 c 2
 388.184 347.168 l 2
 388.184 377.441 385.254 396.484 379.883 403.809 c 0
 371.094 416.504 353.516 422.852 326.172 422.852 c 1
 326.172 453.125 l 1
 501.953 453.125 l 1
 501.953 423.828 l 1
EndSplineSet
EndChar
StartChar: V
Encoding: 86 86 55
Width: 492
Flags: W
HStem: -12 21G<243 262> 445 17<228.5 240 333 344.5 471 479>
DStem: 68 397 202 357 243 -12 292 141 378 366 417 389 292 141 262 -12
Fore
479 445 m 1
 439 440 431 423 417 389 c 2
 262 -12 l 1
 243 -12 l 1
 68 397 l 2
 54 431 47 439 11 445 c 1
 11 462 l 1
 240 462 l 1
 240 445 l 1
 217 443 182 447 182 416 c 0
 182 401 196 371 202 357 c 2
 292 141 l 1
 378 366 l 2
 384 380 392 397 392 413 c 0
 392 445 356 443 333 445 c 1
 333 462 l 1
 479 462 l 1
 479 445 l 1
EndSplineSet
Back
485.84 423.828 m 1
 473.145 423.828 464.844 422.852 460.938 420.898 c 0
 452.148 417.48 446.289 413.574 442.871 409.18 c 0
 439.453 404.297 437.5 400.391 436.035 396.973 c 2
 276.855 -5.85938 l 1
 244.141 -5.85938 l 1
 79.1016 359.863 l 1
 73.7305 373.535 68.3594 384.766 62.9883 394.043 c 0
 57.6172 403.32 53.2227 409.668 49.8047 413.086 c 0
 43.9453 418.457 37.5977 421.387 30.7617 422.363 c 0
 24.4141 423.34 17.0898 423.828 8.78906 423.828 c 1
 8.78906 453.125 l 1
 208.008 453.125 l 1
 208.008 423.828 l 1
 184.082 423.828 168.457 421.875 162.109 417.969 c 0
 160.645 417.48 159.668 416.016 159.668 414.062 c 0
 159.18 412.109 159.18 410.156 159.18 408.203 c 0
 159.18 405.273 161.133 398.438 166.016 387.695 c 0
 170.898 376.465 177.246 361.328 186.035 341.797 c 2
 274.902 140.137 l 1
 362.793 360.84 l 2
 365.723 367.676 368.164 374.512 370.117 380.859 c 0
 372.07 387.695 373.535 394.531 375 401.855 c 0
 375 416.504 358.887 423.828 327.148 423.828 c 1
 327.148 453.125 l 1
 485.84 453.125 l 1
 485.84 423.828 l 1
EndSplineSet
EndChar
StartChar: W
Encoding: 87 87 56
Width: 682
Flags: W
HStem: -10 21G<205 224 468 486> 445 17<203.5 214 264 283.333 467.5 477 546 556.5 661.667 670>
DStem: 60 401 175 393 205 -10 256 147 337 355 348 309 257 147 224 -10 353 309 438 381 468 -10 511 154 588 386 623 401 512 154 486 -10
Fore
670 445 m 1
 645 442 630 423 623 401 c 2
 486 -10 l 1
 468 -10 l 1
 353 309 l 1
 348 309 l 1
 224 -10 l 1
 205 -10 l 1
 60 401 l 2
 50 429 44 440 13 445 c 1
 13 462 l 1
 214 462 l 1
 214 445 l 1
 193 443 170 442 170 416 c 0
 170 408 172 401 175 393 c 1
 256 147 l 1
 257 147 l 1
 337 355 l 1
 319 407 322 442 264 445 c 1
 264 462 l 1
 477 462 l 1
 477 445 l 1
 458 443 428 445 428 419 c 0
 428 408 434 391 438 381 c 2
 511 154 l 1
 512 154 l 1
 588 386 l 1
 591 395 593 404 593 414 c 0
 593 443 567 443 546 445 c 1
 546 462 l 1
 670 462 l 1
 670 445 l 1
EndSplineSet
Back
666.016 424.805 m 1
 649.414 421.875 637.695 417.48 630.859 413.086 c 0
 624.512 408.203 618.164 400.391 612.793 389.16 c 1
 472.168 -5.85938 l 1
 439.941 -5.85938 l 1
 431.152 18.5547 418.457 53.2227 401.855 97.168 c 0
 385.254 141.113 364.746 193.359 339.844 253.906 c 1
 244.141 -5.85938 l 1
 215.82 -5.85938 l 1
 85.9375 352.051 l 1
 76.1719 380.859 68.8477 397.461 64.9414 401.855 c 0
 56.1523 414.551 40.0391 421.875 16.1133 423.828 c 1
 16.1133 453.125 l 1
 203.125 453.125 l 1
 203.125 422.852 l 1
 195.801 422.852 189.941 422.852 186.523 422.363 c 0
 182.617 422.363 179.688 421.875 176.758 420.898 c 0
 172.363 420.41 166.992 418.457 161.133 416.016 c 1
 161.133 410.645 161.133 405.762 161.621 400.879 c 0
 161.621 396.484 163.574 390.137 166.992 382.812 c 1
 253.906 158.203 l 1
 314.941 318.848 l 1
 294.922 370.117 l 2
 285.645 392.578 278.32 406.738 272.949 412.109 c 0
 265.625 419.434 250 422.852 226.074 422.852 c 1
 226.074 453.125 l 1
 428.223 453.125 l 1
 428.223 422.852 l 1
 394.531 422.852 377.441 417.969 375.977 408.203 c 1
 378.906 395.02 l 1
 472.168 157.227 l 1
 546.875 356.934 l 2
 550.293 366.211 552.734 374.512 554.199 381.836 c 0
 555.176 389.16 556.152 395.996 556.152 401.855 c 0
 556.152 410.645 553.223 416.504 547.852 418.945 c 1
 511.23 423.828 l 1
 511.23 453.125 l 1
 666.016 453.125 l 1
 666.016 424.805 l 1
EndSplineSet
EndChar
StartChar: X
Encoding: 88 88 57
Width: 492
Flags: W
HStem: 0 17<163 182 245 260 460.5 477> 445 17<12 26 239.5 248 299 307.5 459.5 470>
Fore
477 0 m 1
 245 0 l 1
 245 17 l 1
 260 18 300 16 300 39 c 0
 300 62 228 167 216 185 c 1
 201 165 126 72 126 46 c 0
 126 20 163 18 182 17 c 1
 182 0 l 1
 11 0 l 1
 11 17 l 1
 42 22 61 29 82 55 c 2
 201 206 l 1
 66 405 l 2
 52 426 40 443 12 445 c 1
 12 462 l 1
 248 462 l 1
 248 445 l 1
 231 443 194 447 194 422 c 0
 194 403 257 314 270 294 c 1
 287 317 348 391 348 421 c 0
 348 445 316 443 299 445 c 1
 299 462 l 1
 470 462 l 1
 470 445 l 1
 407 439 383 401 347 353 c 0
 326 325 307 297 287 269 c 1
 411 76 l 2
 427 51 444 19 477 17 c 1
 477 0 l 1
EndSplineSet
Back
511.23 0 m 1
 291.016 0 l 1
 291.016 28.8086 l 1
 310.547 30.2734 323.73 32.7148 331.055 36.1328 c 0
 338.379 39.5508 341.797 42.4805 341.797 44.9219 c 0
 341.797 50.293 339.844 56.6406 334.961 64.4531 c 0
 330.566 72.2656 323.242 83.4961 312.988 98.1445 c 2
 258.789 181.152 l 1
 188.965 95.2148 l 2
 168.457 68.3594 158.203 51.7578 158.203 44.9219 c 0
 158.203 35.1562 174.316 29.7852 207.031 29.7852 c 1
 207.031 0 l 1
 29.7852 0 l 1
 29.7852 28.8086 l 1
 40.5273 30.2734 49.8047 31.7383 58.1055 33.2031 c 0
 65.918 34.1797 71.7773 37.1094 75.1953 41.0156 c 2
 100.098 67.8711 l 1
 99.1211 67.8711 l 1
 226.074 224.121 l 1
 158.203 324.219 l 2
 126.465 371.094 104.004 399.902 89.8438 410.156 c 0
 85.9375 413.574 79.5898 416.016 70.3125 417.969 c 0
 61.5234 419.922 50.293 421.875 37.1094 423.828 c 1
 37.1094 453.125 l 1
 261.23 453.125 l 1
 261.23 422.852 l 1
 249.023 422.852 238.77 422.852 230.469 422.363 c 0
 222.168 422.363 217.285 421.875 215.82 420.898 c 0
 213.867 419.434 211.914 418.457 209.473 416.992 c 0
 207.031 415.527 206.055 414.062 206.055 412.109 c 0
 206.055 405.762 211.426 395.02 222.168 379.395 c 0
 232.91 363.77 247.07 343.262 265.137 317.871 c 2
 284.18 290.039 l 1
 371.094 395.996 l 2
 374.512 400.879 375.977 405.762 375.977 411.133 c 0
 375.977 418.945 360.84 422.852 330.078 422.852 c 1
 330.078 453.125 l 1
 509.766 453.125 l 1
 509.766 422.852 l 1
 497.559 422.852 485.84 420.898 475.098 416.504 c 0
 464.355 412.109 458.008 409.18 456.055 408.203 c 0
 453.125 406.738 448.242 401.855 439.941 393.066 c 0
 432.129 384.277 423.828 375 415.039 365.234 c 2
 318.848 248.047 l 1
 436.035 75.1953 l 2
 445.312 60.5469 456.543 49.3164 469.238 41.9922 c 0
 481.445 34.668 495.605 30.2734 511.23 28.8086 c 1
 511.23 0 l 1
EndSplineSet
EndChar
StartChar: Y
Encoding: 89 89 58
Width: 492
Flags: W
HStem: 0 17<126 135.8 353 363> 445 17<10 239 327 337.5>
VStem: 190 110<80 180>
Fore
477 445 m 1
 457 442 442 436 431 418 c 2
 300 206 l 1
 300 80 l 2
 300 25 313 22 363 17 c 1
 363 0 l 1
 126 0 l 1
 126 17 l 1
 175 22 190 25 190 80 c 2
 190 180 l 1
 65 407 l 2
 53 427 35 443 10 445 c 1
 10 462 l 1
 239 462 l 1
 239 445 l 1
 219 445 184 449 184 421 c 0
 184 405 277 234 282 225 c 1
 287 234 384 380 384 414 c 0
 384 445 348 443 327 445 c 1
 327 462 l 1
 477 462 l 1
 477 445 l 1
EndSplineSet
Back
487.793 424.805 m 1
 469.238 422.363 455.566 418.457 445.801 413.086 c 0
 434.082 405.762 416.992 385.254 395.02 352.051 c 2
 299.805 207.031 l 1
 299.805 80.0781 l 2
 299.805 70.8008 300.293 62.5 301.27 55.1758 c 0
 302.734 47.8516 304.688 42.4805 308.105 39.0625 c 0
 312.012 35.1562 318.848 32.7148 328.613 31.7383 c 0
 338.379 30.2734 351.562 29.7852 368.164 29.7852 c 1
 368.164 0 l 1
 140.137 0 l 1
 140.137 29.7852 l 1
 171.875 29.7852 192.383 34.1797 201.172 41.9922 c 0
 205.078 45.8984 207.031 61.5234 207.031 87.8906 c 2
 207.031 201.172 l 1
 178.223 242.188 155.273 275.879 138.184 300.781 c 0
 120.605 326.172 106.445 346.191 96.1914 360.84 c 0
 85.4492 375.488 77.1484 386.23 71.7773 393.066 c 0
 66.8945 399.902 62.0117 404.785 58.1055 409.18 c 0
 51.7578 415.039 45.4102 418.945 38.5742 420.898 c 0
 31.7383 422.852 23.4375 423.828 14.1602 423.828 c 1
 14.1602 453.125 l 1
 221.191 453.125 l 1
 221.191 423.828 l 1
 190.43 423.828 174.805 419.922 174.805 412.109 c 0
 174.805 408.691 175.781 405.273 177.734 401.855 c 0
 179.199 398.438 181.641 394.531 185.059 389.16 c 2
 272.949 253.906 l 1
 360.84 395.02 l 2
 362.305 397.461 363.77 400.391 365.234 402.832 c 0
 366.211 405.762 367.188 408.203 367.188 411.133 c 0
 367.188 419.434 352.051 423.828 321.777 423.828 c 1
 321.777 453.125 l 1
 487.793 453.125 l 1
 487.793 424.805 l 1
EndSplineSet
EndChar
StartChar: Z
Encoding: 90 90 59
Width: 455
Flags: W
HStem: 0 23<154 415> 321 21G<40 59> 442 20G<55 412>
DStem: 280 438 412 451 19 11 154 24
Fore
433 165 m 1
 415 0 l 1
 19 0 l 1
 19 11 l 1
 280 438 l 1
 158 434 105 452 59 321 c 1
 40 321 l 1
 55 462 l 1
 412 462 l 1
 412 451 l 1
 154 24 l 1
 201 23 l 2
 321 23 384 38 415 165 c 1
 433 165 l 1
EndSplineSet
Back
437.012 132.812 m 1
 417.969 0 l 1
 26.8555 0 l 1
 26.8555 20.0195 l 1
 307.129 412.109 l 1
 176.758 412.109 l 2
 138.184 412.109 111.816 403.809 97.168 387.207 c 0
 90.332 380.371 83.4961 359.375 76.1719 324.219 c 1
 40.0391 324.219 l 1
 55.1758 453.125 l 1
 421.875 453.125 l 1
 421.875 433.105 l 1
 147.949 41.9922 l 1
 297.852 41.9922 l 2
 333.984 41.9922 359.863 50.293 375 66.8945 c 0
 378.418 71.7773 382.324 79.5898 387.695 90.332 c 0
 392.578 101.562 397.461 115.723 402.832 132.812 c 1
 437.012 132.812 l 1
EndSplineSet
EndChar
StartChar: bracketleft
Encoding: 91 91 60
Width: 227
Flags: W
HStem: -102 23<141 206> 440 23<46 206>
Fore
206 463 m 1
 206 440 l 1
 163 440 l 2
 124 440 117 433 117 393 c 2
 117 -43 l 2
 117 -65 117 -79 151 -79 c 2
 206 -79 l 1
 206 -102 l 1
 46 -102 l 1
 46 463 l 1
 206 463 l 1
EndSplineSet
Back
169.922 -83.9844 m 1
 22.9492 -83.9844 l 1
 22.9492 485.84 l 1
 169.922 485.84 l 1
 169.922 452.148 l 1
 104.98 452.148 l 2
 92.7734 452.148 86.9141 444.824 86.9141 430.176 c 2
 86.9141 -22.9492 l 2
 86.9141 -41.0156 94.2383 -49.8047 107.91 -49.8047 c 2
 169.922 -49.8047 l 1
 169.922 -83.9844 l 1
EndSplineSet
EndChar
StartChar: backslash
Encoding: 92 92 61
Width: 223
Flags: W
HStem: -13 21G<144 207> 452 20G<-17 46>
DStem: -17 472 46 472 144 -13 207 -13
Fore
144 -13 m 1
 -17 472 l 1
 46 472 l 1
 207 -13 l 1
 144 -13 l 1
EndSplineSet
Back
243.164 -117.188 m 1
 189.941 -117.188 l 1
 2.92969 477.051 l 1
 55.1758 477.051 l 1
 243.164 -117.188 l 1
EndSplineSet
EndChar
StartChar: bracketright
Encoding: 93 93 62
Width: 227
Flags: W
HStem: -102 23<22 182> 440 23<22 78>
Fore
22 -102 m 1
 22 -79 l 1
 76 -79 l 2
 111 -79 111 -66 111 -43 c 2
 111 393 l 2
 111 433 103 440 65 440 c 2
 22 440 l 1
 22 463 l 1
 182 463 l 1
 182 -102 l 1
 22 -102 l 1
EndSplineSet
Back
147.949 -83.9844 m 1
 0.976562 -83.9844 l 1
 0.976562 -49.8047 l 1
 64.9414 -49.8047 l 2
 77.6367 -49.8047 83.9844 -42.9688 83.9844 -28.8086 c 2
 83.9844 424.805 l 2
 83.9844 442.871 77.1484 452.148 62.9883 452.148 c 2
 0.976562 452.148 l 1
 0.976562 485.84 l 1
 147.949 485.84 l 1
 147.949 -83.9844 l 1
EndSplineSet
EndChar
StartChar: asciicircum
Encoding: 94 94 63
Width: 396
Flags: W
HStem: 442 20G<171 226>
DStem: 171 462 199 398 50 212 111 212 199 398 226 462 287 212 348 212
Fore
111 212 m 1
 50 212 l 1
 171 462 l 1
 226 462 l 1
 348 212 l 1
 287 212 l 1
 199 398 l 1
 111 212 l 1
EndSplineSet
Back
317.871 193.848 m 1
 259.766 193.848 l 1
 166.016 384.766 l 1
 71.7773 193.848 l 1
 14.1602 193.848 l 1
 140.137 449.219 l 1
 191.895 449.219 l 1
 317.871 193.848 l 1
EndSplineSet
EndChar
StartChar: underscore
Encoding: 95 95 64
Width: 341
Flags: W
HStem: -85 34<0 341>
Fore
341 -85 m 1
 0 -85 l 1
 0 -51 l 1
 341 -51 l 1
 341 -85 l 1
EndSplineSet
Back
351.074 -56.1523 m 1
 0.976562 -56.1523 l 1
 0.976562 -20.9961 l 1
 351.074 -20.9961 l 1
 351.074 -56.1523 l 1
EndSplineSet
EndChar
StartChar: grave
Encoding: 96 96 65
Width: 200
Flags: W
Fore
148 282 m 1
 113 319 57 380 48 394 c 0
 34 419 39 445 63 459 c 0
 86 472 110 464 125 438 c 0
 133 425 158 344 172 296 c 1
 148 282 l 1
EndSplineSet
Back
130.859 204.102 m 1
 92.7734 204.102 l 1
 26.8555 245.117 l 2
 17.5781 249.512 12.207 257.324 11.2305 268.066 c 0
 11.2305 281.25 18.5547 288.086 33.2031 288.086 c 0
 40.5273 288.086 48.3398 284.18 57.1289 276.855 c 1
 130.859 204.102 l 1
EndSplineSet
EndChar
StartChar: a
Encoding: 97 97 66
Width: 341
Flags: W
HStem: -10 44<258 309> 301 22<139 158>
VStem: 30 70<230 277> 30 91<227 238> 200 94<67 244>
Fore
333 29 m 1
 314 7 288 -10 258 -10 c 0
 222 -10 208 5 201 38 c 1
 172 10 133 -10 92 -10 c 0
 50 -10 17 20 17 64 c 0
 17 144 141 173 201 191 c 1
 201 241 l 2
 201 283 184 301 141 301 c 0
 128 301 100 294 100 277 c 0
 100 263 121 255 121 230 c 0
 121 206 97 192 75 192 c 0
 46 192 30 208 30 238 c 0
 30 302 107 323 158 323 c 0
 218 323 294 302 294 229 c 2
 294 51 l 2
 294 42 298 34 309 34 c 0
 315 34 320 40 323 44 c 1
 333 29 l 1
200 68 m 1
 200 167 l 1
 160 158 117 130 117 85 c 0
 117 64 127 39 152 39 c 0
 172 39 188 54 200 68 c 1
EndSplineSet
Back
201.172 187.988 m 1
 136.23 165.527 104.004 136.719 104.004 102.051 c 0
 104.004 87.8906 108.398 75.6836 117.188 64.9414 c 0
 120.117 61.5234 124.023 58.5938 127.441 56.6406 c 0
 131.348 54.1992 136.23 53.2227 143.066 53.2227 c 0
 166.992 53.2227 185.059 61.0352 196.777 77.1484 c 0
 198.242 79.1016 199.219 82.0312 200.195 86.4258 c 0
 200.684 90.8203 201.172 94.2383 201.172 97.168 c 2
 201.172 187.988 l 1
328.125 34.1797 m 1
 305.176 7.8125 281.25 -4.88281 255.859 -4.88281 c 0
 226.074 -4.88281 208.496 8.78906 203.125 36.1328 c 1
 166.504 8.78906 134.766 -4.88281 107.91 -4.88281 c 0
 83.4961 -4.88281 62.9883 2.44141 47.3633 17.5781 c 0
 31.7383 32.7148 23.9258 51.7578 23.9258 76.1719 c 0
 23.9258 112.793 40.5273 142.578 74.2188 166.016 c 0
 80.5664 169.922 94.7266 176.758 115.723 186.523 c 0
 136.719 196.289 165.039 208.496 201.172 224.121 c 1
 201.172 263.184 l 2
 201.172 296.387 186.035 312.988 155.762 312.988 c 0
 129.883 312.988 116.211 303.711 113.77 285.156 c 0
 113.77 283.203 114.746 278.809 116.211 272.949 c 0
 117.188 267.09 118.164 262.207 118.164 258.789 c 0
 118.164 255.859 117.188 251.465 116.211 246.582 c 0
 114.746 241.699 111.816 236.328 106.934 230.957 c 0
 103.516 227.051 98.6328 224.121 92.2852 222.168 c 0
 85.9375 220.215 80.5664 219.238 76.1719 219.238 c 0
 64.4531 219.238 55.1758 222.168 47.8516 229.004 c 0
 40.5273 235.84 37.1094 245.605 37.1094 258.789 c 0
 37.1094 286.133 51.7578 309.082 82.0312 327.148 c 0
 93.2617 334.473 105.469 339.355 119.141 342.285 c 0
 132.324 345.703 146.484 347.168 162.109 347.168 c 0
 204.102 347.168 233.887 337.402 250.977 317.383 c 0
 268.555 297.852 276.855 266.602 276.855 224.121 c 2
 276.855 83.9844 l 2
 276.855 62.5 280.762 51.7578 288.086 51.7578 c 0
 291.504 51.7578 296.387 54.1992 302.734 58.1055 c 0
 308.594 62.0117 317.383 68.8477 328.125 78.125 c 1
 328.125 34.1797 l 1
EndSplineSet
EndChar
StartChar: b
Encoding: 98 98 67
Width: 379
Flags: W
HStem: -10 22<187 199> 286 37<192 227> 442 20G<12 144>
VStem: 49 95<-9 246 -9 462> 255 101<149 183>
Fore
356 165 m 0
 356 67 300 -10 197 -10 c 0
 165 -10 134 8 111 29 c 1
 57 -9 l 1
 49 -9 l 1
 49 406 l 2
 49 435 38 441 12 445 c 1
 12 462 l 1
 144 462 l 1
 144 285 l 1
 167 309 193 323 227 323 c 0
 315 323 356 242 356 165 c 0
255 154 m 0
 255 197 251 286 192 286 c 0
 165 286 153 268 144 246 c 1
 144 66 l 2
 144 38 160 12 191 12 c 0
 255 12 255 110 255 154 c 0
EndSplineSet
Back
291.016 157.227 m 0
 291.016 174.805 290.039 191.406 287.598 206.055 c 0
 285.156 220.703 280.762 233.887 274.902 246.094 c 0
 260.254 275.879 238.77 291.016 210.938 291.016 c 0
 195.801 291.016 182.129 286.621 170.898 277.832 c 0
 157.227 267.09 149.902 255.859 149.902 243.164 c 2
 149.902 61.0352 l 2
 149.902 56.1523 152.344 52.2461 156.738 48.8281 c 0
 160.645 45.8984 166.016 42.9688 171.875 40.5273 c 0
 178.223 38.0859 184.57 36.6211 190.918 35.6445 c 0
 197.754 34.668 203.125 34.1797 208.008 34.1797 c 0
 263.184 34.1797 291.016 75.1953 291.016 157.227 c 0
375 183.105 m 0
 375 161.621 371.582 140.625 364.258 120.605 c 0
 357.422 100.098 347.168 81.0547 333.984 62.9883 c 0
 300.781 17.5781 253.418 -4.88281 191.895 -4.88281 c 0
 179.199 -4.88281 166.992 -4.39453 155.273 -2.92969 c 0
 144.043 -1.46484 132.324 1.46484 121.094 6.83594 c 0
 104.98 14.1602 92.7734 20.9961 83.9844 26.3672 c 0
 75.1953 32.2266 70.8008 39.5508 70.8008 48.8281 c 2
 70.8008 426.758 l 2
 70.8008 442.383 70.3125 450.684 68.8477 452.148 c 0
 65.4297 455.566 61.0352 457.031 55.1758 457.031 c 2
 23.9258 454.102 l 1
 23.9258 481.934 l 1
 35.1562 485.352 51.2695 490.234 71.2891 496.582 c 0
 91.7969 502.93 113.77 509.766 138.184 517.09 c 1
 149.902 513.184 l 1
 149.902 317.871 l 1
 161.133 328.613 174.805 337.402 190.918 343.262 c 0
 207.031 349.609 222.168 353.027 236.816 353.027 c 0
 282.227 353.027 317.383 334.473 341.797 297.852 c 0
 352.539 281.25 360.84 263.672 366.699 244.629 c 0
 372.07 225.586 375 205.078 375 183.105 c 0
EndSplineSet
EndChar
StartChar: c
Encoding: 99 99 68
Width: 303
Flags: W
HStem: -10 46<163 208> 205 118<171 238> 302 21<161 178>
VStem: 17 96<147 187>
Fore
294 62 m 1
 263 19 217 -10 163 -10 c 0
 76 -10 17 63 17 147 c 0
 17 244 76 323 178 323 c 0
 222 323 284 300 284 249 c 0
 284 220 265 205 238 205 c 0
 170 205 228 302 171 302 c 0
 120 302 113 225 113 187 c 0
 113 129 134 36 208 36 c 0
 242 36 260 51 281 74 c 1
 294 62 l 1
EndSplineSet
Back
315.918 118.164 m 1
 277.832 36.1328 227.539 -4.88281 164.062 -4.88281 c 0
 142.578 -4.88281 123.047 -0.976562 104.98 7.32422 c 0
 86.9141 15.625 71.2891 29.2969 58.1055 47.8516 c 0
 47.3633 63.4766 38.5742 80.5664 32.2266 99.6094 c 0
 25.3906 118.652 21.9727 139.648 21.9727 163.086 c 0
 21.9727 212.891 37.1094 255.859 66.8945 291.992 c 0
 98.1445 328.613 139.16 347.168 189.941 347.168 c 0
 204.102 347.168 216.797 345.703 229.004 342.773 c 0
 241.211 340.332 252.441 335.449 263.184 329.102 c 0
 276.367 321.777 286.621 312.5 293.457 300.781 c 0
 300.293 289.551 304.199 278.32 304.199 267.09 c 0
 304.199 255.859 300.293 246.094 292.48 237.793 c 0
 284.668 229.98 274.902 226.074 262.207 226.074 c 0
 251.465 226.074 242.188 229.98 234.375 237.305 c 0
 227.051 245.117 221.191 254.883 217.773 266.113 c 0
 213.867 282.227 209.473 293.457 205.078 299.805 c 0
 200.195 306.641 191.406 310.059 178.223 310.059 c 0
 152.832 310.059 131.836 296.875 116.211 270.996 c 0
 102.051 248.535 95.2148 221.68 95.2148 190.918 c 0
 95.2148 154.785 103.516 125.488 121.094 102.051 c 0
 140.137 75.1953 164.551 62.0117 193.848 62.0117 c 0
 215.332 62.0117 233.887 68.3594 249.023 81.0547 c 0
 254.395 84.9609 260.742 91.3086 267.578 99.6094 c 0
 274.414 107.91 282.715 119.141 291.992 132.812 c 1
 315.918 118.164 l 1
EndSplineSet
EndChar
StartChar: d
Encoding: 100 100 69
Width: 379
Flags: W
HStem: -10 39<137 173> 285 38<149 176> 445 17<178 194>
VStem: 17 101<133 167> 229 95<70 462>
Fore
365 14 m 1
 320 8 276 3 231 -9 c 1
 231 36 l 1
 202 4 182 -10 137 -10 c 0
 57 -10 17 79 17 147 c 0
 17 227 56 323 149 323 c 0
 184 323 207 305 229 281 c 1
 229 406 l 2
 229 444 210 443 178 445 c 1
 178 462 l 1
 324 462 l 1
 324 69 l 2
 324 40 335 30 365 29 c 1
 365 14 l 1
229 76 m 2
 229 242 l 2
 229 262 194 285 176 285 c 0
 119 285 118 197 118 157 c 0
 118 119 117 29 173 29 c 0
 191 29 229 57 229 76 c 2
EndSplineSet
Back
234.863 250.977 m 1
 232.91 271.484 225.586 288.574 212.891 300.781 c 0
 207.52 306.152 201.172 310.059 193.359 312.5 c 0
 186.035 314.941 178.223 315.918 169.922 315.918 c 0
 154.785 315.918 141.602 312.012 131.348 304.199 c 0
 121.094 295.898 112.793 285.645 106.934 273.438 c 0
 101.074 261.23 96.6797 247.559 94.2383 232.91 c 0
 91.3086 218.262 89.8438 204.102 89.8438 190.918 c 0
 89.8438 174.805 91.3086 158.691 94.7266 141.602 c 0
 97.6562 124.512 102.539 109.375 109.375 95.7031 c 0
 116.699 82.0312 125.977 70.3125 137.695 61.5234 c 0
 148.926 52.7344 163.574 47.8516 181.152 47.8516 c 0
 209.473 47.8516 227.539 60.5469 234.863 84.9609 c 1
 234.863 250.977 l 1
361.816 33.2031 m 1
 248.047 -5.85938 l 1
 234.863 0.976562 l 1
 234.863 23.9258 l 1
 212.402 4.88281 184.57 -4.88281 150.879 -4.88281 c 0
 121.094 -4.88281 93.2617 3.90625 67.8711 20.9961 c 0
 49.8047 33.2031 36.1328 51.2695 26.3672 76.6602 c 0
 16.6016 101.562 12.207 130.859 12.207 165.039 c 0
 12.207 215.82 25.3906 258.301 51.7578 292.969 c 0
 82.0312 333.008 121.094 353.027 168.945 353.027 c 0
 191.895 353.027 213.867 346.191 234.863 333.008 c 1
 234.863 426.758 l 2
 234.863 440.918 234.375 448.73 232.91 450.195 c 0
 230.469 454.102 225.098 456.055 217.773 456.055 c 2
 187.988 453.125 l 1
 187.988 481.934 l 1
 205.566 487.305 220.215 491.699 231.934 495.117 c 0
 244.141 498.535 253.906 501.465 262.207 503.906 c 0
 270.02 506.836 276.855 508.789 282.715 511.23 c 0
 298.828 517.09 l 1
 313.965 513.184 l 1
 313.965 91.7969 l 2
 313.965 78.6133 315.43 69.8242 318.359 65.4297 c 0
 321.289 61.0352 328.125 59.082 338.867 59.082 c 2
 361.816 61.0352 l 1
 361.816 33.2031 l 1
EndSplineSet
EndChar
StartChar: e
Encoding: 101 101 70
Width: 303
Flags: W
HStem: -10 50<156 197> 167 26<112 287> 302 21<154 162>
VStem: 17 95<158 193>
Fore
291 76 m 1
 257 24 220 -10 156 -10 c 0
 61 -10 17 72 17 158 c 0
 17 242 66 323 158 323 c 0
 252 323 283 249 287 167 c 1
 115 167 l 1
 117 115 130 40 197 40 c 0
 231 40 255 61 274 85 c 1
 291 76 l 1
203 193 m 1
 203 225 209 302 160 302 c 0
 111 302 112 226 112 193 c 1
 203 193 l 1
EndSplineSet
Back
161.133 305.176 m 0
 127.441 305.176 105.469 283.203 94.2383 240.234 c 1
 217.773 240.234 l 1
 211.914 283.203 192.871 305.176 161.133 305.176 c 0
325.195 125.977 m 1
 317.871 97.168 303.223 71.2891 282.227 47.8516 c 0
 248.535 12.6953 209.473 -4.88281 164.062 -4.88281 c 0
 124.023 -4.88281 92.2852 6.83594 68.3594 30.2734 c 0
 44.9219 54.1992 29.7852 85.9375 23.9258 125.977 c 0
 23.4375 130.859 22.9492 136.23 22.9492 142.09 c 0
 22.9492 147.949 22.9492 154.785 22.9492 163.086 c 0
 22.9492 212.402 35.1562 253.906 60.0586 288.086 c 0
 88.8672 327.148 127.441 347.168 175.781 347.168 c 0
 218.75 347.168 251.465 333.984 274.414 307.617 c 0
 297.363 281.25 309.082 245.117 309.082 199.219 c 1
 89.8438 199.219 l 1
 91.7969 106.445 126.465 60.0586 193.848 60.0586 c 0
 230.469 60.0586 266.113 86.4258 300.781 139.16 c 1
 325.195 125.977 l 1
EndSplineSet
EndChar
StartChar: f
Encoding: 102 102 71
Width: 227
Flags: W
HStem: 0 16<177 199> 285 30<10 48 143 203> 451 21<169 187>
VStem: 48 95<55 285 315 349.416> 197 69<404 438>
Fore
266 404 m 0
 266 378 248 361 223 361 c 0
 202 361 182 376 182 398 c 0
 182 416 197 427 197 438 c 0
 197 449 185 451 177 451 c 0
 146 451 143 421 143 398 c 2
 143 315 l 1
 203 315 l 1
 203 285 l 1
 143 285 l 1
 143 70 l 2
 143 24 155 18 199 16 c 1
 199 0 l 1
 10 0 l 1
 10 16 l 1
 38 20 48 26 48 57 c 2
 48 285 l 1
 10 285 l 1
 10 315 l 1
 48 315 l 1
 48 406 64 472 173 472 c 0
 213 472 266 451 266 404 c 0
EndSplineSet
Back
289.062 462.891 m 0
 289.062 451.66 285.645 442.383 278.809 435.059 c 0
 272.461 427.734 262.207 423.828 248.047 423.828 c 0
 242.188 423.828 235.84 425.781 229.492 430.176 c 0
 223.145 434.082 217.285 440.43 211.914 449.219 c 0
 201.172 468.262 191.895 478.027 183.105 478.027 c 0
 161.133 478.027 149.902 458.984 149.902 420.898 c 2
 149.902 346.191 l 1
 235.84 346.191 l 1
 235.84 306.152 l 1
 150.879 306.152 l 1
 150.879 83.9844 l 2
 150.879 73.2422 151.367 64.4531 151.855 57.1289 c 0
 152.832 49.8047 154.297 44.4336 157.227 41.0156 c 0
 163.574 32.2266 183.105 27.832 215.82 27.832 c 1
 215.82 0 l 1
 14.1602 0 l 1
 14.1602 27.832 l 1
 34.1797 29.2969 47.3633 30.7617 53.7109 32.7148 c 0
 60.0586 34.1797 63.4766 35.6445 64.9414 37.1094 c 0
 70.3125 44.4336 73.2422 60.0586 73.2422 83.9844 c 2
 73.2422 306.152 l 1
 15.1367 306.152 l 1
 15.1367 346.191 l 1
 73.2422 346.191 l 1
 75.1953 459.961 120.117 517.09 208.008 517.09 c 0
 217.285 517.09 226.074 516.113 233.398 515.137 c 0
 241.211 513.672 249.023 510.742 256.836 505.859 c 0
 278.32 494.141 289.062 479.492 289.062 462.891 c 0
EndSplineSet
EndChar
StartChar: g
Encoding: 103 103 72
Width: 341
Flags: W
HStem: -141 22<146 180> 272 36<240 329> 302 21<154 167>
VStem: 19 60<-81 -70> 25 94<202 228> 82 23<-28 71> 209 92<194 216> 276 54<-70 -38>
Fore
330 -38 m 0
 330 -129 224 -141 154 -141 c 0
 117 -141 19 -134 19 -79 c 0
 19 -45 53 -30 82 -27 c 1
 82 -26 l 1
 53 -16 29 -5 29 31 c 0
 29 72 74 99 109 109 c 1
 109 110 l 1
 62 127 25 163 25 214 c 0
 25 290 100 323 165 323 c 0
 191 323 216 318 240 308 c 1
 329 308 l 1
 329 272 l 1
 274 272 l 1
 292 253 301 230 301 204 c 0
 301 156 273 126 229 111 c 0
 199 101 105 120 105 71 c 0
 105 10 330 100 330 -38 c 0
209 212 m 0
 209 244 208 302 164 302 c 0
 119 302 119 244 119 212 c 0
 119 180 118 124 164 124 c 0
 209 124 209 180 209 212 c 0
276 -70 m 0
 276 -40 245 -36 221 -36 c 2
 103 -36 l 1
 90 -46 79 -56 79 -74 c 0
 79 -112 134 -119 163 -119 c 0
 195 -119 276 -117 276 -70 c 0
EndSplineSet
Back
223.145 211.914 m 0
 223.145 232.91 219.238 252.441 211.914 271.973 c 0
 202.148 300.781 186.035 314.941 164.062 314.941 c 0
 136.719 314.941 123.047 296.875 123.047 261.23 c 0
 123.047 188.965 143.066 152.832 183.105 152.832 c 0
 209.473 152.832 223.145 172.852 223.145 211.914 c 0
294.922 -19.043 m 0
 294.922 -13.6719 292.48 -8.78906 287.598 -4.88281 c 0
 282.715 -0.976562 276.367 1.95312 269.043 3.90625 c 0
 258.789 7.32422 248.047 9.27734 235.84 9.76562 c 0
 224.121 10.7422 212.402 11.2305 201.172 11.2305 c 2
 139.16 11.2305 l 2
 128.906 11.2305 120.117 12.207 112.793 14.1602 c 1
 95.2148 -9.76562 85.9375 -27.3438 85.9375 -38.0859 c 0
 85.9375 -64.4531 117.188 -78.125 179.199 -78.125 c 0
 191.895 -78.125 204.102 -76.6602 215.82 -74.2188 c 0
 228.027 -71.2891 240.234 -67.8711 251.953 -63.9648 c 0
 280.762 -54.1992 294.922 -39.0625 294.922 -19.043 c 0
337.891 285.156 m 1
 285.156 285.156 l 1
 291.504 267.09 294.922 248.535 294.922 229.98 c 0
 294.922 196.777 284.18 169.922 262.207 149.414 c 0
 240.234 129.395 211.914 119.141 178.223 119.141 c 0
 171.387 119.141 164.551 119.141 157.715 119.629 c 0
 150.391 119.629 144.531 120.605 140.137 122.07 c 2
 138.184 122.07 l 2
 135.254 122.07 132.812 120.605 130.371 118.164 c 0
 127.93 115.234 125.488 112.305 122.07 108.887 c 0
 112.793 99.1211 107.91 91.7969 107.91 87.8906 c 0
 107.91 82.5195 123.535 79.1016 154.785 77.1484 c 2
 241.211 71.7773 l 2
 267.09 70.8008 288.574 62.9883 306.152 48.3398 c 0
 323.242 34.1797 332.031 15.1367 332.031 -8.78906 c 0
 332.031 -29.7852 325.684 -47.8516 312.988 -63.4766 c 0
 300.293 -79.1016 284.668 -92.2852 265.625 -103.027 c 0
 246.582 -113.77 226.562 -121.582 205.566 -126.953 c 0
 184.57 -132.324 165.527 -134.766 147.949 -134.766 c 0
 136.23 -134.766 122.559 -133.789 107.91 -131.348 c 0
 93.2617 -129.395 79.5898 -125 66.4062 -119.141 c 0
 53.7109 -112.793 42.4805 -104.98 33.6914 -95.7031 c 0
 24.4141 -85.9375 20.0195 -73.7305 20.0195 -59.082 c 0
 20.0195 -35.1562 39.5508 -7.8125 79.1016 22.9492 c 1
 69.8242 29.7852 62.5 35.6445 57.1289 41.5039 c 0
 51.7578 47.3633 48.8281 53.7109 48.8281 61.0352 c 0
 48.8281 78.125 66.8945 103.027 103.027 134.766 c 1
 65.4297 155.762 46.875 186.523 46.875 228.027 c 0
 46.875 246.094 50.293 262.695 56.6406 277.832 c 0
 62.9883 293.457 71.7773 306.641 83.0078 317.383 c 0
 94.2383 328.613 107.91 336.914 123.047 342.773 c 0
 138.184 349.121 154.785 352.051 172.852 352.051 c 0
 182.129 352.051 192.871 350.586 204.59 348.145 c 0
 216.309 345.215 229.004 341.309 243.164 335.938 c 0
 254.395 332.031 265.625 330.078 276.855 330.078 c 2
 337.891 330.078 l 1
 337.891 285.156 l 1
EndSplineSet
EndChar
StartChar: h
Encoding: 104 104 73
Width: 379
Flags: W
HStem: 0 16<166.667 175 204 216 365 365> 277 46<199 240> 442 20G<11 142>
VStem: 47 95<47 240 57 462>
Fore
365 0 m 1
 204 0 l 1
 204 16 l 1
 228 18 236 33 236 55 c 2
 236 221 l 2
 236 247 232 277 199 277 c 0
 184 277 142 253 142 238 c 2
 142 55 l 2
 142 31 150 19 175 16 c 1
 175 0 l 1
 11 0 l 1
 11 16 l 1
 39 22 47 27 47 57 c 2
 47 406 l 2
 47 436 39 440 11 445 c 1
 11 462 l 1
 142 462 l 1
 142 270 l 1
 168 300 198 323 240 323 c 0
 418 323 268 16 365 16 c 1
 365 0 l 1
EndSplineSet
Back
383.789 0 m 1
 214.844 0 l 1
 214.844 25.8789 l 1
 226.562 27.3438 235.352 28.8086 241.699 30.7617 c 0
 248.047 33.2031 252.441 35.1562 255.859 38.0859 c 0
 259.277 40.5273 261.23 45.8984 262.207 54.1992 c 0
 262.695 62.0117 263.184 71.7773 263.184 83.0078 c 2
 263.184 228.027 l 2
 263.184 273.926 248.047 296.875 217.773 296.875 c 0
 197.266 296.875 174.316 283.203 148.926 255.859 c 1
 148.926 83.0078 l 2
 148.926 71.7773 149.414 62.0117 150.391 54.1992 c 0
 151.367 45.8984 153.809 40.5273 157.227 37.1094 c 0
 158.203 35.6445 162.109 34.1797 167.969 32.7148 c 0
 173.828 30.7617 183.594 28.3203 196.777 24.9023 c 1
 196.777 0 l 1
 23.9258 0 l 1
 23.9258 25.8789 l 1
 46.875 28.8086 60.5469 34.1797 64.9414 42.9688 c 0
 68.3594 46.875 69.8242 60.5469 69.8242 83.0078 c 2
 69.8242 449.219 l 1
 64.4531 452.148 59.5703 454.102 54.1992 454.102 c 2
 24.9023 452.148 l 1
 24.9023 480.957 l 1
 137.207 517.09 l 1
 148.926 508.789 l 1
 148.926 311.035 l 1
 175.781 338.867 207.52 353.027 244.141 353.027 c 0
 310.059 353.027 342.773 311.523 342.773 229.004 c 2
 342.773 83.0078 l 2
 342.773 61.5234 344.238 48.3398 347.168 42.9688 c 0
 349.121 39.5508 353.516 36.1328 359.863 33.2031 c 0
 366.699 29.7852 374.512 26.3672 383.789 22.9492 c 1
 383.789 0 l 1
EndSplineSet
EndChar
StartChar: i
Encoding: 105 105 74
Width: 189
Flags: W
HStem: 0 16<166 174> 295 20G<11 142> 366 106<94 96>
VStem: 47 95<47 273>
Fore
147 419 m 0
 147 389 124 366 94 366 c 0
 64 366 41 389 41 419 c 0
 41 448 65 472 94 472 c 0
 124 472 147 448 147 419 c 0
174 0 m 1
 11 0 l 1
 11 16 l 1
 38 23 47 27 47 57 c 2
 47 258 l 2
 47 287 38 294 11 298 c 1
 11 315 l 1
 142 315 l 1
 142 55 l 2
 142 32 150 19 174 16 c 1
 174 0 l 1
EndSplineSet
Back
192.871 0 m 1
 192.871 25.8789 l 1
 166.504 29.7852 151.855 34.1797 148.926 38.0859 c 0
 146.484 41.5039 144.531 47.3633 143.555 55.6641 c 0
 142.578 63.9648 142.09 72.7539 142.09 82.0312 c 2
 142.09 351.074 l 1
 130.859 354.98 l 1
 16.1133 309.082 l 1
 16.1133 284.18 l 1
 53.2227 289.062 l 1
 61.5234 288.574 65.918 276.367 65.918 252.93 c 2
 65.918 82.0312 l 2
 65.918 60.5469 62.9883 46.3867 56.6406 38.5742 c 0
 50.293 30.7617 35.6445 26.8555 13.1836 26.8555 c 1
 13.1836 0 l 1
 192.871 0 l 1
56.1523 472.168 m 0
 56.1523 458.496 60.0586 447.266 68.3594 438.477 c 0
 76.6602 429.688 87.8906 424.805 101.074 424.805 c 0
 113.77 424.805 124.023 429.688 132.324 438.477 c 0
 140.625 447.266 145.02 458.496 145.02 472.168 c 0
 145.02 485.352 140.625 496.094 132.324 504.883 c 0
 124.023 513.672 113.77 518.066 101.074 518.066 c 0
 87.8906 518.066 76.6602 513.672 68.3594 504.883 c 0
 60.0586 496.094 56.1523 485.352 56.1523 472.168 c 0
EndSplineSet
EndChar
StartChar: j
Encoding: 106 106 75
Width: 227
Flags: W
HStem: -139 22<40 58> 298 17<40 54.5> 366 106<126 128>
VStem: -39 83<-71 -64> 83 95<-66 262>
Fore
180 419 m 0
 180 389 156 366 126 366 c 0
 96 366 74 389 74 419 c 0
 74 448 97 472 126 472 c 0
 156 472 180 448 180 419 c 0
178 -3 m 2
 178 -87 143 -139 52 -139 c 0
 10 -139 -39 -117 -39 -69 c 0
 -39 -45 -20 -29 3 -29 c 0
 24 -29 44 -44 44 -66 c 0
 44 -83 28 -95 28 -106 c 0
 28 -115 43 -117 50 -117 c 0
 80 -117 83 -89 83 -66 c 2
 83 258 l 2
 83 292 69 296 40 298 c 1
 40 315 l 1
 178 315 l 1
 178 -3 l 2
EndSplineSet
Back
201.172 354.004 m 1
 189.941 357.91 l 1
 73.2422 312.012 l 1
 73.2422 286.133 l 1
 110.84 291.016 l 1
 119.629 290.527 124.023 278.32 124.023 254.883 c 2
 124.023 -21.9727 l 2
 124.023 -63.4766 123.047 -87.4023 121.094 -94.2383 c 0
 119.141 -100.586 116.211 -105.957 111.816 -110.352 c 0
 107.91 -114.746 104.004 -117.188 100.098 -117.188 c 0
 98.1445 -117.188 94.2383 -115.234 88.8672 -111.328 c 0
 83.4961 -107.91 79.1016 -102.539 75.1953 -95.2148 c 0
 69.8242 -85.4492 63.4766 -79.5898 57.1289 -76.6602 c 0
 50.293 -73.7305 43.457 -71.7773 36.1328 -71.7773 c 0
 34.668 -71.7773 31.25 -72.7539 25.3906 -74.707 c 0
 20.0195 -76.1719 15.625 -78.125 13.1836 -81.0547 c 0
 5.85938 -88.3789 1.95312 -97.168 1.95312 -107.91 c 0
 1.95312 -121.094 7.8125 -133.301 20.0195 -143.555 c 0
 32.2266 -153.809 49.8047 -159.18 73.2422 -159.18 c 0
 114.258 -159.18 145.996 -145.508 167.969 -119.141 c 0
 189.941 -92.2852 201.172 -51.7578 201.172 1.95312 c 2
 201.172 354.004 l 1
113.77 475.098 m 0
 113.77 461.426 118.164 450.684 126.953 441.895 c 0
 135.742 433.105 146.484 429.199 159.18 429.199 c 0
 171.875 429.199 182.129 433.105 190.918 441.895 c 0
 199.707 450.684 204.102 461.426 204.102 475.098 c 0
 204.102 488.281 199.707 499.512 190.918 508.301 c 0
 182.129 517.578 171.875 521.973 159.18 521.973 c 0
 146.484 521.973 135.742 517.578 126.953 508.301 c 0
 118.164 499.512 113.77 488.281 113.77 475.098 c 0
EndSplineSet
EndChar
StartChar: k
Encoding: 107 107 76
Width: 379
Flags: W
HStem: 0 16<15 23.7604 211 222.566 371 371> 295 20G<204 350> 445 17<15 24.0831>
VStem: 48 95<57 135 57 462>
Fore
371 0 m 1
 211 0 l 1
 211 16 l 1
 219 16 240 18 240 29 c 0
 240 45 163 146 158 152 c 1
 143 135 l 1
 143 57 l 2
 143 27 147 21 178 16 c 1
 178 0 l 1
 15 0 l 1
 15 16 l 1
 39 16 48 36 48 57 c 2
 48 407 l 2
 48 428 38 445 15 445 c 1
 15 462 l 1
 143 462 l 1
 143 167 l 1
 154 178 244 259 244 279 c 0
 244 298 217 297 204 299 c 1
 204 315 l 1
 350 315 l 1
 350 299 l 1
 296 290 256 251 221 210 c 1
 354 27 l 2
 358 20 363 16 371 16 c 1
 371 0 l 1
EndSplineSet
Back
398.926 0 m 1
 225.098 0 l 1
 225.098 28.8086 l 1
 243.164 28.8086 l 2
 247.559 28.8086 250 29.7852 250 32.2266 c 0
 250 32.7148 249.512 34.1797 248.047 37.1094 c 2
 155.762 161.133 l 1
 155.762 57.1289 l 2
 155.762 41.0156 166.504 32.2266 187.012 29.7852 c 2
 209.961 27.832 l 1
 209.961 0 l 1
 23.9258 0 l 1
 23.9258 27.832 l 1
 49.8047 31.25 63.4766 33.6914 64.9414 35.1562 c 0
 68.3594 38.5742 70.8008 42.4805 73.2422 47.3633 c 0
 75.1953 52.7344 76.1719 59.5703 76.1719 68.8477 c 2
 76.1719 419.922 l 2
 76.1719 435.547 75.1953 444.336 73.2422 446.777 c 0
 71.7773 449.219 69.8242 450.684 67.8711 452.637 c 0
 65.918 454.102 62.5 455.078 57.1289 455.078 c 2
 23.9258 452.148 l 1
 23.9258 479.004 l 1
 142.09 515.137 l 1
 155.762 511.23 l 1
 155.762 221.191 l 1
 237.793 294.922 l 2
 242.188 298.828 245.117 302.246 247.559 304.688 c 0
 250 306.641 250.977 309.082 250.977 311.035 c 0
 250.977 314.941 238.77 316.895 214.844 316.895 c 1
 214.844 346.191 l 1
 379.883 346.191 l 1
 379.883 315.918 l 1
 365.234 315.918 353.516 314.941 344.727 312.988 c 0
 335.449 311.035 327.637 308.105 320.801 305.176 c 0
 315.43 302.246 308.105 297.363 298.34 290.527 c 0
 289.062 283.691 278.32 275.391 267.09 266.113 c 2
 207.031 212.891 l 1
 312.988 78.125 l 2
 325.195 62.5 337.891 50.7812 352.051 42.4805 c 0
 366.211 34.1797 381.836 29.7852 398.926 28.8086 c 1
 398.926 0 l 1
EndSplineSet
EndChar
StartChar: l
Encoding: 108 108 77
Width: 189
Flags: W
HStem: 0 16<11 174> 445 17<11 20.271>
VStem: 46 95<57 417>
Fore
174 0 m 1
 11 0 l 1
 11 16 l 1
 34 16 46 36 46 57 c 2
 46 406 l 2
 46 427 35 445 11 445 c 1
 11 462 l 1
 141 462 l 1
 141 57 l 2
 141 36 150 16 174 16 c 1
 174 0 l 1
EndSplineSet
Back
194.824 0 m 1
 17.0898 0 l 1
 17.0898 25.8789 l 1
 36.1328 28.8086 49.8047 33.2031 57.6172 39.5508 c 0
 64.9414 45.8984 68.8477 56.6406 68.8477 71.7773 c 2
 68.8477 419.922 l 2
 68.8477 436.523 68.3594 446.289 66.8945 449.219 c 0
 64.9414 453.613 60.0586 456.055 51.7578 456.055 c 2
 15.1367 453.125 l 1
 15.1367 481.934 l 1
 20.9961 483.398 29.7852 485.84 41.9922 489.258 c 0
 54.1992 493.164 66.8945 497.07 80.5664 501.465 c 0
 94.2383 505.859 106.934 509.766 119.141 513.672 c 0
 130.859 517.09 139.16 519.531 144.043 520.996 c 1
 144.043 70.8008 l 2
 144.043 41.5039 161.133 26.8555 194.824 26.8555 c 1
 194.824 0 l 1
EndSplineSet
EndChar
StartChar: m
Encoding: 109 109 78
Width: 568
Flags: W
HStem: 0 16<162.5 175 205 218.5 352.5 365 393 421 527 556> 277 46<200 240> 298 17<11 20>
VStem: 48 95<47 240 258 315> 238 95<55 240> 427 95<55 240>
Fore
556 0 m 1
 393 0 l 1
 393 16 l 1
 421 17 427 31 427 55 c 2
 427 225 l 2
 427 251 422 277 390 277 c 0
 376 277 333 253 333 238 c 2
 333 55 l 2
 333 33 340 18 365 16 c 1
 365 0 l 1
 205 0 l 1
 205 16 l 1
 232 18 238 31 238 55 c 2
 238 225 l 2
 238 251 232 277 200 277 c 0
 185 277 143 253 143 238 c 2
 143 55 l 2
 143 32 150 18 175 16 c 1
 175 0 l 1
 11 0 l 1
 11 16 l 1
 38 21 48 28 48 57 c 2
 48 258 l 2
 48 288 38 295 11 298 c 1
 11 315 l 1
 141 315 l 1
 141 266 l 1
 143 266 l 1
 163 300 199 323 240 323 c 0
 287 323 310 304 329 264 c 1
 355 297 386 323 430 323 c 0
 488 323 522 283 522 227 c 2
 522 55 l 2
 522 30 527 17 556 16 c 1
 556 0 l 1
EndSplineSet
Back
601.074 0 m 1
 421.875 0 l 1
 421.875 26.8555 l 1
 454.102 26.8555 470.215 42.9688 470.215 75.1953 c 2
 470.215 222.168 l 2
 470.215 246.094 467.773 263.184 463.867 272.949 c 0
 457.52 287.109 444.824 293.945 426.758 293.945 c 0
 397.461 293.945 374.023 281.25 355.957 255.859 c 1
 355.957 75.1953 l 2
 355.957 59.5703 359.375 47.8516 366.699 39.5508 c 0
 373.535 31.25 387.207 26.8555 408.203 26.8555 c 1
 408.203 0 l 1
 225.098 0 l 1
 225.098 26.8555 l 1
 243.164 26.8555 255.859 31.25 263.672 39.5508 c 0
 270.996 47.8516 274.902 59.5703 274.902 75.1953 c 2
 274.902 226.074 l 2
 274.902 271.484 261.23 293.945 233.887 293.945 c 0
 213.379 293.945 195.312 287.598 180.176 274.902 c 0
 166.504 265.137 160.156 259.277 160.156 257.812 c 2
 160.156 75.1953 l 2
 160.156 59.5703 163.574 47.8516 170.898 39.5508 c 0
 178.223 31.25 191.406 26.8555 209.961 26.8555 c 1
 209.961 0 l 1
 27.832 0 l 1
 27.832 26.8555 l 1
 62.0117 26.8555 79.1016 42.9688 79.1016 75.1953 c 2
 79.1016 263.184 l 2
 79.1016 274.414 76.6602 282.227 71.7773 287.109 c 0
 71.2891 287.598 69.3359 288.086 65.918 288.086 c 0
 62.5 288.086 57.6172 287.598 51.2695 287.109 c 0
 45.4102 286.133 38.0859 285.156 29.7852 284.18 c 1
 29.7852 312.988 l 1
 46.875 318.359 61.0352 322.754 72.2656 326.172 c 0
 83.9844 329.102 94.2383 332.52 102.051 334.961 c 0
 109.863 337.891 116.699 339.844 122.559 341.309 c 0
 127.93 343.262 133.789 345.215 139.16 347.168 c 1
 155.762 347.168 l 1
 155.762 299.805 l 1
 177.246 313.477 193.359 322.754 203.613 328.613 c 0
 213.867 333.984 220.703 337.891 224.121 338.867 c 0
 237.305 344.238 249.512 347.168 259.766 347.168 c 0
 297.852 347.168 325.195 330.078 341.797 295.898 c 1
 377.441 330.078 415.527 347.168 456.055 347.168 c 0
 519.531 347.168 550.781 301.27 550.781 209.961 c 2
 550.781 75.1953 l 2
 550.781 59.5703 554.688 47.8516 562.5 39.5508 c 0
 570.312 31.25 583.008 26.8555 601.074 26.8555 c 1
 601.074 0 l 1
EndSplineSet
EndChar
StartChar: n
Encoding: 110 110 79
Width: 379
Flags: W
HStem: 0 16<170.667 179 208 219.5 340 368> 277 46<202 243> 295 20G<14 145>
VStem: 51 94<47 240 258 315> 240 95<55 240>
Fore
368 0 m 1
 208 0 l 1
 208 16 l 1
 231 18 240 33 240 55 c 2
 240 221 l 2
 240 247 236 277 202 277 c 0
 188 277 145 253 145 238 c 2
 145 55 l 2
 145 31 154 19 179 16 c 1
 179 0 l 1
 14 0 l 1
 14 16 l 1
 42 22 51 27 51 57 c 2
 51 258 l 2
 51 287 42 294 14 298 c 1
 14 315 l 1
 145 315 l 1
 145 266 l 1
 146 266 l 1
 167 301 202 323 243 323 c 0
 300 323 335 283 335 227 c 2
 335 55 l 2
 335 31 340 17 368 16 c 1
 368 0 l 1
EndSplineSet
Back
381.836 0 m 1
 216.797 0 l 1
 216.797 25.8789 l 1
 234.863 28.8086 246.094 31.7383 250 35.1562 c 0
 257.324 40.5273 261.23 55.1758 261.23 79.1016 c 2
 261.23 229.004 l 2
 261.23 269.043 246.094 289.062 216.797 289.062 c 0
 200.195 289.062 179.688 277.832 154.785 254.883 c 1
 154.785 57.1289 l 2
 154.785 40.5273 170.41 29.7852 201.172 25.8789 c 1
 201.172 0 l 1
 32.2266 0 l 1
 32.2266 25.8789 l 1
 36.6211 25.8789 41.5039 26.3672 46.3867 26.8555 c 0
 51.2695 27.832 56.1523 28.8086 60.0586 30.7617 c 0
 71.2891 36.1328 77.1484 50.293 77.1484 73.2422 c 2
 77.1484 250.977 l 2
 77.1484 267.09 75.6836 277.832 73.2422 283.203 c 0
 72.2656 284.18 70.3125 285.156 67.3828 285.645 c 0
 64.4531 285.645 61.0352 286.133 57.1289 286.133 c 0
 54.1992 286.133 50.293 285.156 44.9219 284.18 c 0
 39.5508 282.715 34.668 281.25 29.7852 279.785 c 1
 29.7852 312.988 l 1
 38.0859 314.941 46.875 317.383 57.1289 319.824 c 0
 66.8945 322.754 77.1484 325.684 87.4023 329.102 c 0
 97.6562 332.52 107.422 335.449 116.211 338.379 c 0
 124.512 341.309 131.348 344.238 136.23 346.191 c 1
 152.832 346.191 l 1
 152.832 299.805 l 1
 159.668 307.129 166.016 313.477 171.387 317.871 c 0
 177.246 322.754 182.129 326.66 187.012 330.078 c 0
 196.289 335.938 206.055 340.332 215.82 342.285 c 0
 226.074 344.727 236.816 346.191 248.047 346.191 c 0
 309.57 346.191 339.844 307.129 339.844 229.98 c 2
 339.844 66.8945 l 2
 339.844 59.082 340.332 52.2461 340.332 46.875 c 0
 340.82 41.5039 342.773 37.5977 346.191 35.1562 c 0
 349.121 32.2266 361.328 28.8086 381.836 24.9023 c 1
 381.836 0 l 1
EndSplineSet
EndChar
StartChar: o
Encoding: 111 111 80
Width: 341
Flags: W
HStem: -10 22<169 178> 302 21<161.438 178>
VStem: 17 100<156 167> 225 100<156 167>
Fore
325 156 m 0
 325 67 265 -10 171 -10 c 0
 78 -10 17 66 17 156 c 0
 17 246 78 323 171 323 c 4
 265 323 325 246 325 156 c 0
225 156 m 0
 225 195 231 302 171 302 c 0
 111 302 117 195 117 156 c 0
 117 115 110 12 172 12 c 0
 231 12 225 118 225 156 c 0
EndSplineSet
Back
21.9727 170.898 m 0
 21.9727 146.973 25.8789 124.512 34.1797 103.027 c 0
 41.9922 81.543 53.2227 62.9883 67.8711 46.875 c 0
 82.5195 30.7617 100.098 18.5547 120.117 8.78906 c 0
 140.137 -0.488281 162.109 -4.88281 187.012 -4.88281 c 0
 211.426 -4.88281 234.375 -0.488281 254.395 8.78906 c 0
 274.902 18.5547 292.48 30.7617 307.129 46.875 c 0
 321.777 62.9883 333.008 81.543 341.309 103.027 c 0
 349.609 124.512 354.004 146.973 354.004 170.898 c 0
 354.004 194.824 349.609 217.773 341.309 238.77 c 0
 333.008 260.254 321.777 278.809 307.129 294.922 c 0
 292.48 311.035 274.902 323.73 254.395 333.008 c 0
 234.375 342.285 211.426 347.168 187.012 347.168 c 0
 162.109 347.168 140.137 342.285 120.117 333.008 c 0
 100.098 323.73 82.5195 311.035 67.8711 294.922 c 0
 53.2227 278.809 41.9922 260.254 34.1797 238.77 c 0
 25.8789 217.773 21.9727 194.824 21.9727 170.898 c 0
104.004 169.922 m 0
 104.004 189.453 105.469 207.52 108.887 224.121 c 0
 112.305 240.723 117.676 255.371 124.512 268.555 c 0
 131.348 281.738 140.137 291.504 150.391 298.828 c 0
 160.645 306.152 172.852 310.059 187.012 310.059 c 0
 201.66 310.059 214.355 306.152 224.609 298.828 c 0
 234.863 291.504 243.164 281.738 250 268.555 c 0
 256.836 255.371 261.719 240.723 265.137 224.121 c 0
 268.555 207.52 270.02 189.453 270.02 169.922 c 0
 270.02 150.879 268.555 132.324 265.625 115.723 c 0
 262.695 98.6328 257.812 83.4961 250.977 70.3125 c 0
 244.141 57.6172 235.84 47.3633 225.098 40.0391 c 0
 214.355 32.7148 201.66 28.8086 187.012 28.8086 c 0
 172.852 28.8086 160.645 32.7148 150.391 40.0391 c 0
 140.137 47.3633 131.348 57.6172 124.512 70.3125 c 0
 117.676 83.4961 112.305 98.6328 108.887 115.723 c 0
 105.469 132.324 104.004 150.879 104.004 169.922 c 0
EndSplineSet
EndChar
StartChar: p
Encoding: 112 112 81
Width: 379
Flags: W
HStem: -140 14<177.5 199> -9 38<199 227> 284 39<203 233> 298 17<14 23.3333>
VStem: 51 95<-84 31 -84 238 258 315> 257 101<147 181>
Fore
358 165 m 0
 358 85 320 -9 227 -9 c 0
 191 -9 171 8 146 32 c 1
 146 -64 l 2
 146 -107 156 -124 199 -126 c 1
 199 -140 l 1
 13 -140 l 1
 13 -124 l 1
 42 -119 51 -113 51 -84 c 2
 51 258 l 2
 51 286 42 295 14 298 c 1
 14 315 l 1
 145 315 l 1
 145 270 l 1
 146 270 l 1
 165 306 191 323 233 323 c 0
 318 323 358 240 358 165 c 0
257 152 m 0
 257 189 259 284 203 284 c 0
 184 284 146 256 146 236 c 2
 146 70 l 2
 146 51 182 29 199 29 c 0
 255 29 257 113 257 152 c 0
EndSplineSet
Back
145.02 -74.2188 m 2
 145.02 14.1602 l 1
 164.551 1.46484 185.547 -4.88281 208.984 -4.88281 c 0
 234.375 -4.88281 256.836 0.488281 276.367 11.2305 c 0
 296.387 21.4844 312.5 36.1328 326.172 54.1992 c 0
 339.355 71.7773 349.609 92.2852 356.445 115.723 c 0
 363.281 138.672 367.188 162.109 367.188 187.012 c 0
 367.188 207.031 364.258 227.051 359.375 246.582 c 0
 354.492 266.113 346.68 283.691 336.426 299.316 c 0
 326.172 314.941 312.988 327.637 296.875 337.402 c 0
 280.762 347.168 262.207 352.051 241.211 352.051 c 0
 222.168 352.051 205.078 348.633 188.965 342.285 c 0
 172.852 335.938 157.715 326.172 143.066 312.012 c 1
 142.09 319.336 141.602 326.66 141.602 333.496 c 0
 141.113 340.332 141.113 347.656 141.113 354.98 c 1
 121.094 347.656 101.074 340.332 81.0547 333.496 c 0
 61.0352 326.66 40.5273 319.824 20.0195 312.988 c 1
 20.0195 287.109 l 1
 51.7578 289.062 l 2
 58.5938 289.062 62.9883 286.621 64.9414 282.227 c 0
 66.4062 276.855 66.8945 267.09 66.8945 253.906 c 2
 66.8945 -80.0781 l 2
 66.8945 -93.2617 63.4766 -103.027 57.1289 -108.398 c 0
 50.293 -114.258 37.1094 -117.188 18.0664 -117.188 c 1
 18.0664 -145.996 l 1
 207.031 -145.996 l 1
 207.031 -115.234 l 1
 177.734 -115.234 160.156 -112.793 154.785 -107.91 c 0
 148.438 -103.516 145.02 -91.7969 145.02 -74.2188 c 2
288.086 164.062 m 0
 288.086 129.395 282.227 100.098 270.996 76.1719 c 0
 258.301 47.8516 237.793 34.1797 209.961 34.1797 c 0
 198.73 34.1797 185.059 38.0859 168.945 45.8984 c 0
 152.832 54.1992 145.02 62.9883 145.02 73.2422 c 2
 145.02 250.977 l 1
 147.461 262.207 155.273 271.973 167.969 279.297 c 0
 180.664 287.109 193.848 291.016 207.031 291.016 c 0
 221.68 291.016 234.375 287.109 244.629 279.297 c 0
 254.883 271.973 263.184 261.719 269.531 249.512 c 0
 275.879 237.305 280.273 223.633 283.691 208.496 c 0
 286.621 193.359 288.086 178.711 288.086 164.062 c 0
EndSplineSet
EndChar
StartChar: q
Encoding: 113 113 82
Width: 379
Flags: W
HStem: -10 37<152 187> 301 22<177 190> 302 20G<318 328>
VStem: 23 100<147 165> 234 94<-86 29 65 322>
Fore
366 -140 m 1
 184 -140 l 1
 184 -123 l 1
 225 -116 234 -110 234 -66 c 2
 234 29 l 1
 213 6 183 -10 152 -10 c 0
 58 -10 23 75 23 157 c 0
 23 247 84 323 178 323 c 0
 212 323 240 306 265 284 c 1
 318 322 l 1
 328 322 l 1
 328 -84 l 2
 328 -114 339 -119 366 -124 c 1
 366 -140 l 1
234 67 m 2
 234 246 l 2
 234 274 218 301 188 301 c 0
 127 301 123 206 123 163 c 0
 123 119 125 27 187 27 c 0
 205 27 234 47 234 67 c 2
EndSplineSet
Back
361.816 -154.785 m 1
 361.816 -126.953 l 1
 331.543 -121.582 315.918 -110.352 315.918 -92.7734 c 2
 315.918 345.215 l 1
 308.105 353.027 l 1
 297.852 351.074 l 1
 262.207 328.125 l 1
 246.582 336.426 232.422 342.773 219.727 346.68 c 0
 206.543 350.098 193.848 352.051 181.152 352.051 c 0
 154.785 352.051 131.836 347.168 110.84 336.914 c 0
 90.332 327.148 72.7539 313.477 58.5938 295.898 c 0
 43.9453 278.809 33.2031 258.301 24.9023 235.352 c 0
 17.0898 212.402 13.1836 188.477 13.1836 163.086 c 0
 13.1836 141.602 15.1367 120.605 20.0195 100.586 c 0
 24.9023 80.0781 32.2266 62.0117 41.9922 46.3867 c 0
 51.7578 30.7617 64.9414 18.5547 81.0547 8.78906 c 0
 97.168 -0.488281 116.699 -4.88281 140.137 -4.88281 c 0
 149.414 -4.88281 160.156 -3.90625 172.852 -0.976562 c 0
 185.547 1.46484 197.266 5.85938 208.008 12.207 c 0
 213.379 15.1367 218.75 19.043 224.121 22.4609 c 0
 229.492 26.3672 234.375 29.7852 238.77 33.2031 c 1
 238.77 -77.1484 l 2
 238.77 -108.398 217.285 -124.023 173.828 -124.023 c 1
 173.828 -154.785 l 1
 361.816 -154.785 l 1
233.887 76.1719 m 1
 222.168 62.0117 202.148 55.1758 174.805 55.1758 c 0
 160.156 55.1758 147.461 59.082 137.207 66.8945 c 0
 126.465 75.1953 117.676 84.9609 111.328 97.6562 c 0
 104.98 109.863 100.586 123.535 97.6562 139.16 c 0
 94.7266 154.297 92.7734 168.945 92.7734 183.105 c 0
 92.7734 198.242 94.7266 213.867 97.6562 229.492 c 0
 100.586 245.117 104.98 259.277 111.328 271.973 c 0
 117.676 284.668 126.465 294.922 137.695 303.223 c 0
 148.438 311.035 162.109 314.941 178.223 314.941 c 0
 218.75 314.941 238.77 293.945 238.77 251.953 c 2
 238.77 104.004 l 1
 233.887 76.1719 l 1
EndSplineSet
EndChar
StartChar: r
Encoding: 114 114 83
Width: 303
Flags: W
HStem: 0 16<180.5 201> 264 59<192 240> 298 17<20 28.6667>
VStem: 57 92<258 315> 57 95<55 209>
Fore
296 270 m 0
 296 244 280 224 253 224 c 0
 214 224 213 264 192 264 c 0
 163 264 152 221 152 199 c 2
 152 70 l 2
 152 29 160 18 201 16 c 1
 201 0 l 1
 20 0 l 1
 20 16 l 1
 47 21 57 27 57 57 c 2
 57 258 l 2
 57 287 46 295 20 298 c 1
 20 315 l 1
 149 315 l 1
 149 261 l 1
 150 261 l 1
 171 291 200 323 240 323 c 0
 271 323 296 302 296 270 c 0
EndSplineSet
Back
270.996 299.805 m 0
 270.996 286.621 267.578 276.855 260.742 270.02 c 0
 253.418 263.184 245.117 259.766 234.863 259.766 c 0
 222.168 259.766 211.426 264.648 202.148 273.926 c 0
 199.219 276.855 197.266 279.297 195.801 282.227 c 0
 194.824 284.668 191.895 286.133 187.988 286.133 c 0
 180.176 286.133 171.387 279.785 162.109 268.066 c 0
 152.832 255.859 147.949 245.117 147.949 234.863 c 2
 147.949 74.2188 l 2
 147.949 42.4805 167.48 26.8555 207.031 26.8555 c 1
 207.031 0 l 1
 20.9961 0 l 1
 20.9961 24.9023 l 1
 33.2031 27.832 42.9688 29.7852 50.293 32.2266 c 0
 58.1055 34.1797 62.9883 35.6445 64.9414 37.1094 c 0
 66.4062 38.5742 67.3828 41.9922 68.3594 47.8516 c 0
 69.3359 54.1992 69.8242 61.0352 69.8242 68.8477 c 2
 69.8242 249.023 l 2
 69.8242 271.484 65.918 283.203 58.1055 283.203 c 2
 22.9492 279.785 l 1
 22.9492 306.152 l 1
 44.9219 313.965 65.918 321.289 85.9375 328.613 c 0
 105.957 335.449 122.559 341.797 134.766 347.168 c 1
 147.949 347.168 l 1
 147.949 300.781 l 1
 171.875 331.543 197.266 347.168 224.121 347.168 c 0
 255.371 347.168 270.996 331.543 270.996 299.805 c 0
EndSplineSet
EndChar
StartChar: s
Encoding: 115 115 84
Width: 265
Flags: W
HStem: -10 24<126 141> -9 21G<17 34> 300 23<125 139> 302 20G<217 232>
VStem: 18 69<223 262> 181 65<59 96>
Fore
246 96 m 0
 246 31 203 -10 139 -10 c 0
 109 -10 73 10 53 10 c 0
 43 10 38 -2 34 -9 c 1
 17 -9 l 1
 17 104 l 1
 36 104 l 1
 47 53 76 14 132 14 c 0
 159 14 181 31 181 59 c 0
 181 122 18 117 18 223 c 0
 18 285 67 323 127 323 c 0
 153 323 176 308 200 308 c 0
 209 308 215 313 217 322 c 1
 232 322 l 1
 232 223 l 1
 215 223 l 1
 203 262 175 300 130 300 c 0
 109 300 87 285 87 262 c 0
 87 192 246 207 246 96 c 0
EndSplineSet
Back
252.93 94.2383 m 0
 252.93 62.0117 242.188 37.5977 221.191 20.5078 c 0
 199.707 3.41797 173.828 -4.88281 143.066 -4.88281 c 0
 132.324 -4.88281 117.188 -2.92969 97.168 0.976562 c 2
 61.0352 7.8125 l 2
 58.1055 7.8125 55.1758 5.37109 50.7812 0 c 1
 28.8086 0 l 1
 28.8086 126.953 l 1
 59.082 126.953 l 1
 61.5234 110.352 64.4531 97.6562 66.8945 89.3555 c 0
 69.8242 81.0547 74.2188 70.3125 80.0781 57.1289 c 0
 85.4492 45.8984 93.2617 37.5977 103.516 33.2031 c 0
 113.77 28.3203 125.488 25.8789 138.184 25.8789 c 0
 169.922 25.8789 186.035 40.5273 186.035 68.8477 c 0
 186.035 86.9141 175.781 102.539 154.785 115.234 c 0
 137.207 126.953 122.07 136.719 110.352 144.043 c 0
 98.6328 151.367 89.3555 157.715 82.0312 162.598 c 0
 74.707 167.48 69.3359 171.387 65.4297 174.316 c 0
 62.0117 177.734 59.082 180.176 57.1289 183.105 c 0
 48.8281 192.383 42.4805 202.148 37.1094 212.891 c 0
 31.7383 223.633 28.8086 236.328 28.8086 250.977 c 0
 28.8086 265.625 32.2266 278.809 38.0859 290.527 c 0
 43.9453 302.246 51.7578 312.012 61.5234 320.312 c 0
 71.2891 328.613 82.5195 335.449 95.7031 339.844 c 0
 108.398 344.727 122.07 347.168 136.23 347.168 c 0
 147.949 347.168 157.227 346.191 164.062 345.215 c 0
 170.898 343.75 174.805 342.285 176.758 340.82 c 2
 200.195 332.031 l 1
 200.195 332.031 201.66 335.449 205.078 341.797 c 1
 228.027 341.797 l 1
 231.934 226.074 l 1
 203.125 226.074 l 1
 190.918 284.668 167.969 313.965 133.789 313.965 c 0
 121.094 313.965 110.84 311.035 102.539 304.688 c 0
 94.2383 298.34 89.8438 288.086 89.8438 273.926 c 0
 89.8438 263.184 91.7969 254.883 96.1914 249.023 c 0
 100.098 243.164 106.445 237.305 115.234 231.934 c 2
 190.918 186.035 l 2
 202.148 179.199 211.426 173.34 218.262 167.48 c 0
 225.586 161.621 230.957 156.25 234.863 150.879 c 0
 247.07 136.23 252.93 117.188 252.93 94.2383 c 0
EndSplineSet
EndChar
StartChar: t
Encoding: 116 116 85
Width: 227
Flags: W
HStem: -8 48<126 171> 285 30<144 208>
VStem: 49 95<64 285>
Fore
227 68 m 1
 206 25 179 -8 126 -8 c 0
 80 -8 49 16 49 64 c 2
 49 285 l 1
 14 285 l 1
 14 303 l 1
 58 341 94 383 127 430 c 1
 144 430 l 1
 144 315 l 1
 208 315 l 1
 208 285 l 1
 144 285 l 1
 144 79 l 2
 144 61 147 40 171 40 c 0
 191 40 202 61 210 76 c 1
 227 68 l 1
EndSplineSet
Back
213.867 59.082 m 1
 206.055 41.0156 193.359 25.8789 175.293 13.6719 c 0
 157.715 0.976562 140.137 -4.88281 123.047 -4.88281 c 0
 76.1719 -4.88281 53.2227 27.832 53.2227 94.2383 c 2
 53.2227 303.223 l 1
 18.0664 303.223 l 1
 11.2305 318.848 l 1
 17.0898 324.219 22.9492 329.59 29.2969 334.961 c 0
 35.6445 340.332 41.5039 346.191 46.875 352.051 c 0
 58.1055 363.77 69.3359 377.441 80.5664 393.066 c 0
 91.3086 408.203 103.516 426.758 117.188 449.219 c 1
 126.953 417.969 l 1
 126.953 344.238 l 1
 196.777 344.238 l 1
 196.777 303.223 l 1
 126.953 303.223 l 1
 126.953 104.98 l 2
 126.953 66.8945 135.742 47.8516 152.832 47.8516 c 0
 164.551 47.8516 178.223 58.1055 194.824 78.125 c 1
 213.867 59.082 l 1
EndSplineSet
EndChar
StartChar: u
Encoding: 117 117 86
Width: 379
Flags: W
HStem: -10 45<137 178> 298 17<191 206>
VStem: 44 95<68 263> 234 94<64 263>
Fore
367 14 m 1
 322 9 278 5 234 -9 c 1
 234 36 l 1
 206 11 177 -10 137 -10 c 0
 77 -10 44 27 44 86 c 2
 44 258 l 2
 44 285 38 294 11 298 c 1
 11 315 l 1
 139 315 l 1
 139 83 l 2
 139 56 145 35 178 35 c 0
 201 35 218 49 234 65 c 1
 234 258 l 2
 234 292 221 296 191 298 c 1
 191 315 l 1
 328 315 l 1
 328 69 l 2
 328 41 338 30 367 29 c 1
 367 14 l 1
EndSplineSet
Back
374.023 26.8555 m 1
 368.164 25.8789 360.84 23.9258 352.051 22.4609 c 0
 343.262 20.9961 334.473 18.5547 325.195 15.1367 c 2
 257.812 -7.8125 l 1
 254.883 41.9922 l 1
 240.234 26.8555 l 2
 228.516 16.1133 216.309 8.30078 203.613 2.92969 c 0
 190.43 -2.44141 175.781 -4.88281 160.156 -4.88281 c 0
 148.438 -4.88281 137.695 -3.41797 126.953 -0.488281 c 0
 116.211 2.44141 106.445 6.83594 97.168 13.1836 c 0
 84.4727 20.9961 75.6836 32.2266 70.8008 46.875 c 0
 66.4062 61.5234 63.9648 77.6367 63.9648 95.2148 c 2
 63.9648 275.879 l 2
 63.9648 290.527 60.5469 300.781 54.1992 306.152 c 0
 50.7812 308.594 46.3867 310.547 41.5039 312.012 c 0
 36.6211 313.477 29.2969 313.965 20.0195 313.965 c 1
 20.0195 339.844 l 1
 142.09 339.844 l 1
 142.09 99.1211 l 2
 142.09 90.8203 144.043 83.0078 147.461 74.707 c 0
 151.367 66.4062 156.738 60.5469 164.062 57.1289 c 0
 167.48 55.6641 171.387 54.6875 175.781 54.1992 c 0
 180.664 53.2227 185.059 53.2227 188.965 53.2227 c 0
 207.52 53.2227 226.562 61.0352 246.094 77.1484 c 0
 249.512 80.5664 250.977 89.8438 250.977 104.98 c 2
 250.977 274.902 l 2
 250.977 290.527 247.07 300.293 239.258 304.688 c 0
 231.934 308.594 217.773 311.035 198.242 311.035 c 1
 198.242 339.844 l 1
 331.055 339.844 l 1
 331.055 85.9375 l 2
 331.055 72.7539 333.496 63.9648 338.867 60.0586 c 0
 344.238 56.1523 355.957 54.1992 374.023 54.1992 c 1
 374.023 26.8555 l 1
EndSplineSet
EndChar
StartChar: v
Encoding: 118 118 87
Width: 341
Flags: W
HStem: -10 21G<165 182> 298 17<14 22.5 172 185 228 246.149 318.5 331>
Fore
331 298 m 1
 306 296 300 283 292 261 c 2
 182 -10 l 1
 165 -10 l 1
 83 193 l 2
 71 222 58 252 43 280 c 0
 35 296 31 296 14 298 c 1
 14 315 l 1
 185 315 l 1
 185 298 l 1
 172 297 149 298 149 280 c 0
 149 268 202 139 209 121 c 1
 220 147 266 244 266 276 c 0
 266 298 244 298 228 298 c 1
 228 315 l 1
 331 315 l 1
 331 298 l 1
EndSplineSet
Back
354.004 312.012 m 1
 347.168 312.012 340.82 311.035 334.473 308.594 c 0
 328.125 306.152 324.219 302.246 321.777 296.875 c 2
 198.242 -13.1836 l 1
 169.922 3.90625 l 1
 49.8047 290.039 l 1
 48.8281 291.992 47.3633 294.434 45.4102 297.363 c 0
 43.9453 300.293 41.5039 302.734 39.0625 304.199 c 0
 35.1562 307.129 30.7617 309.57 26.8555 310.547 c 0
 22.9492 311.523 17.0898 312.012 8.78906 312.012 c 1
 8.78906 339.844 l 1
 166.992 339.844 l 1
 166.992 312.988 l 1
 159.668 312.5 153.809 311.523 148.926 311.035 c 0
 144.531 310.547 140.137 308.105 137.207 305.176 c 0
 134.766 303.223 133.789 299.805 133.789 295.898 c 0
 133.789 292.48 135.254 287.598 138.184 280.762 c 2
 204.102 116.211 l 1
 270.996 284.18 l 2
 272.461 288.086 272.949 291.016 272.949 292.969 c 0
 272.949 298.34 271.484 302.734 268.066 306.152 c 0
 265.137 309.57 261.719 311.035 257.324 311.523 c 0
 252.93 312.012 246.094 312.012 235.84 312.012 c 1
 235.84 339.844 l 1
 354.004 339.844 l 1
 354.004 312.012 l 1
EndSplineSet
EndChar
StartChar: w
Encoding: 119 119 88
Width: 492
Flags: W
HStem: -10 21G<156 172 327 343> 298 17<154 167 201 361 391 399.5>
DStem: 245 237 255 197 199 120 172 -10
Fore
483 298 m 1
 462 294 456 284 449 264 c 2
 343 -10 l 1
 327 -10 l 1
 259 197 l 1
 255 197 l 1
 172 -10 l 1
 156 -10 l 1
 55 246 l 2
 46 266 40 294 16 298 c 1
 16 315 l 1
 167 315 l 1
 167 298 l 1
 154 297 141 294 141 278 c 0
 141 262 191 141 199 120 c 1
 245 237 l 1
 236 268 237 294 201 298 c 1
 201 315 l 1
 361 315 l 1
 361 298 l 1
 349 298 328 298 328 281 c 0
 328 264 362 153 369 125 c 1
 370 125 l 1
 378 148 423 257 423 273 c 0
 423 295 408 296 391 298 c 1
 391 315 l 1
 483 315 l 1
 483 298 l 1
EndSplineSet
Back
522.949 313.965 m 1
 510.254 310.547 500 299.316 492.188 279.785 c 2
 375 -11.2305 l 1
 349.121 9.76562 l 1
 278.809 182.129 l 1
 189.941 -11.2305 l 1
 160.156 9.76562 l 1
 44.9219 293.945 l 2
 40.5273 304.688 30.7617 311.035 17.0898 312.988 c 1
 17.0898 339.844 l 1
 166.016 339.844 l 1
 166.016 312.988 l 1
 143.555 311.035 131.836 305.664 131.836 296.875 c 0
 131.836 290.527 136.719 274.414 145.996 249.023 c 1
 199.219 112.793 l 1
 254.883 232.91 l 1
 232.91 293.945 l 2
 230.957 299.805 225.586 304.688 216.797 308.105 c 0
 208.496 311.523 199.219 312.988 189.941 312.988 c 1
 189.941 339.844 l 1
 356.934 339.844 l 1
 356.934 313.965 l 1
 319.824 305.176 l 1
 316.895 301.758 314.941 297.852 314.941 293.945 c 0
 314.941 291.504 319.824 276.367 330.078 249.023 c 2
 378.906 112.793 l 1
 434.082 249.023 l 2
 436.035 254.395 437.988 260.742 439.453 268.066 c 0
 441.406 275.391 441.895 281.738 441.895 287.109 c 0
 441.895 304.199 433.105 312.988 416.016 312.988 c 1
 416.016 339.844 l 1
 522.949 339.844 l 1
 522.949 313.965 l 1
EndSplineSet
EndChar
StartChar: x
Encoding: 120 120 89
Width: 341
Flags: W
HStem: 0 16<10 17.8333 113 125 166 175> 298 17<8 179 211 231.752 316.5 326>
Fore
330 0 m 1
 166 0 l 1
 166 16 l 1
 175 17 197 18 197 31 c 0
 197 45 154 102 145 117 c 1
 135 103 91 48 91 34 c 0
 91 17 113 17 125 16 c 1
 125 0 l 1
 10 0 l 1
 10 16 l 1
 57 22 105 103 131 137 c 1
 44 272 l 2
 33 287 27 296 8 298 c 1
 8 315 l 5
 179 315 l 1
 179 298 l 1
 170 298 147 298 147 285 c 0
 147 272 186 219 195 207 c 1
 204 218 246 266 246 281 c 0
 246 300 224 298 211 298 c 1
 211 315 l 1
 326 315 l 1
 326 298 l 1
 307 296 290 287 278 272 c 2
 209 186 l 1
 310 30 l 2
 315 22 322 19 330 16 c 1
 330 0 l 1
EndSplineSet
Back
375 0 m 1
 211.914 0 l 1
 211.914 24.9023 l 1
 234.863 28.8086 l 2
 237.793 29.7852 238.77 32.7148 238.77 38.0859 c 0
 238.77 39.5508 238.281 41.5039 237.305 44.4336 c 0
 236.328 47.3633 234.375 51.2695 230.957 56.1523 c 2
 181.152 132.812 l 1
 131.836 57.1289 l 2
 124.023 44.9219 119.629 36.1328 119.141 30.7617 c 0
 118.164 28.8086 120.605 27.3438 125.977 26.3672 c 0
 131.348 25.3906 138.672 24.9023 147.949 24.9023 c 1
 147.949 0 l 1
 25.8789 0 l 1
 25.8789 24.9023 l 1
 34.1797 26.3672 40.0391 27.832 44.4336 28.8086 c 0
 48.8281 30.2734 51.7578 31.7383 54.1992 33.2031 c 0
 62.5 38.5742 71.2891 47.8516 80.0781 61.0352 c 2
 158.203 174.805 l 1
 95.2148 272.949 l 2
 80.5664 294.922 l 0
 75.6836 302.246 69.8242 306.641 62.9883 308.105 c 2
 30.7617 312.012 l 1
 30.7617 339.844 l 1
 198.242 339.844 l 1
 198.242 312.012 l 1
 177.246 312.012 166.992 309.57 166.992 304.199 c 0
 166.992 297.363 178.223 276.855 201.172 242.188 c 1
 212.402 259.277 221.191 272.949 228.027 283.691 c 0
 234.863 293.945 237.793 300.781 237.793 304.199 c 0
 237.793 309.57 228.516 312.012 209.961 312.012 c 1
 209.961 339.844 l 1
 340.82 339.844 l 1
 340.82 312.012 l 1
 313.477 312.012 293.945 303.223 282.227 285.156 c 2
 225.098 203.125 l 1
 314.941 65.918 l 2
 322.266 54.6875 331.055 45.4102 340.332 38.0859 c 0
 350.098 30.7617 361.816 26.3672 375 24.9023 c 1
 375 0 l 1
EndSplineSet
EndChar
StartChar: y
Encoding: 121 121 90
Width: 341
Flags: W
HStem: -140 98<56 74> 298 17<11 182 225 242.857 319.667 328>
VStem: 11 81<-93 -85>
Fore
328 298 m 1
 303 295 296 283 288 261 c 2
 186 -10 l 2
 165 -69 149 -140 74 -140 c 0
 43 -140 11 -121 11 -87 c 0
 11 -60 29 -42 56 -42 c 0
 92 -42 92 -63 92 -89 c 0
 92 -96 98 -101 104 -101 c 0
 135 -101 154 -30 161 -9 c 1
 79 193 l 1
 68 222 55 252 40 280 c 0
 31 296 28 296 11 298 c 1
 11 315 l 1
 182 315 l 1
 182 298 l 1
 169 298 145 298 145 280 c 0
 145 268 207 117 208 114 c 1
 218 142 262 246 262 276 c 0
 262 298 241 298 225 298 c 1
 225 315 l 1
 328 315 l 1
 328 298 l 1
EndSplineSet
Back
229.004 -6.83594 m 1
 339.844 291.016 l 2
 346.68 309.082 358.398 317.871 375 317.871 c 1
 375 346.191 l 1
 258.789 346.191 l 1
 258.789 317.871 l 1
 272.461 317.871 281.738 316.406 287.109 312.988 c 0
 291.016 310.547 292.969 306.641 292.969 301.758 c 1
 230.957 119.141 l 1
 155.762 287.109 l 2
 152.832 294.922 150.879 300.781 150.879 305.176 c 0
 150.879 313.477 165.039 317.871 192.871 317.871 c 1
 192.871 346.191 l 1
 26.8555 346.191 l 1
 26.8555 317.871 l 1
 47.8516 313.965 60.0586 308.105 63.9648 299.805 c 2
 189.941 19.043 l 1
 168.945 -35.1562 l 2
 157.227 -66.8945 143.555 -83.0078 128.906 -83.0078 c 0
 126.465 -83.0078 123.535 -82.5195 120.117 -81.0547 c 0
 116.699 -79.5898 113.281 -78.125 109.863 -77.1484 c 0
 104.492 -74.2188 99.6094 -72.2656 94.7266 -70.8008 c 0
 89.3555 -69.8242 83.4961 -68.8477 77.1484 -68.8477 c 0
 61.5234 -68.8477 50.293 -73.7305 42.9688 -83.4961 c 0
 35.6445 -93.2617 32.2266 -103.516 32.2266 -115.234 c 0
 32.2266 -128.906 37.1094 -140.625 47.3633 -149.414 c 0
 57.6172 -158.691 73.7305 -163.086 95.2148 -163.086 c 0
 145.02 -163.086 189.453 -110.84 229.004 -6.83594 c 1
EndSplineSet
EndChar
StartChar: z
Encoding: 122 122 91
Width: 303
Flags: W
HStem: 0 21<150 174.373> 293 22<31 173.933>
DStem: 174 293 284 297 14 17 126 22
Fore
287 109 m 1
 276 0 l 1
 14 0 l 1
 14 17 l 1
 174 293 l 1
 104 292 63 297 44 218 c 1
 26 218 l 1
 31 315 l 1
 284 315 l 1
 284 297 l 1
 126 22 l 1
 150 21 l 2
 214 20 253 44 268 109 c 1
 287 109 l 1
EndSplineSet
Back
321.777 109.863 m 1
 312.012 0 l 1
 26.8555 0 l 1
 26.8555 20.0195 l 1
 208.984 299.805 l 1
 125.977 299.805 l 2
 106.445 299.805 93.75 293.945 87.4023 282.227 c 0
 81.0547 270.02 77.1484 254.883 76.1719 236.816 c 1
 41.9922 236.816 l 1
 45.8984 339.844 l 1
 312.012 339.844 l 1
 312.012 317.871 l 1
 127.93 39.0625 l 1
 208.984 39.0625 l 2
 236.328 39.0625 255.859 44.4336 267.578 56.1523 c 0
 279.297 67.3828 287.109 88.3789 291.992 119.141 c 1
 321.777 109.863 l 1
EndSplineSet
EndChar
StartChar: braceleft
Encoding: 123 123 92
Width: 269
Flags: W
VStem: 88 72<-40 106 248 394>
Fore
88 -23 m 2
 88 99 l 2
 88 144 74 165 15 178 c 1
 74 191 88 212 88 257 c 2
 88 380 l 2
 88 463 141 477 232 477 c 1
 232 468 l 1
 177 458 160 432 160 384 c 2
 160 267 l 2
 160 218 148 191 82 179 c 1
 82 178 l 1
 148 165 160 138 160 89 c 2
 160 -27 l 2
 160 -74 177 -102 232 -111 c 1
 232 -119 l 1
 141 -119 88 -106 88 -23 c 2
EndSplineSet
Back
201.172 -121.094 m 1
 179.688 -121.094 161.621 -119.629 146.484 -117.188 c 0
 131.348 -114.258 119.629 -109.375 110.84 -102.051 c 0
 89.8438 -85.4492 79.1016 -57.1289 79.1016 -17.0898 c 2
 79.1016 101.074 l 2
 79.1016 122.559 73.7305 138.672 62.9883 149.414 c 0
 52.2461 160.645 32.2266 170.41 2.92969 179.199 c 1
 31.7383 187.012 51.2695 196.777 62.5 208.008 c 0
 73.7305 219.238 79.1016 234.863 79.1016 254.883 c 2
 79.1016 376.953 l 2
 79.1016 416.992 89.8438 444.824 110.84 459.961 c 0
 127.441 473.145 157.715 479.98 201.172 479.98 c 1
 201.172 456.055 l 1
 179.199 450.684 164.062 442.383 155.762 431.152 c 0
 147.949 419.434 144.043 402.832 144.043 379.883 c 2
 144.043 266.113 l 2
 144.043 238.77 140.137 217.773 132.812 203.125 c 1
 125 191.895 115.234 183.594 103.027 179.199 c 1
 119.629 170.41 130.859 159.668 136.23 147.461 c 0
 141.113 135.254 144.043 116.211 144.043 90.8203 c 2
 144.043 -20.9961 l 2
 144.043 -43.457 147.949 -60.5469 156.738 -71.2891 c 0
 165.039 -82.5195 179.688 -91.3086 201.172 -98.1445 c 1
 201.172 -121.094 l 1
EndSplineSet
EndChar
StartChar: bar
Encoding: 124 124 93
Width: 150
Flags: W
HStem: 452 20G<45 105>
VStem: 45 60<-130 472>
Fore
45 -130 m 1
 45 472 l 1
 105 472 l 1
 105 -130 l 1
 45 -130 l 1
EndSplineSet
Back
46.875 -117.188 m 1
 12.207 -117.188 l 1
 12.207 477.051 l 1
 46.875 477.051 l 1
 46.875 -117.188 l 1
EndSplineSet
EndChar
StartChar: braceright
Encoding: 125 125 94
Width: 269
Flags: W
VStem: 109 72<-40 106 248 394>
Fore
37 -119 m 1
 37 -111 l 1
 92 -101 109 -74 109 -27 c 2
 109 90 l 2
 109 139 121 166 187 178 c 1
 187 180 l 1
 121 192 109 219 109 268 c 2
 109 384 l 2
 109 432 92 459 37 468 c 1
 37 477 l 1
 128 477 181 463 181 380 c 2
 181 258 l 2
 181 213 195 192 254 179 c 1
 195 166 181 145 181 100 c 2
 181 -23 l 2
 181 -106 128 -119 37 -119 c 1
EndSplineSet
Back
180.176 169.922 m 1
 162.109 164.551 149.414 157.227 142.578 146.973 c 0
 135.742 137.207 131.836 121.582 131.836 101.074 c 2
 131.836 -17.0898 l 2
 131.836 -57.1289 122.07 -85.4492 102.051 -102.051 c 0
 86.4258 -114.746 56.1523 -121.094 11.2305 -121.094 c 1
 11.2305 -98.1445 l 1
 49.8047 -87.4023 68.8477 -61.5234 68.8477 -20.9961 c 2
 68.8477 90.8203 l 2
 68.8477 119.141 72.7539 139.16 80.0781 151.855 c 2
 79.1016 150.879 l 1
 84.9609 162.109 94.7266 171.387 107.91 178.223 c 1
 92.7734 186.035 82.5195 196.289 77.1484 209.473 c 0
 71.7773 222.656 68.8477 241.211 68.8477 266.113 c 2
 68.8477 379.883 l 2
 68.8477 401.855 64.4531 418.945 56.1523 430.664 c 0
 47.3633 442.383 32.2266 450.684 11.2305 456.055 c 1
 11.2305 479.98 l 1
 56.1523 479.98 86.9141 473.145 103.027 459.961 c 0
 122.559 444.824 131.836 416.504 131.836 375.977 c 2
 131.836 254.883 l 2
 131.836 219.727 147.949 196.777 180.176 187.012 c 1
 180.176 169.922 l 1
EndSplineSet
EndChar
StartChar: asciitilde
Encoding: 126 126 95
Width: 355
Flags: W
Fore
311 227 m 1
 335 180 l 1
 315 151 292 121 250 121 c 0
 225 121 203 131 180 143 c 0
 158 156 133 167 102 167 c 0
 72 167 55 142 44 118 c 1
 20 166 l 1
 35 195 59 225 105 225 c 0
 128 225 155 214 181 203 c 0
 206 192 232 178 251 178 c 0
 278 178 295 203 311 227 c 1
EndSplineSet
Back
347.168 168.945 m 1
 325.195 143.066 l 1
 310.059 128.906 l 2
 295.41 117.188 276.855 110.84 253.906 110.84 c 0
 246.094 110.84 235.84 112.305 223.633 115.723 c 0
 210.938 118.652 196.777 123.535 180.176 130.859 c 0
 150.879 143.555 127.441 149.902 110.84 149.902 c 0
 94.2383 149.902 76.1719 133.789 57.1289 101.074 c 1
 20.9961 145.02 l 1
 44.4336 184.57 75.1953 204.102 113.77 204.102 c 0
 131.348 204.102 156.25 196.777 188.965 183.105 c 0
 204.102 176.758 217.285 172.363 228.516 169.434 c 0
 239.258 166.504 248.535 164.551 254.883 164.062 c 0
 270.508 164.062 289.551 180.176 312.012 212.891 c 1
 347.168 168.945 l 1
EndSplineSet
EndChar
StartChar: uni0E10.descless
Encoding: 128 63232 96
Width: 366
Flags: W
HStem: 0 21G<184 258> 103 31<105 107> 201 31<103 116> 308 46<233 246> 333 60<129 136> 368 20G<277 316>
VStem: 55 26<156 177> 184 74<0 37.4431>
Fore
258 201 m 2
 258 0 l 1
 184 0 l 1
 184 72 174 122 156 155 c 1
 153 127 133 103 105 103 c 0
 77 103 55 138 55 166 c 0
 55 204 75 232 116 232 c 0
 144 232 166 222 184 201 c 1
 181 230 165 250 132 261 c 0
 106 269 68 273 20 273 c 1
 29 338 77 393 134 393 c 0
 153 393 172 392 191 381 c 2
 206 373 l 2
 222 365 237 354 244 354 c 0
 259 354 268 369 277 388 c 1
 316 388 l 1
 301 335 274 308 233 308 c 0
 220 308 191 316 167 323 c 0
 150 328 137 333 132 333 c 0
 106 333 89 326 78 310 c 1
 100 310 l 2
 140 310 174 304 201 288 c 0
 237 268 258 238 258 201 c 2
81 167 m 0
 81 148 90 134 105 134 c 0
 120 134 131 148 131 167 c 0
 131 187 120 201 105 201 c 0
 90 201 81 187 81 167 c 0
EndSplineSet
Back
252.93 196.777 m 2
 252.93 214.844 248.047 230.957 237.793 245.605 c 0
 228.027 259.766 214.355 271.973 196.777 282.227 c 0
 183.594 290.039 168.457 295.898 151.855 298.828 c 0
 135.254 302.246 117.188 304.199 98.1445 304.199 c 2
 76.1719 304.199 l 1
 86.4258 318.848 104.492 326.172 128.906 326.172 c 0
 131.836 326.172 136.23 325.195 142.09 323.242 c 0
 147.949 320.801 155.273 318.848 164.062 315.918 c 0
 175.293 312.5 187.012 309.57 199.707 306.641 c 0
 211.914 303.711 221.191 301.758 228.027 301.758 c 0
 268.066 301.758 294.922 328.125 309.082 379.883 c 1
 270.996 379.883 l 1
 266.113 370.605 261.719 362.793 256.836 356.445 c 0
 252.441 350.098 246.094 347.168 238.77 347.168 c 0
 235.84 347.168 230.469 349.121 223.633 353.027 c 0
 216.309 356.934 209.473 360.84 202.148 365.234 c 2
 187.012 373.047 l 2
 177.734 378.418 168.457 381.836 159.18 382.812 c 0
 149.902 384.277 140.137 384.766 130.859 384.766 c 0
 117.188 384.766 103.516 381.836 90.8203 375.488 c 0
 78.125 369.141 67.3828 360.84 57.6172 350.098 c 0
 47.8516 339.355 39.5508 326.66 33.2031 312.5 c 0
 26.3672 298.34 21.9727 283.203 20.0195 267.09 c 1
 67.3828 267.09 103.516 263.184 128.906 255.859 c 0
 145.508 250.488 158.203 243.164 166.016 232.91 c 0
 173.828 223.145 178.711 210.938 180.176 196.777 c 1
 163.574 216.797 141.113 227.051 113.77 227.051 c 0
 93.2617 227.051 78.125 221.191 68.3594 208.984 c 0
 58.5938 196.777 54.1992 181.641 54.1992 163.086 c 0
 54.1992 148.926 58.5938 135.254 67.8711 121.582 c 0
 77.1484 107.91 88.8672 101.074 103.027 101.074 c 0
 116.211 101.074 127.441 105.957 137.207 116.211 c 0
 146.484 125.977 151.855 138.184 152.832 151.855 c 1
 161.621 135.254 168.457 114.746 172.852 89.8438 c 0
 177.734 65.4297 180.176 35.1562 180.176 0 c 1
 252.93 0 l 1
 252.93 196.777 l 2
79.1016 164.062 m 0
 79.1016 173.34 81.0547 181.152 85.4492 187.5 c 0
 89.8438 193.848 95.7031 196.777 103.027 196.777 c 0
 110.352 196.777 116.211 193.848 121.094 187.5 c 0
 125.488 181.152 127.93 173.34 127.93 164.062 c 0
 127.93 154.785 125.488 146.973 121.094 140.625 c 0
 116.211 134.277 110.352 130.859 103.027 130.859 c 0
 95.7031 130.859 89.8438 134.277 85.4492 140.625 c 0
 81.0547 146.973 79.1016 154.785 79.1016 164.062 c 0
EndSplineSet
KernsSLIF: 212 20 0 0 215 20 0 0 214 20 0 0 213 20 0 0
EndChar
StartChar: uni0E34.left
Encoding: 129 63233 97
Width: 0
Flags: W
HStem: 454 40<-329 -289> 520 49<-308 -279>
VStem: -408 70<491 500>
Fore
-246 487 m 0
 -227 482 -210 477 -195 470 c 1
 -215 494 -252 520 -290 520 c 0
 -309 520 -338 517 -338 500 c 0
 -338 493 -323 494 -310 494 c 0
 -283 494 -268 491 -246 487 c 0
-153 409 m 1
 -175 425 -207 436 -239 444 c 0
 -259 449 -284 454 -307 454 c 2
 -325 454 l 2
 -332 454 -338 454 -343 453 c 0
 -368 453 -382 455 -393 465 c 0
 -401 470 -408 482 -408 491 c 0
 -408 515 -384 543 -365 552 c 1
 -345 564 -322 569 -294 569 c 0
 -225 569 -138 502 -138 416 c 1
 -153 409 l 1
EndSplineSet
Back
-241.211 477.051 m 0
 -231.445 474.121 -222.656 471.68 -214.355 469.238 c 0
 -206.055 466.309 -198.242 463.379 -190.918 459.961 c 1
 -201.172 472.168 -214.355 483.398 -230.957 493.652 c 0
 -247.559 503.906 -265.137 508.789 -284.18 508.789 c 0
 -293.457 508.789 -303.711 507.812 -314.453 505.371 c 0
 -325.684 502.93 -331.055 498.047 -331.055 490.234 c 0
 -331.055 486.816 -328.125 484.863 -321.777 484.375 c 0
 -315.918 484.375 -310.059 483.887 -304.199 483.887 c 0
 -290.527 483.887 -279.297 483.398 -270.508 481.934 c 0
 -261.719 480.469 -251.465 479.004 -241.211 477.051 c 0
-149.902 400.879 m 1
 -160.645 408.203 -173.34 415.039 -188.477 420.41 c 0
 -203.613 426.27 -218.75 431.152 -233.887 435.059 c 0
 -244.141 437.5 -254.883 439.941 -266.602 441.895 c 0
 -278.32 443.848 -289.551 444.824 -300.781 444.824 c 0
 -306.152 444.824 -312.012 444.824 -317.871 444.824 c 0
 -324.707 444.824 -330.566 444.824 -335.938 443.848 c 0
 -348.145 443.848 -357.91 444.824 -365.723 445.801 c 0
 -373.047 447.266 -379.883 450.195 -384.766 455.078 c 0
 -389.16 457.52 -392.578 461.426 -395.508 466.309 c 0
 -398.438 471.68 -399.902 476.562 -399.902 480.957 c 0
 -399.902 492.188 -395.02 503.906 -385.742 516.113 c 0
 -375.977 527.832 -366.211 536.133 -356.934 541.016 c 0
 -337.891 551.758 -314.453 557.129 -288.086 557.129 c 0
 -271.484 557.129 -253.906 553.223 -235.352 545.41 c 0
 -217.285 537.598 -200.684 527.344 -186.035 514.16 c 0
 -171.387 500.488 -159.18 484.863 -149.414 466.309 c 0
 -139.648 448.242 -134.766 428.223 -134.766 407.227 c 1
 -149.902 400.879 l 1
EndSplineSet
EndChar
StartChar: uni0E35.left
Encoding: 130 63234 98
Width: 0
Flags: W
HStem: 463 40<-329 -289> 530 49<-307 -279>
VStem: -408 70<500 510> -208 56<550 612>
Fore
-152 612 m 1
 -152 485 l 1
 -141 465 -138 440 -138 406 c 1
 -170 428 -207 443 -239 452 c 0
 -259 457 -284 463 -307 463 c 2
 -325 463 l 2
 -332 463 -338 463 -343 462 c 0
 -368 462 -382 464 -393 473 c 0
 -401 478 -408 491 -408 500 c 0
 -408 524 -384 551 -365 563 c 0
 -345 574 -322 579 -294 579 c 0
 -264 579 -236 568 -208 550 c 1
 -208 612 l 1
 -152 612 l 1
-246 496 m 0
 -227 491 -210 486 -195 478 c 1
 -215 503 -252 530 -290 530 c 0
 -309 530 -338 526 -338 510 c 0
 -338 502 -323 503 -310 503 c 0
 -283 503 -268 500 -246 496 c 0
EndSplineSet
Back
-148.926 599.121 m 1
 -204.102 599.121 l 1
 -204.102 539.062 l 1
 -217.285 547.852 -230.957 554.688 -245.117 559.57 c 0
 -258.789 564.453 -273.438 566.895 -288.086 566.895 c 0
 -314.453 566.895 -337.891 561.523 -356.934 550.781 c 0
 -366.211 545.898 -375.977 537.109 -385.742 524.902 c 0
 -395.02 513.184 -399.902 501.465 -399.902 490.234 c 0
 -399.902 485.352 -398.438 480.469 -395.508 475.098 c 0
 -392.578 469.727 -389.16 465.82 -384.766 462.891 c 0
 -379.883 458.496 -373.047 455.566 -365.723 454.102 c 0
 -357.91 452.637 -348.145 452.148 -335.938 452.148 c 0
 -330.566 452.637 -324.707 453.125 -317.871 453.125 c 0
 -312.012 453.125 -306.152 453.125 -300.781 453.125 c 0
 -289.551 453.125 -278.32 452.148 -266.602 450.195 c 0
 -254.883 448.242 -244.141 445.801 -233.887 442.871 c 0
 -218.75 438.477 -202.148 432.129 -184.57 424.805 c 0
 -166.992 417.48 -150.391 408.691 -134.766 397.949 c 1
 -134.766 414.551 -136.23 429.199 -138.184 441.406 c 0
 -140.137 453.613 -143.555 464.844 -148.926 475.098 c 1
 -148.926 599.121 l 1
-241.211 485.84 m 0
 -251.465 487.793 -261.719 489.746 -270.508 491.211 c 0
 -279.297 492.188 -290.527 493.164 -304.199 493.164 c 0
 -310.059 493.164 -315.918 493.164 -321.777 493.652 c 0
 -328.125 493.652 -331.055 495.605 -331.055 499.023 c 0
 -331.055 506.836 -325.684 512.207 -314.453 515.137 c 0
 -303.711 517.578 -293.457 519.043 -284.18 519.043 c 0
 -265.137 519.043 -247.559 513.672 -230.957 502.93 c 0
 -214.355 492.188 -201.172 480.469 -190.918 467.773 c 1
 -198.242 472.168 -206.055 475.098 -214.355 478.027 c 0
 -222.656 480.469 -231.445 483.398 -241.211 485.84 c 0
EndSplineSet
EndChar
StartChar: uni0E36.left
Encoding: 131 63235 99
Width: 0
Flags: W
HStem: 463 40<-329 -289> 530 49<-307 -279> 572 40<-199 -193>
VStem: -408 70<500 510> -181 43<551 553>
Fore
-138 423 m 1
 -153 417 l 1
 -175 432 -207 443 -239 452 c 0
 -259 457 -284 463 -307 463 c 2
 -325 463 l 2
 -332 463 -338 463 -343 462 c 0
 -368 462 -382 464 -393 473 c 0
 -401 478 -408 491 -408 500 c 0
 -408 524 -384 551 -365 563 c 0
 -345 574 -322 579 -294 579 c 0
 -282 579 -270 577 -257 573 c 1
 -248 596 -225 612 -199 612 c 0
 -166 612 -138 584 -138 551 c 0
 -138 532 -146 516 -162 503 c 1
 -146 480 -138 453 -138 423 c 1
-246 496 m 0
 -227 491 -210 486 -195 478 c 1
 -215 503 -252 530 -290 530 c 0
 -309 530 -338 526 -338 510 c 0
 -338 502 -323 503 -310 503 c 0
 -283 503 -268 500 -246 496 c 0
-219 551 m 0
 -219 540 -210 532 -199 532 c 0
 -188 532 -181 540 -181 551 c 0
 -181 563 -188 572 -199 572 c 0
 -210 572 -219 563 -219 551 c 0
EndSplineSet
Back
-134.766 414.062 m 1
 -134.766 443.848 -143.066 470.215 -159.18 493.164 c 1
 -143.066 504.883 -134.766 520.508 -134.766 540.039 c 0
 -134.766 556.152 -141.113 569.824 -152.832 581.543 c 0
 -165.039 593.262 -179.199 599.121 -194.824 599.121 c 0
 -207.52 599.121 -219.238 595.703 -229.492 588.379 c 0
 -239.746 581.543 -247.559 572.266 -251.953 561.035 c 1
 -264.16 564.941 -275.879 566.895 -288.086 566.895 c 0
 -314.453 566.895 -337.891 561.523 -356.934 550.781 c 0
 -366.211 545.898 -375.977 537.109 -385.742 524.902 c 0
 -395.02 513.184 -399.902 501.465 -399.902 490.234 c 0
 -399.902 485.352 -398.438 480.469 -395.508 475.098 c 0
 -392.578 469.727 -389.16 465.82 -384.766 462.891 c 0
 -379.883 458.496 -373.047 455.566 -365.723 454.102 c 0
 -357.91 452.637 -348.145 452.148 -335.938 452.148 c 0
 -330.566 452.637 -324.707 453.125 -317.871 453.125 c 0
 -312.012 453.125 -306.152 453.125 -300.781 453.125 c 0
 -289.551 453.125 -278.32 452.148 -266.602 450.195 c 0
 -254.883 448.242 -244.141 445.801 -233.887 442.871 c 0
 -218.75 438.477 -203.613 433.105 -188.477 427.734 c 0
 -173.34 421.875 -160.645 415.527 -149.902 408.203 c 1
 -134.766 414.062 l 1
-241.211 485.84 m 0
 -251.465 487.793 -261.719 489.746 -270.508 491.211 c 0
 -279.297 492.188 -290.527 493.164 -304.199 493.164 c 0
 -310.059 493.164 -315.918 493.164 -321.777 493.652 c 0
 -328.125 493.652 -331.055 495.605 -331.055 499.023 c 0
 -331.055 506.836 -325.684 512.207 -314.453 515.137 c 0
 -303.711 517.578 -293.457 519.043 -284.18 519.043 c 0
 -265.137 519.043 -247.559 513.672 -230.957 502.93 c 0
 -214.355 492.188 -201.172 480.469 -190.918 467.773 c 1
 -198.242 472.168 -206.055 475.098 -214.355 478.027 c 0
 -222.656 480.469 -231.445 483.398 -241.211 485.84 c 0
-213.867 540.039 m 0
 -213.867 545.41 -212.402 549.805 -208.496 554.199 c 0
 -204.59 558.105 -200.195 560.059 -194.824 560.059 c 0
 -189.453 560.059 -185.547 558.105 -182.129 554.199 c 0
 -178.711 549.805 -176.758 545.41 -176.758 540.039 c 0
 -176.758 534.668 -178.711 530.273 -182.129 526.367 c 0
 -185.547 522.949 -189.453 520.996 -194.824 520.996 c 0
 -200.195 520.996 -204.59 522.949 -208.496 526.367 c 0
 -212.402 530.273 -213.867 534.668 -213.867 540.039 c 0
EndSplineSet
EndChar
StartChar: uni0E37.left
Encoding: 132 63236 100
Width: 0
Flags: W
HStem: 442 20G<-355.5 -337.5> 463 40<-329 -289>
VStem: -408 70<500 510> -197 45<541 612>
Fore
-294 579 m 2
 -278 578 l 1
 -262 575 l 1
 -262 612 l 1
 -217 612 l 1
 -217 556 l 1
 -213 553 -210 551 -209 550 c 2
 -197 541 l 1
 -197 612 l 1
 -152 612 l 1
 -152 485 l 1
 -141 465 -138 440 -138 406 c 1
 -170 428 -207 443 -239 452 c 0
 -259 457 -284 463 -307 463 c 0
 -319 463 -332 462 -343 462 c 0
 -368 462 -381 465 -393 473 c 0
 -401 478 -408 491 -408 500 c 0
 -408 524 -384 551 -365 563 c 0
 -345 574 -322 582 -294 579 c 2
-246 496 m 0
 -227 491 -210 486 -195 478 c 1
 -215 503 -252 530 -290 530 c 0
 -309 530 -338 526 -338 510 c 0
 -338 502 -323 503 -310 503 c 0
 -283 503 -268 501 -246 496 c 0
EndSplineSet
Back
-288.086 566.895 m 2
 -301.27 568.359 -313.965 567.383 -325.684 563.965 c 0
 -337.402 560.547 -347.656 556.152 -356.934 550.781 c 0
 -366.211 545.898 -375.977 537.109 -385.742 524.902 c 0
 -395.02 513.184 -399.902 501.465 -399.902 490.234 c 0
 -399.902 485.352 -398.438 480.469 -395.508 475.098 c 0
 -392.578 469.727 -389.16 465.82 -384.766 462.891 c 0
 -378.906 458.984 -372.559 456.055 -365.234 454.59 c 0
 -357.91 452.637 -348.145 452.148 -335.938 452.148 c 0
 -330.566 452.148 -324.707 452.148 -318.359 452.637 c 0
 -312.012 452.637 -306.152 453.125 -300.781 453.125 c 0
 -289.551 453.125 -278.32 452.148 -266.602 450.195 c 0
 -254.883 448.242 -244.141 445.801 -233.887 442.871 c 0
 -218.75 438.477 -202.148 432.129 -184.57 424.805 c 0
 -166.992 417.48 -150.391 408.691 -134.766 397.949 c 1
 -134.766 414.551 -136.23 429.199 -138.184 441.406 c 0
 -140.137 453.613 -143.555 464.844 -148.926 475.098 c 1
 -148.926 599.121 l 1
 -192.871 599.121 l 1
 -192.871 529.785 l 1
 -205.078 539.062 l 2
 -206.543 540.527 -208.984 542.48 -212.891 544.922 c 1
 -212.891 599.121 l 1
 -256.836 599.121 l 1
 -256.836 562.988 l 1
 -271.973 565.918 l 1
 -288.086 566.895 l 2
-241.211 485.84 m 0
 -251.465 488.77 -261.719 490.723 -270.508 491.699 c 0
 -279.297 492.676 -290.527 493.164 -304.199 493.164 c 0
 -310.059 493.164 -315.918 493.164 -321.777 493.652 c 0
 -328.125 493.652 -331.055 495.605 -331.055 499.023 c 0
 -331.055 506.836 -325.684 512.207 -314.453 515.137 c 0
 -303.711 517.578 -293.457 519.043 -284.18 519.043 c 0
 -265.137 519.043 -247.559 513.672 -230.957 502.93 c 0
 -214.355 492.188 -201.172 480.469 -190.918 467.773 c 1
 -198.242 472.168 -206.055 475.098 -214.355 478.027 c 0
 -222.656 480.469 -231.445 483.398 -241.211 485.84 c 0
EndSplineSet
EndChar
StartChar: ellipsis
Encoding: 133 8230 101
Width: 750
Flags: W
HStem: -29 20<69 101 319 351 569 601>
Ref: 46 46 N 1 0 0 1 500 0
Ref: 46 46 N 1 0 0 1 250 0
Ref: 46 46 N 1 0 0 1 0 0
Back
309.082 32.2266 m 0
 309.082 10.7422 293.945 -1.95312 264.16 -5.85938 c 1
 234.863 -5.85938 218.75 6.34766 215.82 30.7617 c 1
 215.82 57.6172 231.445 70.8008 263.184 70.8008 c 0
 276.855 70.8008 288.574 66.8945 296.875 59.082 c 0
 305.176 52.2461 309.082 43.457 309.082 32.2266 c 0
455.078 32.2266 m 0
 455.078 10.7422 439.453 -1.95312 409.18 -5.85938 c 1
 380.371 -5.85938 364.746 6.34766 361.816 30.7617 c 1
 361.816 57.6172 377.441 70.8008 408.203 70.8008 c 0
 421.387 70.8008 433.105 66.8945 442.871 59.082 c 0
 450.195 52.2461 454.102 43.457 455.078 32.2266 c 0
164.062 32.2266 m 0
 164.062 6.83594 148.438 -5.85938 117.188 -5.85938 c 0
 86.4258 -5.85938 70.8008 6.83594 70.8008 32.2266 c 0
 70.8008 58.1055 86.4258 70.8008 117.188 70.8008 c 0
 148.438 70.8008 164.062 58.1055 164.062 32.2266 c 0
EndSplineSet
EndChar
StartChar: uni0E48.low_left
Encoding: 134 63237 102
Width: 0
Flags: W
DStem: -221 592 -159 592 -219 529 -162 528
Fore
-159 592 m 1
 -162 528 l 1
 -171 452 l 1
 -172 444 -184 437 -191 437 c 0
 -200 437 -210 444 -211 452 c 1
 -219 529 l 1
 -221 592 l 1
 -159 592 l 1
EndSplineSet
Back
-155.762 580.078 m 1
 -159.18 517.09 l 1
 -166.992 442.871 l 1
 -167.48 438.965 -170.41 435.547 -174.805 432.617 c 0
 -179.688 429.688 -183.594 428.223 -187.012 428.223 c 0
 -191.895 428.223 -195.801 429.688 -200.195 432.617 c 0
 -204.102 435.547 -206.543 438.965 -207.031 442.871 c 1
 -213.867 518.066 l 1
 -215.82 580.078 l 1
 -155.762 580.078 l 1
EndSplineSet
EndChar
StartChar: uni0E49.low_left
Encoding: 135 63238 103
Width: 0
Flags: W
HStem: 428 33<-354 -338> 564 25<-304 -299>
VStem: -350 30<523 541> -284 31<523 541>
Fore
-138 589 m 1
 -138 535 -155 494 -191 466 c 0
 -221 442 -253 428 -295 428 c 2
 -354 428 l 1
 -354 461 l 1
 -338 462 -325 467 -314 476 c 1
 -338 481 -350 500 -350 533 c 0
 -350 561 -331 589 -302 589 c 0
 -275 589 -253 563 -253 534 c 0
 -253 506 -260 485 -274 468 c 1
 -252 472 -236 482 -225 499 c 1
 -209 519 -201 549 -201 589 c 1
 -138 589 l 1
-320 532 m 0
 -320 515 -312 500 -301 500 c 0
 -290 500 -284 515 -284 532 c 0
 -284 549 -290 564 -301 564 c 0
 -312 564 -320 549 -320 532 c 0
EndSplineSet
Back
-134.766 577.148 m 1
 -196.777 577.148 l 1
 -196.777 537.598 -204.59 508.301 -220.215 488.77 c 1
 -230.469 472.168 -246.582 461.914 -268.066 458.008 c 1
 -254.883 474.609 -248.047 496.094 -248.047 522.949 c 0
 -248.047 537.109 -252.441 549.316 -262.207 560.547 c 0
 -271.484 571.289 -282.715 577.148 -295.898 577.148 c 0
 -310.059 577.148 -321.289 571.289 -330.078 559.57 c 0
 -338.867 547.852 -342.773 535.156 -342.773 521.973 c 0
 -342.773 490.234 -331.543 471.191 -308.105 465.82 c 1
 -317.871 457.52 -331.055 452.148 -347.168 451.172 c 1
 -347.168 418.945 l 1
 -289.062 418.945 l 2
 -268.555 418.945 -250 422.363 -233.398 429.199 c 0
 -217.285 435.547 -201.66 444.824 -187.012 456.055 c 0
 -152.344 483.887 -134.766 524.414 -134.766 577.148 c 1
-312.988 520.996 m 0
 -312.988 529.785 -311.523 537.109 -308.105 542.969 c 0
 -304.688 548.828 -300.293 551.758 -294.922 551.758 c 0
 -289.551 551.758 -285.645 548.828 -282.715 542.969 c 0
 -279.297 537.109 -277.832 529.785 -277.832 520.996 c 0
 -277.832 512.207 -279.297 504.883 -282.715 499.023 c 0
 -285.645 493.164 -289.551 490.234 -294.922 490.234 c 0
 -300.293 490.234 -304.688 493.164 -308.105 499.023 c 0
 -311.523 504.883 -312.988 512.207 -312.988 520.996 c 0
EndSplineSet
EndChar
StartChar: uni0E4A.low_left
Encoding: 136 63239 104
Width: 0
Flags: W
HStem: 423 25<-352 -347> 524 37<-325 -325 -325 -325 -325 -325 -257 -251>
VStem: -399 30<468 480> -333 31<473 480> -300 31<485 499.245> -236 102<497 563>
Fore
-134 563 m 1
 -134 468 -182 421 -277 421 c 1
 -277 453 l 1
 -255 458 -236 478 -236 497 c 0
 -236 515 -242 524 -253 524 c 0
 -263 524 -269 511 -269 485 c 1
 -300 485 l 1
 -300 511 -308 524 -325 524 c 1
 -311 517 -302 501 -302 473 c 0
 -302 451 -314 423 -350 423 c 0
 -378 423 -399 450 -399 478 c 0
 -399 493 -397 506 -390 520 c 0
 -379 540 -360 561 -325 561 c 0
 -311 561 -299 555 -288 544 c 1
 -280 553 -268 561 -255 561 c 0
 -217 561 -196 542 -193 506 c 1
 -193 536 l 1
 -195 563 l 1
 -134 563 l 1
-369 473 m 0
 -369 457 -360 448 -349 448 c 0
 -338 448 -333 457 -333 473 c 0
 -333 488 -338 498 -349 498 c 0
 -360 498 -369 488 -369 473 c 0
EndSplineSet
Back
-130.859 550.781 m 1
 -190.918 550.781 l 1
 -188.965 524.902 l 1
 -188.965 496.094 l 1
 -192.383 531.25 -212.891 548.828 -250 548.828 c 0
 -255.859 548.828 -261.719 547.363 -267.578 544.434 c 0
 -272.949 541.504 -277.832 537.598 -282.227 533.203 c 1
 -292.48 543.457 -304.688 548.828 -317.871 548.828 c 0
 -335.449 548.828 -349.121 544.922 -358.887 536.621 c 0
 -369.141 528.32 -376.465 519.043 -381.836 508.789 c 0
 -385.254 502.441 -387.695 495.605 -389.16 488.77 c 0
 -390.137 482.422 -391.113 475.098 -391.113 467.773 c 0
 -391.113 454.59 -386.23 442.383 -376.953 431.152 c 0
 -367.676 419.434 -356.445 414.062 -342.773 414.062 c 0
 -325.684 414.062 -313.477 419.434 -306.641 430.664 c 0
 -299.316 441.406 -295.898 452.148 -295.898 462.891 c 0
 -295.898 477.051 -297.852 487.793 -301.758 496.094 c 0
 -306.152 503.906 -311.523 509.766 -317.871 513.184 c 1
 -301.758 513.184 -293.945 500.488 -293.945 475.098 c 1
 -263.184 475.098 l 1
 -263.184 500.488 -257.812 513.184 -248.047 513.184 c 0
 -236.816 513.184 -230.957 504.395 -230.957 486.816 c 0
 -230.957 477.539 -234.863 468.75 -243.164 460.449 c 0
 -250.977 452.148 -260.254 446.777 -270.996 443.848 c 1
 -270.996 412.109 l 1
 -177.734 412.109 -130.859 458.496 -130.859 550.781 c 1
-360.84 462.891 m 0
 -360.84 470.215 -359.375 476.562 -355.469 480.957 c 0
 -352.051 485.84 -347.168 487.793 -341.797 487.793 c 0
 -336.426 487.793 -332.52 485.84 -330.078 480.957 c 0
 -327.148 476.562 -326.172 470.215 -326.172 462.891 c 0
 -326.172 455.566 -327.148 449.707 -330.078 445.312 c 0
 -332.52 441.406 -336.426 438.965 -341.797 438.965 c 0
 -347.168 438.965 -352.051 441.406 -355.469 445.312 c 0
 -359.375 449.707 -360.84 455.566 -360.84 462.891 c 0
EndSplineSet
EndChar
StartChar: uni0E4B.low_left
Encoding: 137 63240 105
Width: 0
Flags: W
HStem: 486 46<-319 -263 -199 -146>
Fore
-268 589 m 1
 -197 589 l 1
 -199 532 l 1
 -146 532 l 1
 -146 486 l 1
 -201 486 l 1
 -204 428 l 1
 -261 428 l 1
 -263 486 l 1
 -319 486 l 1
 -319 532 l 1
 -264 532 l 1
 -268 589 l 1
EndSplineSet
Back
-262.207 577.148 m 1
 -258.789 520.996 l 1
 -312.012 520.996 l 1
 -312.012 476.074 l 1
 -257.812 476.074 l 1
 -255.859 418.945 l 1
 -200.195 418.945 l 1
 -196.777 476.074 l 1
 -143.066 476.074 l 1
 -143.066 520.996 l 1
 -194.824 520.996 l 1
 -192.871 577.148 l 1
 -262.207 577.148 l 1
EndSplineSet
EndChar
StartChar: uni0E4C.low_left
Encoding: 138 63241 106
Width: 0
Flags: W
HStem: 416 27<-230 -223>
VStem: -293 50<474 484> -205 32<474 485> -163 56<598 611>
Fore
-157 554 m 0
 -171 549 -185 543 -196 536 c 1
 -181 527 -173 509 -173 481 c 0
 -173 443 -194 416 -228 416 c 0
 -265 416 -293 445 -293 482 c 0
 -293 530 -258 550 -197 576 c 0
 -188 579 -163 588 -163 599 c 0
 -163 607 -164 613 -167 620 c 1
 -109 633 l 1
 -108 627 -107 622 -107 619 c 2
 -107 609 l 2
 -107 585 -120 570 -157 554 c 0
-243 476 m 0
 -243 456 -237 443 -225 443 c 0
 -212 443 -205 456 -205 476 c 0
 -205 495 -211 511 -225 511 c 0
 -237 511 -243 495 -243 476 c 0
EndSplineSet
Back
-153.809 542.969 m 0
 -136.23 550.293 -123.535 558.105 -116.211 566.406 c 0
 -108.887 574.707 -104.98 584.473 -104.98 596.191 c 0
 -104.98 599.121 -104.98 602.539 -104.98 605.957 c 0
 -104.98 609.375 -105.469 613.77 -106.934 620.117 c 1
 -164.062 606.934 l 1
 -162.598 603.516 -161.621 600.098 -161.133 597.168 c 0
 -160.156 593.75 -160.156 590.332 -160.156 586.914 c 0
 -160.156 581.543 -164.551 576.66 -172.852 572.266 c 0
 -181.641 568.359 -188.477 565.43 -192.871 563.965 c 0
 -223.145 551.27 -246.094 538.574 -262.695 525.879 c 0
 -278.809 513.184 -287.109 495.117 -287.109 472.168 c 0
 -287.109 454.102 -280.762 438.477 -269.043 425.781 c 0
 -256.836 413.574 -241.699 407.227 -223.145 407.227 c 0
 -206.543 407.227 -193.359 413.086 -183.594 424.805 c 0
 -173.828 437.012 -168.945 452.148 -168.945 471.191 c 0
 -168.945 497.559 -176.758 515.625 -191.895 524.902 c 1
 -186.523 528.32 -180.664 531.738 -173.828 534.668 c 0
 -167.48 537.598 -160.645 540.527 -153.809 542.969 c 0
-237.793 465.82 m 0
 -237.793 475.098 -236.328 483.398 -233.398 490.234 c 0
 -230.469 496.582 -226.074 500 -220.215 500 c 0
 -213.379 500 -208.496 496.582 -205.566 490.234 c 0
 -202.637 483.398 -201.172 475.098 -201.172 465.82 c 0
 -201.172 456.543 -202.637 449.219 -206.055 442.871 c 0
 -209.473 437.012 -213.867 434.082 -220.215 434.082 c 0
 -226.074 434.082 -230.469 437.012 -233.398 442.871 c 0
 -236.328 449.219 -237.793 456.543 -237.793 465.82 c 0
EndSplineSet
EndChar
StartChar: uni0E48.low
Encoding: 139 63242 107
Width: 0
Flags: W
DStem: -144 582 -82 582 -141 519 -85 518
Fore
-82 582 m 1
 -85 518 l 1
 -93 442 l 1
 -96 434 -106 427 -113 427 c 0
 -123 427 -133 434 -134 442 c 1
 -141 519 l 1
 -144 582 l 1
 -82 582 l 1
EndSplineSet
Back
-80.0781 569.824 m 1
 -83.0078 506.836 l 1
 -90.8203 433.105 l 1
 -92.2852 429.199 -95.2148 425.293 -99.6094 422.363 c 0
 -104.004 419.434 -107.91 417.969 -110.84 417.969 c 0
 -115.723 417.969 -120.117 419.434 -124.023 422.363 c 0
 -127.93 425.293 -130.371 429.199 -130.859 433.105 c 1
 -138.184 507.812 l 1
 -141.113 569.824 l 1
 -80.0781 569.824 l 1
EndSplineSet
EndChar
StartChar: uni0E49.low
Encoding: 140 63243 108
Width: 0
Flags: W
HStem: 428 33<-254 -238> 564 25<-204 -199>
VStem: -250 30<523 541> -184 31<523 541>
Fore
-38 589 m 1
 -38 535 -55 494 -91 466 c 0
 -120 442 -153 428 -195 428 c 2
 -254 428 l 1
 -254 461 l 1
 -238 462 -225 467 -214 476 c 1
 -238 481 -250 500 -250 533 c 0
 -250 561 -231 589 -202 589 c 0
 -175 589 -153 563 -153 534 c 0
 -153 506 -160 485 -174 468 c 1
 -152 472 -136 482 -125 499 c 1
 -109 519 -101 549 -101 589 c 1
 -38 589 l 1
-220 532 m 0
 -220 515 -212 500 -201 500 c 0
 -190 500 -184 515 -184 532 c 0
 -184 549 -190 564 -201 564 c 0
 -212 564 -220 549 -220 532 c 0
EndSplineSet
Back
-37.1094 577.148 m 1
 -99.1211 577.148 l 1
 -99.1211 537.598 -106.445 508.301 -122.07 488.77 c 1
 -132.812 472.168 -148.438 461.914 -169.922 458.008 c 1
 -156.738 474.609 -149.902 496.094 -149.902 522.949 c 0
 -149.902 537.109 -154.785 549.316 -164.062 560.547 c 0
 -173.34 571.289 -184.57 577.148 -198.242 577.148 c 0
 -211.914 577.148 -223.145 571.289 -231.934 559.57 c 0
 -240.723 547.852 -245.117 535.156 -245.117 521.973 c 0
 -245.117 490.234 -233.398 471.191 -209.961 465.82 c 1
 -220.215 457.52 -232.91 452.148 -249.023 451.172 c 1
 -249.023 418.945 l 1
 -190.918 418.945 l 2
 -170.41 418.945 -151.855 422.363 -135.742 429.199 c 0
 -119.141 435.547 -103.516 444.824 -88.8672 456.055 c 0
 -54.1992 483.887 -37.1094 524.414 -37.1094 577.148 c 1
-214.844 520.996 m 0
 -214.844 529.785 -213.379 537.109 -209.961 542.969 c 0
 -206.543 548.828 -202.148 551.758 -196.777 551.758 c 0
 -191.895 551.758 -187.5 548.828 -184.57 542.969 c 0
 -181.641 537.109 -180.176 529.785 -180.176 520.996 c 0
 -180.176 512.207 -181.641 504.883 -184.57 499.023 c 0
 -187.5 493.164 -191.895 490.234 -196.777 490.234 c 0
 -202.148 490.234 -206.543 493.164 -209.961 499.023 c 0
 -213.379 504.883 -214.844 512.207 -214.844 520.996 c 0
EndSplineSet
EndChar
StartChar: uni0E4A.low
Encoding: 141 63244 109
Width: 0
Flags: W
HStem: 423 25<-248 -243> 524 37<-221 -221 -221 -221 -221 -221 -153 -147>
VStem: -295 31<468 480> -229 31<473 480> -196 32<485 499.245> -132 102<497 563>
Fore
-30 563 m 1
 -30 468 -78 421 -173 421 c 1
 -173 453 l 1
 -151 458 -132 478 -132 497 c 0
 -132 515 -138 524 -149 524 c 0
 -159 524 -164 511 -164 485 c 1
 -196 485 l 1
 -196 511 -204 524 -221 524 c 1
 -207 517 -198 501 -198 473 c 0
 -198 451 -210 423 -246 423 c 0
 -274 423 -295 450 -295 478 c 0
 -295 493 -293 506 -286 520 c 0
 -275 540 -256 561 -221 561 c 0
 -207 561 -195 555 -184 544 c 1
 -176 553 -163 561 -151 561 c 0
 -113 561 -92 542 -89 506 c 1
 -89 536 l 1
 -91 563 l 1
 -30 563 l 1
-264 473 m 0
 -264 457 -256 448 -245 448 c 0
 -234 448 -229 457 -229 473 c 0
 -229 488 -234 498 -245 498 c 0
 -256 498 -264 488 -264 473 c 0
EndSplineSet
Back
-28.8086 550.781 m 1
 -88.8672 550.781 l 1
 -86.9141 524.902 l 1
 -86.9141 496.094 l 1
 -90.332 531.25 -110.84 548.828 -147.949 548.828 c 0
 -153.809 548.828 -159.668 547.363 -165.527 544.434 c 0
 -171.387 541.504 -175.781 537.598 -180.176 533.203 c 1
 -190.43 543.457 -202.637 548.828 -215.82 548.828 c 0
 -233.398 548.828 -247.07 544.922 -256.836 536.621 c 0
 -267.09 528.32 -274.902 519.043 -279.785 508.789 c 0
 -283.203 502.441 -285.645 495.605 -287.109 488.77 c 0
 -288.574 482.422 -289.062 475.098 -289.062 467.773 c 0
 -289.062 454.59 -284.18 442.383 -274.902 431.152 c 0
 -265.625 419.434 -254.395 414.062 -241.211 414.062 c 0
 -223.633 414.062 -211.426 419.434 -204.59 430.664 c 0
 -197.266 441.406 -193.848 452.148 -193.848 462.891 c 0
 -193.848 477.051 -195.801 487.793 -200.195 496.094 c 0
 -204.102 503.906 -209.473 509.766 -215.82 513.184 c 1
 -200.195 513.184 -191.895 500.488 -191.895 475.098 c 1
 -161.133 475.098 l 1
 -161.133 500.488 -155.762 513.184 -145.996 513.184 c 0
 -134.766 513.184 -128.906 504.395 -128.906 486.816 c 0
 -128.906 477.539 -132.812 468.75 -141.113 460.449 c 0
 -148.926 452.148 -158.203 446.777 -168.945 443.848 c 1
 -168.945 412.109 l 1
 -75.6836 412.109 -28.8086 458.496 -28.8086 550.781 c 1
-258.789 462.891 m 0
 -258.789 470.215 -257.324 476.562 -253.418 480.957 c 0
 -250 485.84 -245.117 487.793 -240.234 487.793 c 0
 -234.863 487.793 -230.469 485.84 -228.027 480.957 c 0
 -225.098 476.562 -224.121 470.215 -224.121 462.891 c 0
 -224.121 455.566 -225.098 449.707 -228.027 445.312 c 0
 -230.469 441.406 -234.863 438.965 -240.234 438.965 c 0
 -245.117 438.965 -250 441.406 -253.418 445.312 c 0
 -257.324 449.707 -258.789 455.566 -258.789 462.891 c 0
EndSplineSet
EndChar
StartChar: uni0E4B.low
Encoding: 142 63245 110
Width: 0
Flags: W
HStem: 470 21G<-167 -109> 527 46<-225 -168 -105 -52>
Fore
-174 631 m 1
 -103 631 l 1
 -105 573 l 1
 -52 573 l 1
 -52 527 l 1
 -107 527 l 1
 -109 470 l 1
 -167 470 l 1
 -168 527 l 1
 -225 527 l 1
 -225 573 l 1
 -171 573 l 1
 -174 631 l 1
EndSplineSet
Back
-169.922 618.164 m 1
 -166.992 561.035 l 1
 -220.215 561.035 l 1
 -220.215 516.113 l 1
 -165.039 516.113 l 1
 -164.062 459.961 l 1
 -106.934 459.961 l 1
 -104.98 516.113 l 1
 -50.7812 516.113 l 1
 -50.7812 561.035 l 1
 -103.027 561.035 l 1
 -101.074 618.164 l 1
 -169.922 618.164 l 1
EndSplineSet
EndChar
StartChar: uni0E4C.low
Encoding: 143 63246 111
Width: 0
Flags: W
HStem: 416 27<-202 -194>
VStem: -264 49<474 484> -178 33<474 485> -136 56<598 611>
Fore
-130 554 m 0
 -143 549 -156 543 -167 536 c 1
 -152 526 -145 507 -145 481 c 0
 -145 443 -166 416 -200 416 c 0
 -237 416 -264 445 -264 482 c 0
 -264 530 -231 550 -168 575 c 0
 -160 579 -136 587 -136 598 c 0
 -136 606 -137 613 -140 620 c 1
 -82 633 l 1
 -81 627 -80 622 -80 618 c 2
 -80 609 l 2
 -80 585 -93 570 -130 554 c 0
-215 476 m 0
 -215 456 -208 443 -196 443 c 0
 -185 443 -178 456 -178 476 c 0
 -178 495 -183 511 -196 511 c 0
 -208 511 -215 495 -215 476 c 0
EndSplineSet
Back
-126.953 542.969 m 0
 -108.887 550.293 -96.1914 558.105 -88.8672 566.406 c 0
 -81.543 574.707 -78.125 584.473 -78.125 596.191 c 0
 -78.125 598.633 -78.125 601.562 -78.125 604.98 c 0
 -78.125 608.887 -78.6133 613.77 -80.0781 620.117 c 1
 -137.207 606.934 l 1
 -135.742 603.516 -134.766 600.098 -133.789 596.68 c 0
 -133.301 592.773 -132.812 589.355 -132.812 585.938 c 0
 -132.812 580.566 -137.207 576.172 -145.996 571.777 c 0
 -154.785 567.871 -161.133 564.941 -165.039 562.988 c 0
 -195.801 550.781 -219.238 538.574 -234.863 525.879 c 0
 -250.977 513.184 -258.789 495.117 -258.789 472.168 c 0
 -258.789 454.102 -252.93 438.477 -241.211 425.781 c 0
 -229.004 413.574 -213.867 407.227 -195.801 407.227 c 0
 -179.199 407.227 -166.016 413.086 -156.738 424.805 c 0
 -146.973 437.012 -142.09 452.148 -142.09 471.191 c 0
 -142.09 497.07 -149.414 515.137 -164.062 524.902 c 1
 -158.691 528.32 -152.832 531.738 -146.484 534.668 c 0
 -140.137 537.598 -133.789 540.527 -126.953 542.969 c 0
-210.938 465.82 m 0
 -210.938 475.098 -209.473 483.398 -206.055 490.234 c 0
 -202.637 496.582 -198.242 500 -191.895 500 c 0
 -185.547 500 -180.664 496.582 -178.223 490.234 c 0
 -175.293 483.398 -173.828 475.098 -173.828 465.82 c 0
 -173.828 456.543 -175.781 449.219 -179.199 442.871 c 0
 -182.129 437.012 -186.523 434.082 -191.895 434.082 c 0
 -198.242 434.082 -202.637 437.012 -206.055 442.871 c 0
 -209.473 449.219 -210.938 456.543 -210.938 465.82 c 0
EndSplineSet
EndChar
StartChar: uni0E0D.descless
Encoding: 144 63247 112
Width: 542
Flags: W
HStem: -6 25<132 150> 0 36<345 436> 99 26<150 152> 344 49<186 192> 367 20G<417 491>
VStem: 55 75<56 75 69 212> 172 30<44.8789 71> 272 74<0 267> 417 74<62 387>
Fore
491 62 m 2
 491 20 472 0 436 0 c 2
 272 0 l 1
 272 259 l 2
 272 309 234 344 186 344 c 0
 150 344 122 335 98 318 c 1
 126 311 152 293 176 263 c 1
 145 255 130 238 130 210 c 2
 130 117 l 1
 135 123 142 125 150 125 c 0
 178 125 202 102 202 58 c 0
 202 16 177 -6 132 -6 c 0
 86 -6 55 21 55 69 c 2
 55 198 l 2
 55 235 70 261 102 277 c 1
 86 283 62 286 31 286 c 1
 41 322 62 349 96 368 c 1
 125 387 154 393 186 393 c 0
 293 393 346 348 346 259 c 2
 346 36 l 1
 389 36 l 2
 404 36 417 45 417 62 c 2
 417 387 l 1
 491 387 l 1
 491 62 l 2
130 59 m 0
 130 36 135 19 150 19 c 0
 165 19 172 36 172 59 c 0
 172 83 165 99 150 99 c 0
 135 99 130 83 130 59 c 0
EndSplineSet
Back
480.957 61.0352 m 2
 480.957 378.906 l 1
 408.203 378.906 l 1
 408.203 61.0352 l 2
 408.203 52.2461 405.273 45.8984 399.902 41.5039 c 0
 394.531 37.1094 388.184 35.1562 380.859 35.1562 c 2
 338.867 35.1562 l 1
 338.867 253.906 l 2
 338.867 341.309 286.621 384.766 182.129 384.766 c 0
 166.504 384.766 151.855 383.301 137.207 379.395 c 0
 122.559 375.977 107.91 369.141 94.2383 359.863 c 1
 61.5234 341.797 40.0391 315.43 29.7852 279.785 c 1
 60.5469 279.785 83.9844 276.855 100.098 270.996 c 1
 69.3359 255.859 54.1992 229.98 54.1992 193.848 c 2
 54.1992 67.8711 l 2
 54.1992 44.4336 61.0352 26.3672 74.707 13.6719 c 0
 88.3789 0.488281 106.445 -5.85938 128.906 -5.85938 c 0
 150.879 -5.85938 167.969 -0.488281 180.176 9.76562 c 0
 191.895 20.5078 198.242 36.1328 198.242 57.1289 c 0
 198.242 78.125 192.871 94.7266 182.617 105.469 c 0
 172.363 116.699 160.156 122.07 146.973 122.07 c 0
 139.16 122.07 132.324 119.629 126.953 115.234 c 1
 126.953 206.055 l 2
 126.953 232.91 142.09 250 171.875 257.812 c 1
 148.438 287.109 123.535 305.176 96.1914 311.035 c 1
 118.652 328.125 147.461 336.914 182.129 336.914 c 0
 205.566 336.914 225.098 329.102 241.699 313.965 c 0
 257.812 298.828 266.113 278.809 266.113 253.906 c 2
 266.113 0 l 1
 426.758 0 l 2
 444.336 0 457.52 4.88281 466.797 15.1367 c 0
 476.562 24.9023 480.957 40.5273 480.957 61.0352 c 2
126.953 58.1055 m 0
 126.953 69.3359 128.418 78.6133 131.348 85.9375 c 0
 134.277 93.2617 139.648 97.168 146.973 97.168 c 0
 154.297 97.168 159.668 93.2617 163.086 85.9375 c 0
 166.504 78.6133 167.969 69.3359 167.969 58.1055 c 0
 167.969 46.875 166.504 37.1094 163.086 29.7852 c 0
 159.668 22.4609 154.297 19.043 146.973 19.043 c 0
 139.648 19.043 134.277 22.4609 131.348 29.7852 c 0
 128.418 37.1094 126.953 46.875 126.953 58.1055 c 0
EndSplineSet
EndChar
StartChar: quoteleft
Encoding: 145 8216 113
Width: 227
Flags: W
Fore
161 472 m 1
 169 457 l 1
 150 444 94 405 94 367 c 0
 94 358 99 352 108 352 c 0
 111 352 115 353 123 353 c 0
 142 353 173 342 173 299 c 0
 173 264 149 243 117 243 c 0
 68 243 48 285 48 321 c 0
 48 407 125 451 161 472 c 1
EndSplineSet
Back
71.7773 276.855 m 0
 76.1719 274.902 81.543 273.926 88.8672 273.926 c 0
 100.098 273.926 110.352 277.832 118.652 286.133 c 0
 126.953 293.945 130.859 304.199 130.859 315.918 c 0
 130.859 327.148 126.953 336.914 118.652 344.727 c 0
 110.352 352.051 100.098 355.957 88.8672 355.957 c 0
 85.4492 355.957 83.0078 355.957 80.5664 355.469 c 0
 73.2422 354.004 l 1
 73.2422 358.887 l 2
 73.2422 369.141 76.6602 378.906 83.4961 388.184 c 0
 90.332 397.461 98.1445 404.785 106.934 411.133 c 0
 110.84 414.551 114.258 416.504 116.699 417.48 c 0
 118.652 418.457 120.117 418.945 120.117 418.945 c 1
 110.84 443.848 l 1
 110.84 443.848 106.934 441.895 99.1211 437.988 c 0
 90.8203 434.082 82.0312 427.734 72.2656 419.434 c 0
 62.9883 411.133 54.1992 400.879 45.8984 388.184 c 0
 38.0859 375.488 34.1797 359.863 34.1797 341.797 c 0
 34.1797 325.195 37.5977 311.523 45.4102 300.293 c 0
 53.2227 289.551 62.0117 281.738 71.7773 276.855 c 0
EndSplineSet
EndChar
StartChar: quoteright
Encoding: 146 8217 114
Width: 227
Flags: W
HStem: 472 21G<94.5 135>
Fore
66 243 m 1
 59 258 l 1
 78 271 133 310 133 348 c 0
 133 356 128 363 119 363 c 0
 116 363 113 362 104 362 c 0
 85 362 54 373 54 416 c 0
 54 451 79 472 110 472 c 0
 160 472 180 429 180 394 c 0
 180 308 102 264 66 243 c 1
EndSplineSet
Back
92.7734 440.918 m 0
 88.8672 442.871 83.4961 443.848 76.1719 443.848 c 0
 64.4531 443.848 54.6875 439.941 46.3867 432.129 c 0
 38.0859 423.828 34.1797 414.062 34.1797 401.855 c 0
 34.1797 390.625 38.0859 381.348 46.3867 373.535 c 0
 54.6875 365.723 64.4531 361.816 76.1719 361.816 c 0
 79.1016 361.816 82.0312 362.305 84.4727 362.305 c 0
 91.7969 363.77 l 1
 91.7969 358.887 l 2
 91.7969 349.121 88.3789 339.355 81.543 330.078 c 0
 74.707 320.801 66.8945 312.988 58.1055 307.129 c 0
 54.1992 303.711 50.7812 301.27 48.3398 300.293 c 0
 46.3867 299.316 44.9219 298.828 44.9219 298.828 c 1
 54.1992 273.926 l 1
 54.1992 273.926 58.1055 275.879 65.918 279.785 c 0
 74.2188 284.18 83.0078 290.039 92.2852 298.34 c 0
 102.051 306.641 110.84 317.383 119.141 330.078 c 0
 126.953 342.773 130.859 357.91 130.859 375.977 c 0
 130.859 392.578 126.953 406.738 119.629 417.48 c 0
 111.816 428.711 103.027 436.523 92.7734 440.918 c 0
EndSplineSet
EndChar
StartChar: quotedblleft
Encoding: 147 8220 115
Width: 341
Flags: W
Fore
135 472 m 1
 143 457 l 1
 124 444 68 405 68 367 c 0
 68 358 73 352 82 352 c 0
 85 352 89 353 97 353 c 0
 116 353 147 342 147 299 c 0
 147 264 123 243 91 243 c 0
 42 243 22 285 22 321 c 0
 22 407 99 451 135 472 c 1
320 472 m 1
 327 457 l 1
 308 444 253 405 253 367 c 0
 253 358 257 352 266 352 c 0
 270 352 273 353 281 353 c 0
 300 353 332 342 332 299 c 0
 332 264 307 243 276 243 c 0
 226 243 206 285 206 321 c 0
 206 407 283 451 320 472 c 1
EndSplineSet
Back
79.1016 276.855 m 0
 81.0547 275.879 83.4961 274.902 86.9141 274.414 c 0
 90.332 273.926 93.75 273.926 97.168 273.926 c 0
 109.863 273.926 120.605 278.32 129.395 286.621 c 0
 138.672 294.922 143.066 305.664 143.066 318.848 c 0
 143.066 331.055 138.672 341.309 129.395 349.609 c 0
 120.605 357.91 109.863 361.816 97.168 361.816 c 0
 92.2852 361.816 86.4258 361.328 80.0781 359.863 c 1
 80.0781 366.211 l 2
 80.0781 376.465 83.9844 387.207 91.3086 396.973 c 0
 99.1211 407.227 107.91 415.527 117.188 421.875 c 0
 121.094 425.293 124.512 427.734 126.953 428.711 c 0
 129.883 429.688 130.859 430.176 130.859 430.176 c 1
 121.094 457.031 l 1
 121.094 457.031 116.699 454.59 107.91 450.684 c 0
 99.1211 446.289 89.8438 439.453 79.5898 430.664 c 0
 69.3359 421.387 59.5703 410.156 50.7812 396.484 c 0
 42.4805 382.812 38.0859 366.211 38.0859 347.168 c 0
 38.0859 329.59 41.9922 314.941 49.8047 303.223 c 0
 58.1055 291.016 67.8711 282.227 79.1016 276.855 c 0
212.891 276.855 m 0
 214.844 275.879 217.773 274.902 221.191 274.414 c 0
 224.121 273.926 227.539 273.926 230.957 273.926 c 0
 243.652 273.926 254.395 278.32 263.672 286.621 c 0
 272.461 294.922 276.855 305.664 276.855 318.848 c 0
 276.855 331.055 272.461 341.309 263.672 349.609 c 0
 254.395 357.91 243.652 361.816 230.957 361.816 c 0
 226.562 361.816 220.703 361.328 213.867 359.863 c 1
 213.867 366.211 l 2
 213.867 376.465 217.773 387.207 225.586 396.973 c 0
 233.398 407.227 241.699 415.527 250.977 421.875 c 0
 254.883 425.293 258.301 427.734 261.23 428.711 c 0
 263.672 429.688 265.137 430.176 265.137 430.176 c 1
 254.883 457.031 l 1
 254.883 457.031 250.488 454.59 242.188 450.684 c 0
 233.398 446.289 223.633 439.453 213.379 430.664 c 0
 203.125 421.387 193.848 410.156 185.059 396.484 c 0
 176.27 382.812 171.875 366.211 171.875 347.168 c 0
 171.875 329.59 175.781 314.941 184.082 303.223 c 0
 191.895 291.016 201.66 282.227 212.891 276.855 c 0
EndSplineSet
EndChar
StartChar: quotedblright
Encoding: 148 8221 116
Width: 341
Flags: W
HStem: 472 21G<50 90.5 234 275>
Fore
206 243 m 1
 199 258 l 1
 218 271 273 310 273 348 c 0
 273 356 268 363 259 363 c 0
 256 363 253 362 244 362 c 0
 225 362 194 373 194 416 c 0
 194 451 218 472 250 472 c 0
 300 472 320 429 320 394 c 0
 320 308 242 264 206 243 c 1
22 243 m 1
 14 258 l 1
 33 271 89 310 89 348 c 0
 89 356 84 363 75 363 c 0
 72 363 68 362 60 362 c 0
 41 362 10 373 10 416 c 0
 10 451 34 472 66 472 c 0
 115 472 135 429 135 394 c 0
 135 308 58 264 22 243 c 1
EndSplineSet
Back
235.84 445.801 m 0
 233.887 447.266 231.445 448.242 228.027 448.73 c 0
 224.609 448.73 221.191 449.219 217.773 449.219 c 0
 205.566 449.219 194.336 444.824 185.547 436.523 c 0
 176.27 428.223 171.875 417.48 171.875 403.809 c 0
 171.875 392.09 176.27 381.836 185.547 373.535 c 0
 194.336 365.234 205.566 360.84 217.773 360.84 c 0
 222.656 360.84 228.516 361.816 234.863 362.793 c 1
 234.863 356.934 l 2
 234.863 346.191 230.957 335.938 223.633 326.172 c 0
 215.82 315.918 207.52 307.617 198.242 300.781 c 0
 193.848 297.852 190.43 295.41 187.988 294.434 c 0
 185.547 293.457 184.082 292.969 184.082 292.969 c 1
 193.848 266.113 l 1
 193.848 266.113 198.242 268.066 207.031 272.461 c 0
 215.82 276.855 225.098 283.691 235.352 292.48 c 0
 245.605 301.27 255.371 312.988 264.16 326.66 c 0
 272.461 340.332 276.855 356.445 276.855 375.977 c 0
 276.855 393.555 272.949 408.203 265.137 419.922 c 0
 256.836 432.129 247.559 440.43 235.84 445.801 c 0
102.051 445.801 m 0
 100.098 447.266 97.168 448.242 94.2383 448.73 c 0
 90.8203 448.73 87.4023 449.219 83.9844 449.219 c 0
 71.2891 449.219 60.5469 444.824 51.2695 436.523 c 0
 42.4805 428.223 38.0859 417.48 38.0859 403.809 c 0
 38.0859 392.09 42.4805 381.836 51.2695 373.535 c 0
 60.5469 365.234 71.2891 360.84 83.9844 360.84 c 0
 88.8672 360.84 94.2383 361.816 101.074 362.793 c 1
 101.074 356.934 l 2
 101.074 346.191 97.168 335.938 89.3555 326.172 c 0
 82.0312 315.918 73.2422 307.617 63.9648 300.781 c 0
 60.0586 297.852 56.6406 295.41 54.1992 294.434 c 0
 51.2695 293.457 49.8047 292.969 49.8047 292.969 c 1
 60.0586 266.113 l 1
 60.0586 266.113 64.4531 268.066 73.2422 272.461 c 0
 81.543 276.855 91.3086 283.691 101.562 292.48 c 0
 111.816 301.27 121.094 312.988 129.883 326.66 c 0
 138.672 340.332 143.066 356.445 143.066 375.977 c 0
 143.066 393.555 139.16 408.203 130.859 419.922 c 0
 123.047 432.129 113.281 440.43 102.051 445.801 c 0
EndSplineSet
EndChar
